<mxfile host="app.diagrams.net" modified="2023-08-31T07:21:22.136Z" agent="Mozilla/5.0 (Windows NT 10.0; Win64; x64) AppleWebKit/537.36 (KHTML, like Gecko) Chrome/116.0.0.0 Safari/537.36 Edg/116.0.1938.62" etag="U8RuQvVDxcEtJ1QqMy4W" version="21.7.1" type="github">
  <diagram name="Page-1" id="RTfeSs6GZPQOENNEEhFh">
    <mxGraphModel dx="1379" dy="755" grid="1" gridSize="10" guides="1" tooltips="1" connect="1" arrows="1" fold="1" page="1" pageScale="1" pageWidth="850" pageHeight="1100" math="0" shadow="0">
      <root>
        <mxCell id="0" />
        <mxCell id="1" parent="0" />
        <mxCell id="aUsY_H1b6O0TGKv6YpwI-1" value="" style="whiteSpace=wrap;html=1;aspect=fixed;" vertex="1" parent="1">
          <mxGeometry x="180" y="60" width="700" height="700" as="geometry" />
        </mxCell>
        <mxCell id="aUsY_H1b6O0TGKv6YpwI-2" value="" style="rounded=0;whiteSpace=wrap;html=1;" vertex="1" parent="1">
          <mxGeometry x="230" y="120" width="50" height="430" as="geometry" />
        </mxCell>
        <mxCell id="aUsY_H1b6O0TGKv6YpwI-3" value="&lt;b&gt;&lt;br&gt;A&lt;br&gt;P&lt;br&gt;I&lt;br&gt;&lt;br&gt;G&lt;br&gt;A&lt;br&gt;T&lt;br&gt;E&lt;br&gt;W&lt;br&gt;A&lt;br&gt;Y&lt;/b&gt;" style="text;html=1;strokeColor=none;fillColor=none;align=center;verticalAlign=middle;whiteSpace=wrap;rounded=0;" vertex="1" parent="1">
          <mxGeometry x="237.5" y="165" width="35" height="340" as="geometry" />
        </mxCell>
        <mxCell id="aUsY_H1b6O0TGKv6YpwI-4" value="" style="ellipse;shape=cloud;whiteSpace=wrap;html=1;" vertex="1" parent="1">
          <mxGeometry x="100" y="295" width="120" height="80" as="geometry" />
        </mxCell>
        <mxCell id="aUsY_H1b6O0TGKv6YpwI-6" value="Hotel Service" style="rounded=0;whiteSpace=wrap;html=1;fillColor=#d5e8d4;strokeColor=#82b366;" vertex="1" parent="1">
          <mxGeometry x="430" y="120" width="120" height="60" as="geometry" />
        </mxCell>
        <mxCell id="aUsY_H1b6O0TGKv6YpwI-7" value="Reservation Service" style="rounded=0;whiteSpace=wrap;html=1;fillColor=#d5e8d4;strokeColor=#82b366;" vertex="1" parent="1">
          <mxGeometry x="430" y="260" width="120" height="60" as="geometry" />
        </mxCell>
        <mxCell id="aUsY_H1b6O0TGKv6YpwI-8" value="Inventory Service" style="rounded=0;whiteSpace=wrap;html=1;fillColor=#d5e8d4;strokeColor=#82b366;" vertex="1" parent="1">
          <mxGeometry x="440" y="400" width="120" height="60" as="geometry" />
        </mxCell>
        <mxCell id="aUsY_H1b6O0TGKv6YpwI-12" value="Guest Service" style="rounded=0;whiteSpace=wrap;html=1;fillColor=#d5e8d4;strokeColor=#82b366;" vertex="1" parent="1">
          <mxGeometry x="440" y="530" width="120" height="60" as="geometry" />
        </mxCell>
        <mxCell id="aUsY_H1b6O0TGKv6YpwI-13" value="Notification Service" style="rounded=0;whiteSpace=wrap;html=1;fillColor=#d5e8d4;strokeColor=#82b366;" vertex="1" parent="1">
          <mxGeometry x="660" y="480" width="120" height="60" as="geometry" />
        </mxCell>
        <mxCell id="aUsY_H1b6O0TGKv6YpwI-14" value="Payment Service" style="rounded=0;whiteSpace=wrap;html=1;fillColor=#d5e8d4;strokeColor=#82b366;" vertex="1" parent="1">
          <mxGeometry x="660" y="330" width="120" height="60" as="geometry" />
        </mxCell>
        <mxCell id="aUsY_H1b6O0TGKv6YpwI-15" value="" style="shape=image;verticalLabelPosition=bottom;labelBackgroundColor=default;verticalAlign=top;aspect=fixed;imageAspect=0;image=data:image/png,iVBORw0KGgoAAAANSUhEUgAAADoAAAA1CAYAAAAQ7fj9AAAEZklEQVRoBe2Z908VQRDH+U/8wcQGhiJFIYCiYgPFRrFibMHkRUGxEDX2higoloiKBSGiogiCYI+GaIwaWxBElCBVeKImxvjLmHnJXpa9Pd85d+eLcj9cttzszPezs2/37p7X9x8/oS9cXn0BEhlt0P8t03ZG7Yz+o7u0vXTNWLqfv3yDktJySHGsgHGT4iAkNBIGDPF1XVjHvmWOVLhSVgFoa0ZMLR+WZLS5pQ1WrsmAgd6+0K//IF3XQG8/WJOxET62dlgCbDrorsz9rozpBRTtEDgrO9d0WNNAW9s7IWbKDF3ZE+Fk7fikedDxyWkasCmgr2rrYER4lGmQDDwiKhrevW8yBdYwKP4eg0MjTIfkYds7uwzDGgLtcvbAuIlTekHGTp0J23ftde2oTKzecuyEWNi2MxNw2fJj4qYnGt6VDYFu2LS1lyAUV3zpijL7t+89gPBR0YqNt28gRE+Y7Pot+/gFKf247G/cvquMu159S7nHgDP35Sj3tY6Q3/WTQd+++6ASg6KePn/ZSxCej0+evQDZ8uvscrrsseRF1jU0qnwPHhpg6OghgzpS01ViEBSheNGU+uvaeqnvjZu3k32TQJ0936RCxKVLgcQx5ZXVUv9D/YP/LmhpeYVUSEBwGHR86iaLYRODExkaIT+u7tc8IvknZXR52mopaP6ZcyQRDJAvL5SUSmNs2bGbFIMEikcI2w35Eo8bXqzRuuxZee6CxaQYJFDZUxA+NBgFE8dHRU9STeiY8TGkOCRQPousHj5yLEmACMe3Y+PUz84+foGkOCRQ32HDVTNNFcCDifWwyNGqOBhbtNPTJoFOm5mkEoCZlT0U6BEhs9E6wjC2zN5dHwk0ddVaKejlq9dIImQiq2/dlcZIW51BikECPXDoqFTEjMQ5JBEy0ITZ86Uxco8cI8UggZZVVElF4PI9duIUSQgPe+psoab/yqqbJP8kUDwv/QLVGxLbgffuP0ASg7A4lvkRy4CgUMDfLj8peuskUHR+NC9fEbRu/SY4XVAEIWEjlT48a7MPHoam5ha3whqbml3fifjxIiS2806edutLC5wMig7xkyUKwPfMqpt3oLm1XfqMmrxwqabAJSkOZXJkcKwPJ04LQk+/IdCCouJeIt/UN8CzF68A3x2ZQCz5l2pRFL7W8bZa9cLzFz0HiqLnJi9ShOKxg301Dx/Dnqwc14VLXIQT21pwrB9jiGP+tG0ooyxY4pxkBRZf4Vi/3pIBycqEWfMMfy9CHaaA4k6IgphQ/MiVlr5Oyao7YDZOLPEjGXWXFWOaAopOnT1fYXrCbAWWFy0GFdu8LatPi5/l8inaUtumgTIBx/PPAJ53TDCW7J5Wydv6B40A9KFlS+03HRSFdH/+AlnZB5Xd1504/L8Fd2ocg2Pd2VPuWwLKhOD/MfUN790KR5uWtk63dswvpbQUlCLIqjE2qFUz6ym/dkY9NfNWxbUzatXMesqvnVFPzbxVce2MWjWznvJrZ9RTM29V3F8EWqlD02EFYQAAAABJRU5ErkJggg==;" vertex="1" parent="1">
          <mxGeometry x="290" y="680" width="60" height="54.83" as="geometry" />
        </mxCell>
        <mxCell id="aUsY_H1b6O0TGKv6YpwI-16" value="" style="shape=image;verticalLabelPosition=bottom;labelBackgroundColor=default;verticalAlign=top;aspect=fixed;imageAspect=0;image=data:image/png,iVBORw0KGgoAAAANSUhEUgAAALIAAAB3CAYAAACnrxpvAAAWj0lEQVR4Ae2dZ3QcxZaAjckgI8k8sDFgk6NNTkvOC+wzOed8FhMWDo+MYck5PJa8jwwmHw7hAY+cwxIsjRUtS46yJQdZlmTdn3fP11LJNa2ZUc9M92hmVD/6TM9MdXV111e3b9269/YwEVG3uXtQyAyoqg4r5AtwbXcDEAYcyO5pVBRPYweyA9mB7B7r7rGeLwyskMjL21S6WtyWT/dAlheFtMwF7CtAXvgvlbqJKvXHuS0f7kHT31QQLk71CXQPVoDcMUOleheVijVUKkvcNpj3oGK4SsuUQB3oQO9R71aA3N2lMv+BXoDXVal026Dcg4o1VWoPVenucCCn8TRaATIHtU9TqdtLpbLMgTwoA3mkSmWpStt3DuI0IOapFA+ydKvMu1WlstyBPCggl6jMOE2la6EDOTuQRaVjpkrVGAdyzkEuV5k2TmXhuyrOWpH2QPZJ5F676LzHVCpWdTDnFOYylRnHqHS1pt2JbsLXT7UwBv4ulRiTPadi5GzCFytTaXnPQZymSmEGcWKJTGUtb6hUrO6kck6k8giV6UeoLF/qQA4d5K75KtMP7ZlF56Qzh7C5D7tx2/85iDOEOIHVwqgWfHartDyrUolJaAhDFvW1YzdumtRzv7PoSPOIHaqfyVULbmpHk8r0f3e6cmQwj1SJjVTpqHXSOMtBnBpkKl/wpEpsfSeVI4G5RGX2NU43zhLiAVSLXjUDb7DaPRzIoYNcrlK9rcqSr500zgnInKT1PWdXDh3kMpWmU1W6Ox3IOQOZE9X8mzPHhQnztFEqS352EIcAcTDVwpxo0We9iyTOoSh7K84IlcbzHcSGrRA+B57smZMsX6jSeLpz8wxDKjN5xiJk7q37zPpeBAcZu3LrOyqx0dGa46ZtrFI1XqVqQuIttnH8xDPt8psnrtecz19/GODadWA3bn4k645zg8Be80jqaxFfqO+mYcFoOCFCf2XMUYT4pFiqXfCySmydXphLVOZcr9LdnhyMBVNUYqUrys/9b5XuZcnLN/+PSuXa8YPFBjGr/RKVqm1VOmcnP7+TzhndmzQkci/cSOXIHO8zADld8AcNZFZIy1SaH3DRHxEM1vRBXr5EpX6iCo/IrKRTomXvYga5rMce316RkcTpeypGAEEx1J0+yNzIJT+qTB3uQE5rIK+lMge1psuBHMFgzAxkGtJwRgR25WKVyKziba7S0eggjgBiniiZg7z0N5VpG4WsLxcpyLhpznOWiihVmMxBJnnIrP9SqSAHRiJ9N5PfihHkEpXqnV0IU0SS2AyOzEGmYYu/VKnaKkS7conKzEk9iwWd81T8W9cCleanVCpH9A4eyl+WXnm8zTpm9a+bc1H/vAfDNb8RZbPQhTAZ4KL6zA5k7LdN54SrXmAN4VGcarNjCaMun9XTpkSl/oieARKxRIoKkEKpNzuQPan8ncq0v4SoXmSikuTjMTjNj1JpeXnA8P76+np95ZVXtKWlpW8y+Ntvv+m7774b91sQqDo7O3XKlCn61Vdf9dVljluwYIG+8847WllZ6f23ZMkS/eWXX/SNN97Q119/Xb/44gudP39+v+PM8fn8mT3I0qXSeHFEduV8BDRom8pU6g/ryRMygDQGpPXXX19///33PojuvPNO3WmnnRSg0wFo6dKluvHGG+uee+7Z77iffvpJt99+e33wwQe1ra1N7733Xt1hhx10nXXW0REjRuiWW26p771XmGpQCCCLSuecHlUgq8dwLyCe7wT+EEm22Abx0j/q8hlfU6nK/H8EisVLBvKOO+6ov/76az8gU4G9bNkyHTt2rI4fP77fce3t7drY2Kitra06ffp0XXvttfWkk07SP//8U2tra72BNG/evH7HpTpfvvwXDshInFmTQ7ArB/GdyNLXovnu1M7sofhalKvUjE/tA2JJaUBeb7319Oeff1YkKsDdeuutakC+8cYbPYmJ5CwvL9dHH31Uu7u7Pch33nlnT6KWlpbqmWeeqYsWLfJA3nzzzfWcc87xjhs2bJj+8ccfXnnqfOyxx7Surk75/ZFHHtHly+PzMM+YMUOPOOIIXWuttXT11VfXs846y4OfJ8Yuu+ziHX/66afrhx9+qCeffLL3/wknnOCV32677bSqqirngyE8kDvqVKq2zHLiVyTmNyaqrR8G7kxARjqef/75es011+h1112ne++9dx/IH3zwgT7//PP68ssv62GHHaYrr7yyIjnvvvtuLSsr02effVZfffVVT6dmICCRgfC4447TY445Rtdcc029/vrrPX0YVcIG+f7771f0aiNZgfqggw5SBsZDDz2kN9xwg5aUlOill17qqTmoO6ghSPIffvjB+1xjjTX0oosuUtShTTbZRC+77LK++ky9UX+GBzIeZV4CxGzsysUAconK9Imppb4ljelgQAY8pNsll1zibUg+I5EBDV0ZHRdIkJI1NTWergvIJ554ojdZA26jWmy11VaedEY6jh49Wq+88spAIKM7o2OPGzfOg3HhwoW60UYb6e677+5JddpFG5ubm3Xx4sV6/PHHe+W5jqamJj3kkEP0tNNOK2CQ6RxW+2p3zcKuXAQgYzdu+yGtjjSqxY8//qhYEtgmT57cB/Ipp5ziTQZRP5COK620kmLpmDNnjiddmdghQc877zzP6oBE3nTTTb02VFRU6KhRo5KC7FctgNMG2Xzfbbfd+kBGigOuARkpXFwg43w/+z+HMMglKk0XqyxfnDbIiawWSGTgBkx0TyZpN998s/IoB2RAQjJitkONOPzwwxX9lvJGoiYDmckeKgcqAfryrFmzvIkgdW2xxRaeFJ47d67GYjFPoh9wwAHeZBCJfN9998WBzPloB3r4fvvtp2effXZa188gyHYLT7UwjWmPqVSNjbcsBJ75F7JEHqkybazKovTNV0jkRCAb8xuPbyTxueee64Gy6qqreqrFc889pwcffLCnWiCtL7/88j6JvM0223hwYDNGIl999dXeZM/oyAwC9HEmj0wMKY9kxfwGqEh01AnMdagp6OmoN7TJDzKTxn333Vf32msvT5q/9tprWYOZLtjhg+xJ5ZsytCsXOMiNp2SUpHugBRH+Z0L30ksv6eeff64vvPCCorsibZkEPvHEE/riiy96JjUmayyIGHswUpyJIAsf/gUR8/2pp55SNsphnkPP/uSTT/Tpp5/2ti+//NIDE2nNIg2SF9CMasEgon1PPvmk9z+qUbogZls+ApBFBed7exk5HYnc5zsxX6XTtxFqldTXwleWYxOV7/O1SFI+U18LVjcX/SvSDsTklqjDk/2eqGyi3zg+kzoMyEZHzqSORO3J5LdoQEbNWPC/KpVrpa9iRO07kW79gQZhuUrDxISQZdIphXIMkvfCCy/0dPLBbnN0IHfOVandJ0u7ctDl4MEuxwtseh63g92huTw/agzqBgs4uTxvonNFBzKpoOb/XSVW7A5FJSqzrhz0jkzUufn8G2pIV1d4YV/RgYx6saxOpf6ADPXlgFI2XV+LQKpCwHPjFx3bUGVZjQPZWK2SfGLuw8PujjvuUJazWVpP1yEq1cCMFmQuau7dKpWj0teVAwEXxDfDzmsRFNCg5dZRmXNzYJ+KZB2BHZdOtjesDMnKJ/p99uzZntXBruObb77p50eR6Nhc/MayOGY6s2HpYKUyrHNHD7L3urPtrKiOoJAEKZeuuS5InUHLlKlUj1dpy74zPvvss74ONh2NXdbvzJOq03HNNMfyia0ZO3GqY3L5X7ogo3bgABXUlBc9yEjl+U/nSfqAoJAGKderG6fKcpTkMesHCDMWq2w2iBtssIFnF/aXTfadBQ37+HXXXTehc32y46P+PQjILLkTYICDE951xx57rGeXDjKgcwMyDkXeC9vDTuoyiBKZ6I+lsdAk3gUXXBAHIr4TQVfIWMSwIWYff4mg0ixqiKk/CMhEtbCSuNpqq/VdDy6r+QMykmnhP3sjrsN8uc4ggYyb5sy/hQYxHc0SsB9GpFKQTnzmmWf6HYuHWi4ADXqOICCzgshyuX0f8g9kVtmm/8cgpw8IojIMVKZUJTa2JxI7oOoQpLORqkyA7E7EJZLfUx0P6IceemjccdRB/F2q43L9X/GAzPuVW14NOS3tIEhk3DSJIgkRYurCJwJ3TRtkln6ZCKY6F2Yt9Gn7OAYEfsX+4/BrJrgUDzk29m2nen/5ML8HAfnrr7/24gbta+G4IE+l3OjIptOJ7avndWdhZb03eS0aE+ep6GxWaX48RIvJCJWaPVU6Z/WDJNtOZ5b+wAMPxAFJJMjjjz+esiPRo9Gn7c43ERqsuhGOdNVVVyn+xLhbbrjhhh74wM8+vxFFQnS1H2qch/B0I9SJsCncM5mIMej810tZHJcIt7LLmidKMpBpI37UHHPUUUd5YVv2teBRx39mw2n/22+/7Xf+3IIM0AueV4mZBCsDPcYD/B+J70Sy85aqLEAah7ciZQPx8ccfe37Adkfiy4BVwy5n9pFU6NF2efaphzLvv/++58Lp/z/Zd3yOiTwxzj/ASdSKXX6PPfZQ/JRNG8wnIVa4itplCdeqrq72yiYDGUvFmDFj4o6z6/DvDx8+XL///vt+5889yLzCoW6/EKVkMujC/r1MpW5vlfboAit53BMvZ3ceZjWc3g0w9ufMmTO9GD67PJLWSEETLGr/P9A+cYPYbzlPPoKMbzVurfZ9YD/3ICOVPQtGFGlpw4bXrq9UZd69kaaF7ejo8B6zSB0bOFbo/B3HdyZ0m222WVxZHtMGRIBmwkhdxN3ts88+euSRR+rRRx+tBx54oGeis8/DPmqKya+RS5ABFNv3KqusEnc9tIf/2ND9CetCivvvx+CAjENR3V8zdL634crhftWYnvwdRt+P6BPnecL+bcBuueWWfh2HWoH+jB5tl7UnR4CIP8PUqVO9wFCCU3GmRy8lNIml8TPOOKNfHbQBUHIBMnMDnkQMurfeessL0bKv57bbbtOGhgbvf8qxFJ9o8jc4IAPB0l9VKnm3R5h25YjAxm7cTLKV7GPLBqoDuIh6tjsTaervPBY7Jk2aFFeOOL2BrBz+8+PT4Tf73X777TkD2W5PYdiR/RAsX6TSdF4BvO6sVKVmh6wdg+wOS7WPhCKA0waZfX/SE/Rm/7I09mRC8lPV7/8v0cC59tprHcj+G5X8e7fKwvdVpm0SrZtnIC+6FJIcu/GiD9KCI/k1B5PoiVbq7rrrrrg2oDfbsKNXM1Hzm9AGaksiO7QD2S91B/pObF/j8SHalVMAmRHQI3pex8aq5EDXEuL/TGZsSNnfdttt49qA3myXYVL05ptvxpWx28wE7u233/ayFZGxyGwPP/ywl63IrsuBnElntn6sEiuPyF85S7BjI1VaX0wKhw1K2PvYYG24mLWTY4LzoC/71QpssZjj7HYgnT/66CMdOXJkXF12vYn2HciZgNzdodLw1zy0K/cGlLIamcl1ZXkMofg2ZOSGw0pBW9CX7f/YJ7+Fv51MnkgV6y870HcHcqad114ZXlrajFSIBJKbWEMvSXcwvdYPUbbfSfVKjjcDHWmyWP4l0BN92fxuPslJYZ8T05lf/aAsy9Is+yLx2cgcZLtNUsaBnCnIHNc0Kb/syjUTUr/qN5trDXAsDj1+rzasGVgZ0JcNwOYT27ANMv4Qp556alw5jiffMvZks/EdtcXUkynIDDCyiNr1BFmitttcmOY3f2d21Kqgk+aFXRlLRU92HftG53IfiXrTTTfFgYE9GfXCb2cm55u/bQwEs6pn4ML5x1+O5V6/91wqiUw+OntlDT2cRZbvvvvOk/DmXHwOTZB5kTrvla7MJi1tAhUhbVWjVKXhuH4d7gcg6u847qAukIvYhgOQSEFr/0baLH97gAtvMrsc6Wdt906kKA5GLA3b5QzILJn7XUsph7M7HmhYQe65555+5zF1hQEybTF5M3BMsttvX/Pgrez5JTLfl3ytUk2g6mBZMXCaX0+l7ed+YNg3LVf75Fjbdddd4yAzkJhPzG7GmmG3C4+5iy++OO5YLBvkSSb5IXo2ybonTJjQz7/BgMxgwjaNfm7OxycDaeutt/YSINq/+/fTBdm848Suh6cQg4n5Ae1l+TyRrTy/QMYHo+nUwbMr8/LLWZer8DLMRAMtx78hfcgBYXesfx8nIKSvv72sEPojqzmWiR1SntS0/rrMdwMydZIgkUyg5r90PtMF2XZySnYefK0TxSLmF8iA0sargUcPgl25TKVqnMriaBMR+oEb6DuvM0gFHe8aQZ9OVA/OQqQV8EtUGxIclJKpFtSJow7S1z7Gv0/7SIvL04OoFvN/uiBzPhK4pLpeggD8E1uOyz+Qgbnx/EGwK5eqNF2UdpLuRACF+RuPWyZzmMz8G26ZBK2mOt+nn36qEydOjJsgkhOZPMdAgX5NFIldN5Eqdp2cY//99++LREGq88jHpZI6cDLCyw51hlwapi6CAvBcoy4iWczvfPKyHZOe1j4X+vAVV1yhOPDzWgkzKNgnwpo6CwfkjiaV2Pq5lcqxdVUWJ/b7tW90rvfpWKI20IP9G9EXxvc4VbtwfQRGchizEdYEeCZkCRXGrjuRIz9mP9wsOZ6QJvInk0ScOkxECW3gXKYu/DjM0wJzn/mdT9qeLPKFeqjbnI9zss+gxmLi9wSkfH5KZKTy3HtyZ1euWFVlxlmROs2nAs39l/2iU/6C3DlbpXrHHNiVsZCMUGl3iQgLeUDlL8j4YBBaFLXzPW6asyfH6YSF3KFDte35CzLqxdLfVWp3idAcV6pStZ1LC8u9LvAtv0Hu7lKZMzmzVzgEWtErUWm+QwXpX+AdOdTbn98gA9eyepXqKKJIylRqdlRpS++l5UMdmHy9/vwHGZjn3hlBWtoyldlXO2lcJE+iwgCZUKNpW4frUFQ1OtJkK/kquYq1XYUBMlKDBIhTVw9nkQS78SxC3hO/t65YO7uYr6twQO5qVqndPwSpXN4TI5gnjkHFDFcur61wQCZxYMs/VCrXy26RBLsxL7MsEt3QXUeP6bCAQBaVjgaV+oOysCuXqtTtr9LVP5ukA6KwbcmFBTLJwpv/noVnXElvWtjlTiIX2ROpwEAWla75KjXbZBBFUt4jzZdNdxAXGcQ8TQsPZM+CMSX99AGE9zfH+9k6daKw1Qm7/woT5O6lKrUHp2fBYBWPVzEUoTRy11SoEhkYF3+mggUiiE8FduOWKQ7iIh7EhSmR6RDvdWcnBJDK5So1+ziIixhinkiFCzKrcq1vqsTGpLAr8/aoUpVFnziQHch5PCHonKfScFQKu3KJyoyTVbr6v07L6ZV53K8ZDLoClsh0RLdKyxtJ0tKyFD1apfUd51ORARiFNtALHGTpeSVC7YQEduWyQUnSXWgAFEt7Cx9kpM0iLBi+153FynqlcXE9QosFvLCvozhARsVosCwYvA21/igVXu0wBB6r7hoL2mrhk7Ttf6ywK08drrLkRwfxEBrERSKRpUf6ziRZ+DCVhjMcxEMIYp5IxQOypyt/oFK9g8rS3xzIDmTfI7uQbggvbCd/m4v+GHIDubgksjfonK/xUJz8FSHIBfxEKaSnX5611YGcZx0yFKVpGNfsQHYgF4U+7UB2IDuQw3gkuDqcTh8GA04iO4nsJHIYI8nV4SRyGAw4iewkspPIYYwkV4eTyGEw4CSyk8hOIocxklwdTiKHwYCTyE4iO4kcxkhydTiJHAYDTiI7iVw0Evn/AWlHmKWFQilwAAAAAElFTkSuQmCC;" vertex="1" parent="1">
          <mxGeometry x="400" y="680" width="74.79" height="50" as="geometry" />
        </mxCell>
        <mxCell id="aUsY_H1b6O0TGKv6YpwI-17" value="" style="endArrow=classic;html=1;rounded=0;entryX=0;entryY=0.5;entryDx=0;entryDy=0;exitX=1.186;exitY=0.312;exitDx=0;exitDy=0;exitPerimeter=0;" edge="1" parent="1" source="aUsY_H1b6O0TGKv6YpwI-3" target="aUsY_H1b6O0TGKv6YpwI-6">
          <mxGeometry width="50" height="50" relative="1" as="geometry">
            <mxPoint x="420" y="232" as="sourcePoint" />
            <mxPoint x="300" y="160" as="targetPoint" />
          </mxGeometry>
        </mxCell>
        <mxCell id="aUsY_H1b6O0TGKv6YpwI-18" value="" style="endArrow=classic;html=1;rounded=0;exitX=1.157;exitY=0.379;exitDx=0;exitDy=0;exitPerimeter=0;" edge="1" parent="1" source="aUsY_H1b6O0TGKv6YpwI-3" target="aUsY_H1b6O0TGKv6YpwI-7">
          <mxGeometry width="50" height="50" relative="1" as="geometry">
            <mxPoint x="289" y="281" as="sourcePoint" />
            <mxPoint x="440" y="160" as="targetPoint" />
          </mxGeometry>
        </mxCell>
        <mxCell id="aUsY_H1b6O0TGKv6YpwI-19" value="" style="endArrow=classic;html=1;rounded=0;exitX=1;exitY=0.5;exitDx=0;exitDy=0;" edge="1" parent="1" source="aUsY_H1b6O0TGKv6YpwI-7">
          <mxGeometry width="50" height="50" relative="1" as="geometry">
            <mxPoint x="508" y="361.5" as="sourcePoint" />
            <mxPoint x="660" y="358.5" as="targetPoint" />
          </mxGeometry>
        </mxCell>
        <mxCell id="aUsY_H1b6O0TGKv6YpwI-20" value="" style="endArrow=classic;html=1;rounded=0;exitX=0.75;exitY=1;exitDx=0;exitDy=0;" edge="1" parent="1" source="aUsY_H1b6O0TGKv6YpwI-7">
          <mxGeometry width="50" height="50" relative="1" as="geometry">
            <mxPoint x="508" y="511.5" as="sourcePoint" />
            <mxPoint x="660" y="508.5" as="targetPoint" />
          </mxGeometry>
        </mxCell>
        <mxCell id="aUsY_H1b6O0TGKv6YpwI-21" value="" style="endArrow=classic;html=1;rounded=0;exitX=0.558;exitY=1.017;exitDx=0;exitDy=0;exitPerimeter=0;" edge="1" parent="1" source="aUsY_H1b6O0TGKv6YpwI-7">
          <mxGeometry width="50" height="50" relative="1" as="geometry">
            <mxPoint x="308" y="324" as="sourcePoint" />
            <mxPoint x="497" y="400" as="targetPoint" />
          </mxGeometry>
        </mxCell>
        <mxCell id="aUsY_H1b6O0TGKv6YpwI-22" value="" style="shape=image;verticalLabelPosition=bottom;labelBackgroundColor=default;verticalAlign=top;aspect=fixed;imageAspect=0;image=data:image/png,iVBORw0KGgoAAAANSUhEUgAAAVgAAACmCAYAAACfg5edAAAgAElEQVR4Ae3dedx931j/cf2a55LKFNIgTSoayExCJVMyhRJffOOboVQo5RtKRBEiMpSIREgjSqQylalQKWmeB3/ev8dz93jdj+W4zzn35z6f8znn7rv/WI+19tprXde1ruta733ttdfe+2Lvf//7D+Y062D2gdkHZh84+z5wsVmpZ1+ps05nnc4+MPsAH5gBdo7g5zuY2QdmH9iSD8wAuyXFzhHMHMHMPjD7wAywM8DO0cvsA7MPbMkHZoDdkmLn6GWOXmYfmH1gBtgZYOfoZfaB2Qe25AMzwG5JsXP0Mkcvsw/MPjAD7Aywc/Qy+8DsA1vygRlgt6TYOXqZo5fZB2YfmAF2Btg5epl9YPaBLfnADLBbUuwcvczRy+wDsw/MADsD7By9zD4w+8CWfGAG2C0pdo5e5uhl9oHZB2aAnQF2jl5mH5h9YEs+MAPslhQ7Ry9z9DL7wOwDM8DOADtHL7MPzD6wJR+42P/8z/8c7CL9y7/8y8F//ud/HhqWDI7/+7//+7BuLP/N3/zNVK/fP//zP0/lv/u7vzt43/ved6BO/vrXv/7g1a9+9ZT/9V//9cE//MM/HPL4t3/7t4N///d/P6TtGE9Rxj/+4z8e1v/TP/3T1G6dTtZFJ+v6b3p+1/w3lX/uv5t5N+v93Op9ZwALPP/rv/7rEFAZ/j/+4z8OATHwHUFWnXavec1rDh73uMcd3OUudzm49rWvfXCNa1zj4HM+53MO/t//+38HH/ZhH3ZwpStd6eCmN73pwfWvf/0pf9rTnjYBMFACxIETAA50gfV73/ve6dx73vOetRedaCzLt+3Iy/hWv23+M/1zO1FnfZ9Ofe8MYAEBwASqyhxojDLVi1Ql0ag2ItS73/3uB5e97GUPPvRDP3QC1A/5kA85+PAP//CDj/7oj57yj/qojzr4xE/8xAP1l7jEJQ4+9VM/dWqrzYMe9KCD173udYcAi6boFbgqdyxf59C1X5av67/p+WV8q9+U/tz/dE7o2W77ZbedASxHED0GsKJZt/odOy96LcJ86EMfOgHop33ap03gCUA/9mM/dkoXu9jFDiTRa+Ux//iP//iDT/qkT5rOA9pHPvKRHxDJAvpAFsiTY52jBmTL8nX9Nz2/jG/1m9Kf++/XRJ3tcTrtsTOABWL/+q//Oi0TAAUgp04eSMhf8pKXHNzgBjeYwPFTPuVTpugUeAJNUawy0PyIj/iI6Vgke/GLX/ywnXpgLH3CJ3zC1P4jP/IjD2584xsfvPGNb5yAFrhz4CJloL7OoUcZjyqv67/p+aN4jnWb0p/7n84JPdttv+y2M4B1a150ChiAHHCVArwXvvCFU4QKEIFrQAlclVtzlXcO4Fb+uI/7uMMIF7iKeJ23hCBZTnjRi140gamHW5wT6JNnnaOOYHZUeV3/Tc8fxXOs25T+3H+/Jupsj9Npj50BrFvxAAGgVlbvIZMHWZ/7uZ97CIhA0xKA6FRZ1Oq2H4gCTQlgBqIf8zEfc9guQHZe1BsAi24vf/nLHzz5yU+eAPWtb33rJMff/u3fzgC7o90lM5CcTiCZ7Xa03XYGsAGqvHVXZQ+13vSmN01ACTxFngDR2mu3+4A2kASYwFQqki2KBajKHnTJF9dogTQ62v3u7/7utOZLluM4yyj/UeXj0NikzVE8x7pNaM99j54ss15mvZypD+wcYFsmKIp95zvfefCVX/mVEyAGotZVlUewBKZu8wNJABugaq9tuXaOJcsN8ugV8d7kJjeZlizaE3umipzbz5Nv9oHZBxZ9YGcAW9TaQy2CechlK9Unf/InfwAgAkNACFQD1kWQDGjVa9N5EbDItUhYFBwYq5eALp73vve9p+jV/thFRc3H8+SZfWD2gTP1gZ0BbGuwALYo1h7VS17ykhNAAkwgWYQJFIEjQAwgnRedfvEXf/H00sEzn/nMg+c85zkH3/Ed33HwFV/xFVPb6Fi7bdeBsnrHaAJYIC4Cfve73z09aDtTRc7t58k3+8DsA4s+sDOA7Q0tQOsJvoj2wgsvnIAOgEoBX2uvjq2nAkPpale72sHP/uzPHngo5db+r/7qr6ayCNS+VntnveGFlqj2Upe61ASoRbgBNFp2Kah/4AMfeKxdBIuKnI/nyTX7wOwDiz6wM4BtzVX0Kor9sz/7swkw3cpbOwWmraGKWotmgeBnfuZnHvzwD//w9FaWbVUA9u///u+nh1QGWHTsgZmo+Ad/8AenaFXEKuKVgCqadhjILRGotzPBQ7ZFRc3H8+SZfWD2gTP1gZ0BbPtNA9qf//mfn27pP/3TP/0wQgWs3eID3JYLHv7wh09bufQ1YNGwXBTrozDKXhoAutr86Z/+6cEFF1wwgbadCUAaXSCrXB0AVvfTP/3TM8DO27RmH5h9YGMf2BnAijK7GthedIc73GGKJN3OiyhL1kWBHnAFgHYYvO1tb5ui1rYl9UZYYGvJAegWySr/zu/8zhQho1UE264DUXP8RM33u9/9DmVLxjmfo5fZB2YfOFMf2BnAJmjR5xWucIXDt7UCPmA4AiIQfO5znzu9baVfb4OhpRygOi66VW8Jwjlf4ALSRcW9gCCKjafybW972xlg5+hl9oHZBzb2gZ0BrChTBNoSAYBtrRWoWhIAqAAR6Cl/3ud93vSUv5cBgGwAPZYDb/QDYiBrj+3Vr371CbTRwwNPKX7qPQzzwKwIubytZdGf8zmiOa0+kE8vy0/ruPZN7p0BLLACrh5y2f96mctcZgLRwBTIAjvHQNbSwe1vf/tpx8FxldjHY9rXainB7X9ruYHrGNXiaU3WQzd8RgcMYAP148oxt5uBeN98YPTro8r7Ju9plWdnAEthokog6zbe/lfg1s4BwNqtPLAFgve5z32m7Vfd/q9TOoDVVuJEgPGJT3ziB9HFq4QX4H3zm9982E9fNNqve1z+6+Sbz8/AuysfOApUx7pdyfV/je/OALYoMODrBYPxIVfrooDXXlgAq199VxkDXedzGqCo3+I6LOBGX2pnAV4+7u0CEJ3WcR0rr+I9n5uBc999oHmxLN93+U+LfDsD2G63iy69XQXkRI9FroAO4Lpll3/DN3zDBHhu9dcpOMfxcEskC1zxuu997zvtIgi88cNX5IqvSNbLDH/8x398GMHipW8P0WaAnQF0nf/t+/nmx7J83+U/LfLtDGABHuN62AUw++IVsGuZQHQJZLt9v+IVr3jwlre8ZS24Uj5AlLutj9fb3/72g+te97oTkKKLVzmgxQ+vq171qgd/8Rd/MckXHbKSEy3ptBh4lnO+GBzlA8uAtfqj+sx1Z+5LOwPYDAkArcH6dgDAG0FPuYddokuvs/74j//44W37KoOLMos0A0dvdPUhGWCKdpFsuwjU3/rWtz788LaoFZ9oAFzlVbznc2fuiLPOzq3Omn/L8tkeZ8ceOwXYIkFA+K3f+q2HT/cDVaAXAFomAH62c73qVa86FsD1UEqU/NrXvnbqWzQMvJWLlsvxOP/88w9B1eu2nI0jAluyzgB7dpxvnsS70+MyYK1+ts3Zsc3OAHaMDBn1xS9+8QR4/gQL/MZb9hFofSvA77qBZuui1lg5hOMA0BpvAOtV2Tvd6U4fsNcVDwmgtgyhDNz9FDEHa4nA8bg8UCSrzjawHLNcVK6cDAE1+cjece3j4xjN1qgdK8fPsQ/ZJN+cn52JMOtxv/TYvFiWnxZ77QxgrWcWEVKWD7Zc73rXO3zABeiKZOUiTEALBL3q6oHXL//yL09AA7Ta64oW2urkv/d7vzd9vrDvweorch0BNj6iZF/fEu0ex4CADvBJyr59wCEAZPwDSrnvI3h4Zi34DW94w8Gf/MmfTGWfSDT+2qKBv5cdjEEZzXHb2XHkm9vsF2jM9ji+PZYBa/WnRZc7A1iRHUChKCACQB796EdPwOcVViBoeSDwA6xAVg4cAaV/dt3rXvc6+O3f/u0pIhyjQ0Dm493e/rJDQV99RKtoSo6jb30X7cc//vGH0eUqIzJ0/ICriwWgNaaA13k0/I7G179cFK50pStNMl3lKlc5+PzP//zp+MpXvvL0jYXzzjtv+p6tby3QSXQAt6gXPZFxEfsq+eZzx5/Ms672T1cB6bL8tNhsZwCbgigQeMh9kAVothfWMoGo1TGwBbqBozKw9K8uT/19ZNt3CiTfdP3yL//yg8/4jM+Y+gfM6AWsQFrEKkcnWn/+538+gVjyLcszPLAL8IDf+973vgkIXUBe8YpXHDzhCU+YZLH0Eb+WPzy4czFRj78o+4u+6IsmIH7KU54yXTjwCbyVLS24GC2Ta67fP7CYbXLmNml+LctPi053BrApDhC1vug2+Ud+5EcmMAU8gEgCsIC223og6XVXOaDV1u4Af4j1rVhgVj9RqTZyQAaoAzj16ABgdXi7XSfPOgOSH9BJIkvAp5+lipe//OUH3/7t337wBV/wBZM8aANPkXQ8yUN+efIYn7LxfumXfum0XPEDP/ADB3/4h3840cUHvz7JuE7G+fyZT+xZZ/uhs/BhWX5a7LQXAEuJbq3dFgMPPyAEqAAoEC0fATJAGpcS6tMygzYjqFUuSg6A73rXu07RJ5AnzzoDtryhXeAKYJ/xjGccfOEXfuG0/IBXUatoVSIfniJW5yVlIC9PHmU6cLG41rWudfDKV77ycI125L1Ozvn8fgDGbIczs8MyYK3+tOhzZwArEqMsOWVZJuhpvB0Fn/3Zn30YtQKmEXyAVOAKhICUY0lboCYSdAywqtdOe3XVOyda9GosWYDkcSLEbtu1lzyQeshDHjJF0ckTmOIhiWABv3pyuDAYl/Yl9X371hjsmtDGWrJf4NAZ3qfFwWY5zwxYZn39r74C0mX5adHTTgEWoAGLlglEZtYwRYQve9nLDm5605tOwAR8gFFRYCDpODATkQLNQK16kSFwC5SBr34BrPXbl770pRPAMxrePblfZUSy9xDrXe961/RbGksUeOFJXrzI0Qe98QWazqkv6eOcfslGXsDq2Hm0vO32rGc96/Dh4Cr55nMzsJ1mH1gGrNWflrHtDGBTUBFgx8BW2YMjf4n9si/7sglgRHVAFPAAJuADaCUABDDVK1cHnAJm9XYNWKvVFx20n/SkJ00gDzABa7ffGVKebIs5WSU/XvSrG/RHWZKD7OpLZFImXzKTP7mcU+4cWQGz9v6g+wu/8AuH29LIS0Z6pLPkXpR1Pp4Bd/aBc+8DOwfYZUb3LQDblOwsuM1tbjPdWgMhICsBH2lcCqisHhgFxoGvOgkQ3vGOd5z20VpzFbUGUiLqEahGwGoJYbwovPCFL5xu393KB4IBqeUA/MhjLZUcrQ2rB7zJvAi4+kQnGkXfljT+4A/+YJKZrC0ZkIu85Fym17n+3E+yWecXXZ3vLcBakxWdAVl/hvUjwhvd6EYTYBXtAahuxwESQAVGgEgbAKVONAjI5JYEnv70p09rrr1tBZiAFH7tCAhY5SYI0BoBVjvtv+qrvmoCUHwtBQTuQBxPx+QUzZJFfZF4wN84nA9o1XU+ENaviNynG10cyFQUm3zJPE/si+7Enm2/H7bfW4DlIAGeW3d/GPj93//9gx/90R+dbpMDLiAEeAJUQAeEJHUAWFs/S/ShmN/6rd+a9rkCyKJkgORWv439gak8cM1hq9P/p37qpybQDtDJEZiTA6jKJbKIXoHlta997Wkb17d927cdfO3Xfu20vOA8mccIl9xAt6UGx3gAYb+1+cVf/MUpYk02MrlQzAC7H5Mru8z5RdceewuwgQTAALAAUFTrgZJXWW2H8nWsy13uchNojdFfQATYfP/VL8FFwQC0239AiS6a3WLj0euu6hwDLRGuSUKmEjk81AJ4AFbC11IBWVoeALiOv+RLvmR6GcJDKrf3vo/wxje+cXpl1ptoP/RDPzRtx/JGGRDu4gBM0TWWynJgbGsZ+UcZk3We1BfdST3bfn9sv7cACyje+973TiAHDK2TFtG6tQeOf/RHfzS9JdUtNtAp2nMr7qUDUa9babsTgCNagFbecbTxVAas6I8gW/sAVvQI6IpSgSKegBCgyr1lBhxFz89//vOnZYlxzbSIk2zeIHMRuOCCC6b+aBgXgMYH4KqTisqNTx9yB7LkU54n2f5MstkWF11b7C3AArciS+AWaAC/HkqJ3txuAzMAJBXtqfPhFmAakAEiNFt7BeAAT709uOjiVeSqn+T8YrrHPe4xRZrADugBQVGs3DE5nPusz/qsAw/CyOoCYbIBfPzwkpLJOReN7/3e7536Go+LBpqtw6JtbNX9xE/8xESzsaHh4jBP6ovupJ5tvz+231uABTxAI2DNaQKl6q95zWsegg0QAkABrff6gY0kskOjW2r9i1KVpaP46YOn80W2+vkLbrxEsSJNfEWd5Cjy9Pot4EZbfwnQSurRJRugj4flA6/aogGoA225YzxKd7jDHaa+yYkW8E5fc74/k222xUXPFksB1kRdlbbtLHjH46iyqA9Y+cRhgArwAiMgZzuTNVXg1liU0QWa5ZU7lgM79YGiOn2lV7/61RPQ4SfhRQZl0SUQVGefrYdzyV9/tEYe0U4OvC1B2LOLJqCVGxv61ndFx8rWoH0/ofElczxOmtMvmi3LkL07Bzw6r6ydc72JlyxzvnoOdeEf9USvXYDVL5bd/fAP9e7O+Kc+6rKJc8psxj7ZTZuRV/S1U86Wi21O4/E6v9/2mOK/twAr0szgHLFbbM7g2DnJEkFRHlALiOReL+2hFYXqx8mkFLAsR9s5zppjqnP87Gc/e+KDx7IEcP2loYdq+KMnj/Yy3uqB5vWvf/2JPlrAVTJGwFqEbAnBskL00T4O/VW8nWvS0Zkxq6MHE9ekdl6d83g718R2PKfVOqA7+kp33cHIsyGdKvNhy1nK9A9YLXP5nrDvHfsusq/IefuxecM+2svxUcYzfpU7r022ZN/Tbj/jW5W2Pb547y3AMviiE+QknJAzcA5RauADbACQY2XfM+CI0cnROGkKWJYzQPxq4xhf272WAWv1QFE7zqpfji2P3qrc5PIN2S4exoS2Y3mgK/f1rqPkXUX/uOeMl/ySbzR4a03yNtnP/dzPTa/uPu95zzv8VKSLj3bkmdNyHYz+TceiTDrm0+lNPTDV1p3QL/3SLx08/OEPn/aDf+M3fuN09+Zfdt7u821hF3TfxKi/nJ3R9pDVm5Gl5zznOZPN2Eud3S0eCGs/yjDSOk3ldf697bHEf28BlnMBUs6VMhge8EiAyyBs9LdVCuiMa5YAluPlLNr3wEtdCliWa0MG5/GvHToXXnjhsQAW8JG1MQD2kVY0j8rxN6EAaGAaeAe2cslkQQOvdHUUzTOpQ8uEN140yW4C2m5mbduE9qFwOvb1MMeSZRHtkmPOjwbZ/Dc/k9OVfEx2l/gQ/c1vfvMpmLj0pS89vdDC1/m9gELursae6pZp8jk0//Iv/3ICZR97l9jMpzTZy12epA6ffPS0222dr297fPHfa4BtkhN2EXAdi06vfvWrTw98AI2HTcCI04n0OI126HDabr84XwpYlmvjyu88Y5Srt/82sFuWk8NaLd45Lf5oAa5lfKvX51d/9VencbQcUPS6CLAiEHTxynGic9I8GZuoAMGfGejW2IybHIE/2Vq6mAH2aFDNNvkAn8w/1dE1H5Gco8c73/nO04fjrbnTvfV3/kD/6ugdwLKDJSV20jf7KftVkbs59slm+a3+6Eq+Paz9KOdpLa/z+22PK/57C7BNbLnI05U5wOWAyp62e8jVJ/08WecwEge6znWuc/Ce97znEOCsZXFAfVPAspyDJgNj1M6EeMQjHrEWYMng1hm/6OiLFieO3rJcm6c97WkTnwCtvEkix8ftH7pkznGW0T1ufXQCbf1MeDK4kAWwZJBMUHcN6u3Nrf+cLwfbfIxu2Tu/pnPrqze72c0OH2im2y62bABY6b66G9zgBhNgB5L8ThIoiFY9NDVH0Mp3RnsCWP5KjtNut3V+vu3xxX9vATaw4CCASc74bplMdOubfhNz2cte9jBy7YpeJHvJS15y+gPtT/7kT04O69XYnDgFLMsZwDlyJAvHJcsTn/jEtQALaL7v+75v4qc/WsYgPw7Ae/nAm1omgkkwpnFSmSw+iLPoMMvGddz6ZNU+XeBjXGSRp2eREaAvQnrzm9/8QfIsyndRP+YT/Cn9KgeM/NTHiESrbN2HgpS9vFLEKR/948Y3vvH0QCx/Baxo8nn7sfkKMK5fdjNv2NOWQu27qJ5mG63z822PLf57C7AEBGaMLYmKrH3e8pa3PFxP8lqpzf05TZGrYw4jd95/vm54wxsefN3Xfd30S26vqKaAZTmeHNWtOmBnEMeSLVTor0oc37qZp7r15bz6j+C1jP9v/MZvHFzhCleYJpAJ0JhMCsBWRGMSvuUtb/kgQFtG97j14/JIzug7DngbmyQaSs9NdLlf3NRnzo+OYPkCv5LTEZ+Q8xcPnLwVSLf03QssdKvMB7rIqevixr/dsaHDzpbQ+BtbAlj0tNVXv3wKD+d854Mc+ftptt06P9/22OK/FGBrsK3cADmAnFN11VQGalLA6lYZQHozi1OY2K7CTW7lHC4nkteGUwW+foToVsrfYwFGQEqOZOBgASHnBPT0oA25/LE2YOeopZEPp/WN2J7wm0iBFnpoiSyi61yObTnknve85zQm40ILbbkxmWA94LAGrS+50JTOhs3Gi0B6oS/8Gy95lMdxO/+a17xmrQzJelSeTo46d9y60a7r+uCnPRvFeyyP/fML+aoUnbHvWGb7+qvnE3iyvb8P02sRZ3rOt9nfhdWxsgdX+tz//vefXglnO7SyoXlmiUD7aGQ3x3xM8j2M+o6yHlU2Pqkx4Demzo/5UXSW1SX74nl24uvojufiQ57GLtfGOf3ML/li35FO5eidNI/OzgCWQxmw9dUArTIlWC+1FQiwekrNAbplKnLKYU6S+202cLJNpd0FjMPxHTcByJKhKE29tV/rviZAYJPDBuQuBBIeb3jDGybDchrOjqbkGE0XFTzxsd+RTCIONAEpOsomWmM1sfDyB1000Cunz5M6xlH90EPbR2nwb8wj2LKPerJuArBH8T+qjjyr0jjxs+FIh//Rf+3K06Hj2hu/i5jE/iZ47Zfl9V0m43hB1IY8aL/1rW+dfCvb03cAS8eO2Z2ezY3v/u7vnj589Ou//uvTX4wbkzEnA9C28yO7ZUN59NjyTB5yRbvx891S+u64NvWRL9NL9fqiQy/0nr2qR7O26KlXF4+xrJ1jOjf/6KN228qTbWcAy5kMDrgQBqCqU7YccLe73e0ACHIm31kFNG6VOQlwyTlOmhcd2Glw/vnnT7fZGRHYBX7kCWAYx+2baAHY5/ij45JXIhenNSk83TUm9BkZiC7Sd+zlAltlyGQClZpQZFYWPeMtLwonJ33iMU6us+FAjX/bAHsmshrvumRS0asU7fTkjSjjqt4ErUx/fDE9ytHQXnlsW59V+VFyki1Z5GiiDyj5Tn4u70LG7zv2W/qXvOQl0yc3zSHzBxDFK9nJtQ2AjU9jwMeYSviXjE3qXGMfaRxVTif0Qv+O8ZE7ro+yeeVcdXLtyFBd9Gqr/bZSPHcGsAErQKBAOUfwAMv79aJUIAJUA0OOFuicFFjrF100rXd599+TW1taMl4G5bg+kegWql/YjOuiAawcAI7RXFGHZQm7Cnyq0NiBNfqSzeGWEnxa0a1cE8lYySsH6NFysdHGW2zooMdp0aJHxj2bjsM+aG4TYEd5jzsBc+KjcrpoQqNdG3UmHV+Lj7YmnfrON6H101+9doFG9Jbl2o9jOqqd83Srbe3dteU/fCmfkvMDuX+zPeUpT5kAldz6BiQFLo7jv22APWpsdLVog+SRH9VnrKN/upGUjQc9fY23OeqYz9OD/o7z19qO9WiMfJaV9d0kRXdnAEtBgIFiAtkXvehFU7TnqWnRH5BVBmhApfqA8qQ5Z+XIcjw8UBKZ+nYs5TAEZwWs3//9339w3eted/rAC6AjQ7I0CTh+kwHdcZ3YBQIoAudb3OIWB9/yLd8yrZe5vT/vvPMOvJXjozU+IKMv+tEyPrSaXGSVtHvUox41ORod5kw55CbOsdg3h90WwMYvoDlOngMvy5uMnXdsHHyNXZtoeDd58XWsTTLJ0ZAnV32jfVRe22hGZ2yrju2STc6m+ZQ8/+YP+Rw/stMA7QAVXcdFsbsCWGMa0zjeMynDB/ooGZsxsaHkGD28aht9uKJtdq2ertU51n9VGsdwknI8dwawBHBbY5CU6J1q65VFajkZB1MOEDmZJYMc76Q5hw2sARYAxOdqV7vawStf+crpNt4GfqBrawz+AStwS67K6EnqtUNTZExWMgeQxqedPYneytHGMTqSsvaSMpkCXDTTzzWucY3p9UnOxgEyKF0GuCdxjKP64IH+2QbYkVfO3oQazx1VbrzLcn2ck6NtYpmITTwgqjyeV0d3gV6yLMpWv6Pkqm6xb/VycjmvjLY8kLD1kN350egT6viBi7XdAvoHGPo7Bq7RHWXcVgSL72JKV8vsctx6YxnHpx/axmdsjvFWVhddbfStLd+Nzijbotxn+zh5dgqwnMp6p6uxW2hgU7THmSQAw9ECGmXR7EmBtX45Lx6AK2AEYG69v+mbvml6MEAebQEkGQI9uRSdjtEJIMnZAznrpSJzNNS3jqptddFHk0xoBuxysmiv7HsAOd2YVz6bDrMNgB3ly/FNlFIOukmOR8CFh2P0RX3q4zv6ofVxE9KYOy9Xp58J7Tg5j5NHZxxz/NUZY4D4zd/8zR/g63wh38rXbFXUzwVBX2U8yKwMYKLneBsA25gaP36ldO5c7RbzdXY1FnTk6Izt1eMlUoUfcrYJlLV3Xh/lzqkjR+dGmotletskRW+nAGugHuzc6U53moCj6A4AiSg5FMACKPIACNA43iShFRACWbREm2gnR2CmrQZFpAMAACAASURBVBTga5vTq5M6dk6/ZNdPHbo9rEMfwKp33lidazKpB8xo6qce4OLjxYoHPehB03acPuzRZM2h5Js4x2JfTo7m2YxgRx5NPpOhBDxWpRx4VU4vgaJ2jvtzxJOf/ORJjz6Qwv+k293udge3v/3tp4+m+KmkrXx2RLjT4qsS+ciO1qrUOOSNb3HM+gMF4wQU9Ox7AnyC3eXS6FvK7qqMK/0opwd16JA1ftsA2PSRDvAsuRglm3IXrM7rk7zL8nRWDkTtr7Zl0wfpPQT3rIa92M6ym2Mfwn/wgx88fVns7W9/+6HNyJDt0Ey+ZXm6O2neuLYGsBjkXPJRqQbYeT8O5ExAtKjNscSZgNHoaMAHGDmnj3MAyJ5TH7CwJ9Ctt/7aagfM5GPZuQAzWt2uaw8knQ8sgT5eY71+vsf6Pd/zPZPByaOuSYGHOinAVUYjgK1N9PWvTlk/Y9EHEHMewMrwJqV8nEw50Ukd46h+JgZ7nQnAAg59cmxliR9k/+jKvW33mMc8ZtrsDvx8Ncrxj/3Yj011jr1p9JCHPGR6GGnMTT65cVeHjzq81HkQaC2dr5mAbrHtqbZMQ8fpORuxnwvcFa94xQNvR3n46I7BdjvjoiP0le3i8FahL59ZPyVz6XGPe9xUtvOkOWCsyvq/7W1vm3aN6GeTv36eBbA/W8vJks+Q07GP7Nht8tjHPnbK9XPs62Z8gs5HnzgJwGY/AJRPZEO583jRCxsZg79rNJZHPvKRk02T0bHPKTZ+dMmYT3SRYDP60U6bd7zjHdNXv2xH+/qv//rpwzQXv/jFD4MaOjI3siMMYVd3ob7j4GFgO3jQo3c8f+3Xfm36pkjyyvkXm7HlE57whMmuXtzQp350kdyjPhbL6WyrAJtglCURAmNl52zY97m1HAegAZOAL0fj7J1Tx+Eo+VrXutb0KiyA8/qqd/I9hfWLb3v6/LXVAwEKz1EDbnQyCgOhyanVBWaL59HQxkT0wgL6DPjOd75z2ubl9cboo6cduRuPYwkdjpBzKEudk+Md6JLHRQN9n60TUWXAc5FnuzMBWJPcpAlQOXcgSGaTnqP60pMJ6sLoYkWv3rzzQ0n/HAM46p13zhql3R5oSWihbbKPExN/vE1QkSigBKo9QGUDeh7to05S51z2ceG1u0OE+4IXvGCiy5fphe+RkbzkJLNUWb2I07awgK95Ya2/9vY9o5PfBBpk4Af8g0+Qj4/Vr5xuLB20BXBTgCWrMdItHQPUQIb/iShFk/43RzfurIzBeCX28oEZ8qm/0Y1uND3biAb62YseJTYkt8Q/PAMxJts1ew5CH8bPJvTSnGmuyrVRr40vhdG/7+Xav462cfE5c4p8bEXmfE89mfmhDxylS/0kflV5Wd683BrAYoA5hZpoDcwx5VKoqxolcaoUZAN/ZY5OWUBN4nSUBpRFNP51ZbJxqq5O6Cqre/3rXz/tFfS03kZrvNCWc9T4oOkYfUmZTMkF4NXn7D4iA8RtucIHT+MS4fj+gG00+kYLH33V5RDlxqidHF/tki0ZfPNWhNOHtTl3BjwXufGx5ZkArMljIuYD2YcfOGfCiiz5AAc3/vQkByhdrOjKnQy9A6XF8fMnPoausgmAj21xLkoivmxP1/SantGWHC/WsQM5+J4+/MQtvAiH3Y1NRExe8uWv6Kgr8VeREPn0YTPjf8UrXjHx5F/6a5/PjDTQTT/RTFbySWQlm2/x8sVAAa+TRLBo0GNgQr/5ASC04we40iv9kIuOyCGpk9MtoGUL/YwbnXShDi91lfmZZTB+j0a6V45PNqkOn8p0o0+2ll/1qlc9eMADHnD4GreL7nheGQ16luMjMONvydpcIy87rkq13RrAJgThKA9D5XLRq83SbpVNpJTDiRtsA3aOwiwDiCJEqj6Ggq4JxWgcCs/4yuPryvX0pz99mmw+AIMWnnKKDNQdNxEZiRxSk52RvJRggzeeQKOPS+PHQUw8+2VdeV0dyY6GcTUBG1eTyLE26YBMHMhV1bqSqFwElEE5fQY8Fzk94n0mAAsEm5yBKzpFtcpsYvIFIOmKLugk+zg2mU1SoKxvQD3anO75mF+qW3Lwggc76x8tOqfbJig++MolupeUyaUvGk08dhStueB5OOv1VDT5DT+pP37Zm+z91ZgeyUg/vjeBdv7VuNEgU/7hWJlM2kiO0xdeyn37gm7OBsDy8easedbFi9zuCMhNJrKQiW4qy50XybIFH2A7Ob/gB3zXMZ3IXZBf+tKXHtz61rc+8J0R/SXjy47pC7+Rf+3oQXvnXbjYmSxsIQq+973vPQVllovSZ7ZKj9laexEseRt/+NJcXJY3L7cGsBhgHvClxAQCQpzSIChF4kgGSTFyx5TQeVcga2kGGx2TjXE4gtSkdp6DyNWZdPqKMCk/A+DBOPFuUsSbQV0EfBvgxS9+8eEbXxyEssmSs5g0QNbLCtZ9rOO4PRHRGhM6nNB4GB0PKYOqc9W0lszJrAeJitFsvMo5fUbcdk7H+J8JwGYjus8m1o6VnQOW3lhjX4kN6KVIkH2apF/zNV8zvUHX0ggadCAyy8/QdBFiA+t1Lm70Tb/5T6DKt/DDo3NsoH70N+fUo9OFV502bGRZ6ju/8zun8/pmW+ezKf6LAEtm8vverz75QfLWF6/8RJ6MzY3q8mc+k19uCrDsDRDlZKVXuXVjt/tkxd9Y82FzRbn5ZHmuV9HZDD258aOX7dBlPx+Od1FMJ2gbm/GyXbigji7K04P2dIa/Mnm061iZ3bxU9NCHPnTq75w+5NZev+qAvAiWbLBEGvGsOXlUbmzS1gG2yYkZ4xMGSPQ6KMUZVE5msDm6OspT5+rcZ/AYBF15E7acMvCQSxTinMmpjy9PWSzPKSkdD7xStNxtq9x5a2Ou2gAVrVLjAfAiWTknMlY5nt5M8xDC02q3cPb6Wq5A05qPByluhb76q796evhiTQ/4uBiIyOJlHMbV2mUGPBd5NjwTgCUrmbOHcRTFedjR2nsPLIsAASz70zubWGd3YTNuNOmYHdg+/ZMPH/p263epS11qmixNPBMTvSZcE4kPmEzOsTU/lPKN6sjGT7XLV9CwF9kLKM7rR3bnlY1BQks7/sFWxiCRnx7QkdAnizHrjw7++idfdeq1Q18f7SUP77qjovt84yRLBACQXtmteWb939IcefBPF+XGQRfJ58EbUGIv8kgCnXxDzm7oA1e2zvbpIH0Yp3N4yeORTrSTyKav810E6FA79fzN8xvf2lWfzvUl+6hT6/WvetWrJvnISP7mY3Zclqf7rQEsQVKgPMEo21WBMbo1NzADXFSWwUpuIwEVYAZcGVzOCUy0DIiPsroiW8cmn77aU5pfzeBJDnzjryxZSshhGMSaE6XFBx2JTHjKAwFyJZM2ePuIB5D2kMQSh4djT3rSk6ansNaSvSrrDwi2reFjooy8ApPAJQOei9wY2PBMAJac9EIX+rKF5JuyLnCcnW3ZnqMri1xMkCawKNTDCVur0ECTHtBM18avzjlv4bklBXRNHLTZsUmHj2M8nJOalLWRV9dEVld7/oGGVLTFf/DUPprlANbFkozGIbEtf3DHYiK7k0MrGdCTknf0URcMc8eFRB86lAMNyxbRzzdOArBdDNkeHXcf7jo9+HExIJvxkU/uOL17SHSve91r8mU+YNxsZo7QQ/5ETnWeLfgVEX0aS7ofdaHOufjhlY60U6b7ZGOLyvokL1nV0zedZl/n8XdenWTe83m2Ir9xNJbsuCxP91sDWFdAzCmTgB1TuG0tlGKgKSwFGTRFOnYF4ky2UBiYieSKSPgGZuBNOvWOJVfGDKlciN/EdPuOVxMxA2QU5yi880996lMnnmgbQ46DHuAmH37GqRw41lY/5+VkJ0+60T56xqAvx9MObeeMwbHzyvJzldLjmQCsMZCPzOnDcsdNbnKTya7sz870bPKk7yJadxCeUtOnCxRwJoeEbvpRVie68haeiceGTXp8+FiTRhm/cWKZSO6o3J76QpWHaW5vW77iG8mInr7o842Oya+sndyxfhK5xu0+fIBOXDj8fsi+TtvvbEFrTRoNffFCM1rGB+T0sa3Ibhm3uyJLPkpffCv9089JANac0i/bmYOerBu3eUEu9nNMPnlARhZjQ4P983n0yJUNyca/PVehS3TQNtZRr3SJdm2chwtyzynYy59N2M6doAvWKM8oLx75XXM93cbTsXaW9gQEZDYGiczGtC5pJy0F2OMSiNBiTpnqEiyAsE5GoQyU4uRjohCDlVMcYxmklMHixwEYrMFXr23lRYOq9+DLVZMik2V0HvVkqs6tezqJF95omfyVuwBklGRYlHOUz7lFgK2fCaMcfeV9AFgOTzfsFGhxTDaz/pzd6Z7sohQP7JqEdA4s5PqhI1dn2w9wHXVkzI6rQzd78Cl7VdFo4kUvH8On801WeyW/67u+a1or9yDRmqiLiC9audPwIAQAmriAPx/VHy05furJjkfjy3/UW4MVuWXH/If87lRsVbNuL4nuk1UebbljoOBCoI8LjwuNuSbRAx6ALT05dm7xc4XRJR+Z2dI3N5JNP76HlrsI/Y1J0p6dGysa+ssBf3dhzflkMd7K+YXnDKJvtOgUfXTkeJBT0ka9ZEmNvc1Jd4L2tP7mb/7mtCfZL8wFTy5W3opzkUSX7qIdwKIfzfjI07+7WEt1+Rnd8OWOj5NvDWADAQJJhAMi/ibgCjwO6KiyQUrWcfSVGDsnlW+SyGL7VgC6KAOjZGhXTg9achiK3YT3aesbmI0RbOBKTxy1yWGiAFhjZDMXHFvprEGbJNkVMDWBOLx6+jaRTZB1OuqCxLf8YcJEapKiEz11Jhb7NmktD3lTy197gRReJr7EtvJ8lvwA14QVKRVFNWay5yd00iTGF0/nLBEEfnjlP+XxpS+goI++dBqN5HfOg9N1+kGzNkcBbDzoidxSAEsu4EoeS2N2+xiPsbJb7YF9MrKtfeH68ZdxnHQ5HqPLfnYS+dYzeuQhCz6VA0K5u1k29oDKxU/Q5eKS7siMj2PJXLWs6C8ot73tbSe7sI0UD3xK9It/Sb0I1jdS0JbIjUfHx8m3BrAZl7INmHAA0pUmxRnUstTADbBBURrDGFj0T5qj8Su/8iuTLKKm+I3Kb7Kk7HGSnJTvaex3FMCmL3mTzOTjoGzG1nTs1tjLAdYa6VbSpojEJC2SMIGe8YxnTBNnnZ6aSG4xfTeCH+EPAJWbSAFh9bbaiY6tVQJPvsWvJDzJzMfIj4ey3GS2Vi7CNGagkB87xkcd3o6Ns/I+Aiz9kI8t5OS1v9dY2ZtuPFz0YJaNsl12a8zNkQsuuGAKnugPDTl90m96lTvnjk8Zv+YeGegvefiUhA/+9jLbAeRZRjaDKfjEC21JfTk7v+lNb5peSCIrP8ADXQnfMTnX+b0GWEowUIZKEZxVOH/UwMZBKhskBbuFaoKjmeMz0CaJTCa/9ZomOLkWy2TJiXpFlfE24X3a+qb/MYKll+xYBALg1LmtEsmIDr0q6WEMW2pnsuhbH5GJPo4f9rCHHUZO63TEF/DAy0MVNNBGJ5s5HiepLToA3AOc/BId45P4J7+Q+BkZTF5tjEUkKECwZNAYAlJ88Uov1ZNrHwE2WcmZ7JZDjNXFxjcYfELTfACq2pSMSX9z1Ny41a1uNW3fojMXouY7/aE3gqBz5o8LI72gVWqekSn6LmL4eyBs6YGNskt0A1i8Ose+6lu+swPpNre5zeQj5GYnSXk8rp5Mew2wBipx3AZNuZ6cEr6BLMspm2JFjWhkKAqmvOifNC8aNunIkEw5HqVzKHIECm5LGK0xnZT3aetnvMY9Auyop4CVrkwO66306203ryraT5g+AaoyfTeRPBF3e2ldschjnY74A9Dz8KWJ3wSNtuMiS+tpHgK5SDbxAgLH+DX5F+udA675DD24tcVHBIbPOEnpxtjyq30E2GQzxyTHbqfpwpKOHQnGIeIr6OgBpLGVfGzFHQu7mZsAtrmaXo/KPfDEl+6ym5wc+MnNOwBrndxFcZGuY4l98BgTYA2M2ZP9LE/69jI+xlZiu+zHpqW9BtgGa3AUQBGucLYjGQAFrkoGb5+oCaFvEw9djo7mJgk9wOEqTQ4KNlHJppyRlTmT3Hvt+DemTfifpr5HASx9ZMceADm2FOAi6mGDJ/OcGQjVHhjTt7Ymr3PervHlo3ESrdNPfiB6woO9JDTRZkt8TFCg3vogUG7i5QOOF23qHBmawM5rh69zdsK4+wlo5PhKeDpunPsIsPREPiAmkdfdhltwSzqBkHbK9GlczQdlyyUiQ3cS9ARcs4tjZUl5PKZXH4lJV9mMHIGec+xp37jAhu6j764WPTaRoo1udmIjtu5ORFDmQaOtkLbyjRdlPI0re2XHvQbYJkjOSwkGaYnAQI6TfOF/3NfXRI/2JjnDi45tx+FAFMzAlKvM6CmdrMreYslpNuF92vqm9zGCzX70RW90qGwd1ZYjE4PjmiTpFPhqJ5nQnPx+97vf9LCDXk1UF0/ldToygUwYL2rggyZeow0DBOt3HngUhXbbiIax8VHlJqvcsfZyspio6UF7y0venDI2Y2mc6eM0AGzg2Rh8AtA6pwsHf2cf5wIjZeN0zvebbWGiq/RmPinTE701V+grEJQDSg8945uuXAjj6ZyLrws1O/CN7AFg2QQtfKKtDi84o47NJHLoy18ce9MPT4nfnEqANUADNmEqG7zoZgSuJupiTsGiHdup9Et5FJrTqztpQkPUZA9kV1CRGGUHqJyJEZxXH9gfBwBOKtc+9gtYRoDlmE0Guglg3PZZdslx1dOfHMCOk8p3PEUn6HdXIne8Tg/aiUbIkCzk6Bgf9nTsFtPEF9Hop3yUD6mXTMJxQgNkk5YfKpNNO+u5fBnfMZEn0CDHPkaw6YesypJvLHi5I+DJhuaDi5U2bGkN2pY266j5Br3Sjdz8oCt5QEdnjunR8oA9teihjV+ATo/qXCgFWOzEHgBS//gpo4kPWziWlLWRj7Lo7xgtu1yMQ8pfwqR0Id/rCNZgKddAyw3cR3O7pUyR8sVkgJTtYwucPXquXpSObrTHybisnmEziJyyLVfgy3koGgjkcB0zPnklV2hyZFS80EoeZWOUj0k7faobJ7f6HMJ5uqotGeujvn7K1Z+LnHzGPQIsvdARO3HU1mHVjZOFTulONKItfWvjhQN3BE0c9uH8+MjXjYtOrfGihwd5yOE4Gzp2zl0TnaEdUOqvruRcyXiBR8fkoXvHychG1pqtH+NpbPgGRMrVLwJs9kPPOKNNpnO1TWvUGx0lq3E0H8w/elXHhnLLPnbfGAPbpQ++WjKuxiTPf4yVXvXPRukt/nL+Y93eB2WyAfBWxpfu0112rF31+Nan9uOxT1eSwRiz1SgTubYKsOscfN15AzV4ucEqG6DN1Db4UyTjdUu3ODhKVmfhnYEYDy23FyYJetFNqZSvXlJu0pIVSMvVae/YLRE5TMRxgjoGApQv54AWx5to5MEjw41ycCB8nCdz8mhbfXSiEb3kry0Z0Savc2MZrXOVmiCLANukYMPAzeQcQSb90aEyx/XUHy3jp4t0xD+MqXEa97Kkjw+t8JNAIF/CQ3JORO2hDbp0SLd4LqNb/TrdouWWky8bF154dqEJKNQFsNE2PvQdj+M1pnMJsPTGVmxDfmU+n07lzQFz0Ti9SJBfGkfzyljYzxjU0486x41Vme6tv9LPqsSWP/MzPzPRYDM+mB+GBenzqHyd/bz0kv/SgzIfznfkew2wFJxiR2Uzgs3CjGetx0AybiCbYQ3cFdOGZP2iw6gZLz5yhqgNINVOHmA5x0hyi/OuknhwInIw6qhoDpXyvZbIcYpsjI2zqOM4ErpNXsf4y8mq3sVBToacRv8cRH/JcW2im3NFa50Dnc3z8R4Blm5y0PQnp0OpyUqv2jpHl2zr4aVbTGOjjyaMsbuNTx+rcn3sf0U//vg4JlfJLgYPz+hZovdssor+Ov3pS14P2cax5i/4Gyt59hFgyeauwpwjK7nZzTHABTaSY/XZ0cs55hT9mJPNLcfppDp6lkZdsluvqWejo3LyWT6i44Ki7naaI5vYzwtM+BqXcfKd/Ce77TXANikpYVS+so3eBmbrjMnBiAycQR03cIP1BFi/QFaZksfJoo7xJOcYw4RSrx05AJ5zJpwPV+DRtiFO1USleDLkXGTw2iQ6AIHB0cnB8HROXU6FH/6O1eMdwMrJYFuSZQcy5izaKjcWORr0GT209DlXKVuOAJtzpiu6DFzSW9EcAFKnbZPaJ+/sawSoxmXM9Eo36WJVrg8aaOKLfzIp4yf3Oiz90aM++cIq2s6t0y3bayNYaGz8ROJHZFEmwz4CLBnNN3KSX5ms0gi05kV21dabdn6TQ5fZLX3RcXqhG36TP9eWLfxNAK1Vybef9deezfR3jO462yXPKht6Q63xGruU7fKdvQZYim6gKbmJ6k8AhGfIEdgM0nEDLDKQUwgDBlaBXTTxyhjaSCbvyBsw6Wc/pEV2jtNVy61kClfXpPVgRqTbE1P8WgZAmxHjm+GBsDpOATRciT2Q6StaNnTbVO/VRB/GAN4uOl4BpBsgQ3/kRYvM8ZDHd5UDnc1z6XgE2PRGZ03A7OdThJwVwMrZM/3K62u3QVEJeY1bnu+kz2W5t4wABZ/JduV8Rtl7+2jyHXkTfRnN6rVdldiGHSwz4WOcyaEMPOTO7SPAssGY2M7eXm+6kXmMWrtgZGc7ALwdRVeBnzJflfjLqHPn6F+u3t7lVeDqHCBvt4B++QT/R0PdqrTKds75JKhxGhs9NMaA1rm9BtgUyqFTSqG+tStvVRgEowWocslgJRPUMUflpN6iQQvAce6MS2GOR4VrUzv15DEp7GLwdSN8KTMlmxxNiBSuzkQVafsUHn4MbRx4kmUcW2PmYMZta1AfZfatTssdbo+BjOWRwBt9T3D9e8iTdQ7IAXy7Fq0A1jiM0zjWOdDZPH8UwAZg7EOX9KhsXH5+J3JkQzqUd6dA55I+3vAyTvo0Ljl9HieK1d42KTZDH38pGyafbXj8AF36O1sAiz9alggAgrF3ESHHvgNs/p/fm2tu/13sjcOxc8aSfeXqAI+1WIGD+TCCHz27aNJPfkPv2qhTPs4SgTnhX3f8uHmOHhrq0FmV1vm/r5A1tnyGzfIb5/YaYCnFIFMKxbi6qZObWCJDA+Gc8gZqwjCmemCn3qQUsXgizICBGSVnTA6PvmMP05zLOKJZX0xCgwNJFCoFtJynyS93Fedo5PFFJP+P8tYK2vhwpniaxMZFLsDoAyR+JQw40WocxtI48TZGY8XDMSCyPcUHNmz49kGS3j4yFnz2AWDJbRwcMv2xoYsGHdm/CGzptGhI7mm0fuqNlV59TIUejY+dmrCrJpC2HnLhWaK/9Jh8JqqHXNEaJ311R+XsuyrlYy6axoMvnxptW3kfI1i6orf0xI4+DO+zj/yW7MajjbGxsTrt+KvtXF5MECyZB/yeTuiS/dR1TI/0zsbO+/st/qsSvoIhffm8fl14o3uU3apbZTvnBDzmpPGPcoy+vNcASwkp3qA7VjY5GOamN73pIfBQaA7JoCagXH3gBOzc8vlEmUmT4imMURkRT/S7YjK8B1oeUnF09DiOyZ4y0adkx85xoMDVPlnnM4bdBJYYyJ+hG6djt/huodxutTXJOBqDMeLVeB2XqneODMAIAPn/k7fIjAW4FkGvc6KzdT5QGpcIyJpejM8Y0pHvA7gIAsAAOJ3SiXbZQe7rUO0xHm8LmyxH5XReJJQu40+WdKiO3NE4Dnhru053dOKnmnwyfnymsdFP9fsIsAErGdmP7KI6PuzOy4si5gO70aXz5qRx8Uvn7KDortKzBH2BaHk6d8xe+ZH/bqGzKpHPF8/QCLD5vePoRP+ofJ39bNNanJ/Gia9c2muANcDAjgIcpwgKpzTrjiZgA2JsDkrxAWwOIDd4yfqM6M4VVEQLbEWVwAddwGuNyDlbQjyIKJriTBmW08RbvXJ15AhsOZnzEsfyqp03XjgKvsbJwVxx7373u08TK3roVEaH/PirazyOk6PcxFWvv9/LWOsTGdKhB2SjAxVFj3Vnq9zkQM+fKNJdtkpeY6Eb42rvsls8ryJrazy1zebpQL0vK4leATNedJq/yE0qF05ldwrO209Jp3wlHvJkpDu0LdMErGigZVzxUec4foFEdyS1S89yyQdI+Et88pP4kwX/fQRYupfIl5/5vqqx0oU7TPIXxWoHkIyR/SR3IL7tbG/7CH50k/2UBQboKtOx/cPe+Gsu4MN3yJH96NTHx9mmvtkoXmg5p42EZ/J3l6fPSEMbwYqLRHOdHrJhNjPeswKwOdViTtBtJgoASj6onbFTtMFSvnp1Y6qt8/ZT+kYn8PHAyC38Ix7xiGnvrNsc64DW+bQdaVNedeUp2bFEBn0Y3QTWR5vOM46rPKD1byX/FLJ5Xn0XB32KcNDhlGgu1jcm9VKgQQaOp04b37X0sAxAsA2HzYFyXrlzi/ZcPD6ObfVpouADOMnSGOgimcmX7L7EZBIANQ/ufEA7fWpTv8YndyvvzkAfKb5yEwTYoenYBdQ4LcV4WJmO6T458FAmq7sebfWlu+gbEzqOgUATUa4dPng6p506OpF7Z5/vAZ1shCd+7B9YGO82AJbs0mjH0cb5gfMuWoKSbEU2ZXlykl0Em96N3fOAQFU7ZT5MrxLwlY9v5JEhXaKVPcnhWHIhtcWO3vBlfzrLR/AyB+iSv0dHjr7xsJFjOsAPH2N2HA882UpyZ5QfWWtu7Mty+jnVAEtRlGI/ZL+iyHAjQBkoI1A4ZYyOoX1gpA+DMdJoqNprmzEzrHP6O2ZMeUlbKYdC07HzOYD+JrX1UmDrqohPE147cqEhx6s+RXTxkWtPDu0do9eY9be+yTF9FYgjAR05XbpgyQECx1Je3tf8GwAAIABJREFUlbRZl/TPqfE5E4DVzyRFw2+bjcWY6McY5cZGn8ZLL16xddutH37kQ4efoGMiBXImkwkz7oVFDw/05XSmjLZ9j/rTWfQdS3igq5w+6RFPx+nZ+SaxCzl7ZE85XhLbZkv1pxFgjVUA5O8B9Ahc5cYjZzdleubXlrHywS5QdJr/sCXdldxZ0pX5Y26hhYdcPR5o3/Wud51+lIg2WuwSaKOVD7NTPqMu25FBsgRlTO5sBWbssyqR41QDrEFTlqsRZ+WUjEbZJhyjUXQKDzTVKY+A6VgKLDOOtpSIRsrULqNGH19lNL36qNwxufTRBg1GDyQcq8/xHCe3sn7GwnHcTmlLFmBTO3XK2sbTMR6BsD54OG+pwxqvB190mCOJCpQDA+VVKcdclevfBOG8ZwKwyWYyiB7ueMc7TvozDmNrPMZoXOnDm0x999NExZcMlR2jyXdMMHcu+Qg6yk369KjOeqGHacZLd01WdNQ5JnPjTX46wJufNrndEvubLH548Sc82NCxMvsnz2kEWA+U6MBvt+1uabmM7fJX4zRGPuyDOrYypkt60z//Yit1HQM6uuIH6Uo53cnNE3c2LtD0rz9fyifYSjmalbVTNhec4y+OfdfkvPPOm2TGc1XC/1QDbFc7OWPe+c53niICgwYiAQ+DpvQMwZFL2jEMozNYbcZjdc51Hj19TAz9nZc7j7eHb5Yd/EBNu2RowjquHxr6OIeuc2SrDYDlhM7nQMrqtcETDckxWQJl9CRt0HAeDWDtX0YiDM7E0VydlYEBh1JelXLKVXm05Rz0TAA2QDQxRIyibrep9AZUjcmFx3H2UKfs9yx8ImDDn5+QVbnJj7blGRORzulOoiu06StbyC0VeIBTJBo9NPEyIQGBsTpWplv1Hmpq74GprVmtTbJbcqvDF//kMJ7TCLDGzI8ku2/4nTRe9I2N/fJlny+0C4HugGs+SW+O6TJQpE8Pgke/Rq+ELrs6tq3SEhx7kwtddNgne7FZCT8XQymQ990LX9FK/nxlWY7vqQZYSkohcgvPgM0bHACE4k0KKaVTRuWcuOMUpb6+HD/QUpa0q86EwKuJgZYvBXk1l3wiHnstrSE6F0CSyUQClGhyBBPNsYS/en3wU3ZeP2X/JAM2tvi48lvw149c+miHZmPBV7lzaHBOD52AA4eScrYc27llqT6rcn05spyNzgRg0a0vcCTTs571rOliZEIaCwdOR+XOqdfWeIAp/spoNnnVAW6RO+Ckk/SVnuLTxYt+7VgwDhPVmNBEO1nRxcPkJLOydoDGV5jaGoZffNDFmy+ZwOzH7tnsNAJsPhQwmpvGTJfNNT4LCI03XXiBhl0CQnToOB1Gl36t+dIdGmilU3ozJ9Mf+p6n2ProwSka6GU/9CW2k9iyZSD+Y3nARZvc6Cb/qtx4TjXAcmpKlkuU9qpXvWpyYIBD6QYpUQQlM4AyxUvKnV9UFlAaDceQ9UVHf0Y1ITwIsy7j5QeTyGRiIM7l2FebXJ0Brb7R5mzJiZ5jKWepHRlt9zLR8PCqoFsvH7Ow1cht7s1vfvNpLRo9wICe/mgpq6eD6tHkzABgBIXR0XK4o/KcclWes8o585kCrD76si19svM973nPycnZw/iMR2qcLizGKmqxa4J8TSS0imSLTNjK03x3EQEqO6MhoZs+lenNK7ZeHHFL63VlYEC2eJmgLbmItDy081Td1/u7GKKV/7GLsaAt4ZuvOT7NAMt2dGM7lucMxmO88lGv6drzFG8ssjd72WXDVspshRZ70rkAoU9bomcujrbjF+rRxsuyjH9/efCFLvxAC83mAT7K6LvbAMoPeMADpt9752tyfFYlfE81wFJMAJsRGcIthl/y2qKR05qMooNAUj2gczwqTVl9AEqB2pgMkjLFScoMZ831cpe73PRmiltusrgVkZPPRDPh3GIARE+OPdyIT/Q4HX5k4AxoAwtOYx3JVjFOakJzAk4RH7xE8NaaXKkbW07rmPyOO4evt5S8TYMeGhJZJXWr0ipg7Zz+0WKvMwFYfdkzO6ODrrsDt9ijbenMhcnYlEUZxnrLW95y0ovJgs5IM1AUodAp/UaDHfiLnC3cbeQLgQOb+1OwKMp2Lw/X2NhuAzK62Ns/6/mAqJeui37wof9sIW886smeLzg+jQCb3ekcYPEtQQG90WF67ELDzytf61rXml6Q4ePmD1uhYz7JAS2aIkt/hjAX0Wtesxm9qWs+0ac659jD7h0vLAiAAKlkZ4dvzbKdoIhP+INwcqHFVhJ6qxJepxpgKZ+yGU5u8mWAd73rXZNjmwAGymEpn6IYQ7njlKcdBWYsSnScEjvWThsJUJo4Xk21t5QsIiTylJNrBC4g6YposjWJ0cxoypJJLbfkob29f+gGFBxMiheHllxxvVxgEpPRGIzVOJSNt3Gi700vNJoQ9FrEoH5ZCkSX5cmJnjL6PvJhnOQiDxnl5FAvNyn6l7y+o1x4kecVr3jFtJdYe/3ra1xsjQbdqqc7fw+gK/3laLKJcfIZ9aJRb83lG8lEVjaIl/PJiZ8LrPfv3Vl4ACKZmPZ3AoqeByQX2fRHF63sxC6ScxLa6QbAjnuXAQyZ6VVuLMqSh3xol6IhV4e2u6na618abU336uUuQpakokU2dOi3ZCw+DUq3+tCt/mh2oWQHHy/XH6CiYcx0o6wu2pZtBA3oSWhlK4GFOnpwh0C29EiedIwu+uoau3MdWyZzsfYxKDbLbvRj/umDBlA29myizjFa1WtbGX1t2Z4vk71x0M2o53Xlpb/tRnSXifKtgXq11WZ1BpBSeMrIqI5HI1CQRInqM4rc5DV5vJXlIzIcSDJ5yymuCRAQkkk9h3V1GwGWg5FBXplh73KXu0zbTOqLZsbqgoJma0aczy0W5zHWxiQ3FnXo59ReuEAvWdlMeZ3h19kWTTQ4VMmWumQiS05Mzzmtci9ErJLBtqlomdx0J7FnIEh/LoIuInROZnpkD/qSOyar86Iar1+7c8gfyIUPedk+G8nJSq/y6uk2navTp37oVE5G8mqvXlmOhjybeVjq6Tc9klVEx8+K7BoDuwGM7JyM5EtWdV7zXGe//AFtIGYXBXmSlYzG05jMLW876ldAwX75AXnxZFufgDS+xqov+dIFmuS0L50/5wfGz2bo51PoizZbfkOz/tmOzPSdTp0nPx7ykmNtyaKvPHraVFd98qaT+GinzI9EyGQkt/GPumlcR+XZZ28BtifkbtdMbFuTXBUtHVAAhXFEiqeMUdlFP+pyVkq1PsTZbRnyN4Pxi0AmQIpq/YgTqMtZc7JekczQZBmNq4yfh1ne9opGEwwdZXk8OWLH+PucIsdtXBwlHvih71j01bpkk4Fxo7sszwGW5aPMyWXtK4flfORwzB50kUxu0ZbxrR64eHDCViIFfbMl2o7ZTtLuJS95yUST3jg5ubtANW4PQEQz3crzi+yPdvSzGx7aGEM+RKeSNvVtwmkztve6Zf6oPj3Qi2P98XSb6gKQP9EBm3VRTX7nXfTjnV+RL72jK0JbZrexHj3AYL3SflZ9ybM4XvV0YblEH/ZOpmwfwBiHOz7LXmhlp+QzZn6Lpjce3ZGxEzpsznbmEx04RpcefCDIA18XVf3RM36JPvhEdkObjfCWaqcP/nI0AKhjeXec2juPl3PRRKO26YMsRbDkJHf6yY+X5dlhbwHWgAjfbQUAdDWxPckbUyI8C+QmKKVRVMqmXM7u2EcpPDDhlB4uiYq75cwBGZjjUCDHUo93zqVcvZzToM3IDCNnNDIwEgPhLxohvz4iiQAhPkUu6Fdn3Oq9/ssJch40lcuVycDJAYv+6Qy9dSkHWJbrj54J4WKnHWczLjoPYDkvGZKNTB4KreNPx77bYI+lSBhdkwCdJkpl/CwX9QS5caazZKVnPuJ2Xx+2yDb5A9pkRrukTYl+9dPfuBxLyeQcWmS2uf4e97jHNJmrR1O/6MntFgGoxkyP5ExmdV0wlL04kf9GIxnoFn3+v8xu1aOVnvi2+ZJs5Es3aCobH4Dle2SlWzKiU24+oM833Y6TDwgll7uNRV1Z7rKW3fjRM34p2s7Zm9xnRNFDN/s4RtcxnuRVjlftHDtfOxfucMEHlNSznbtiSx2O0c629YsfHxBU0IW1ZHaii3SjvCxlh70F2BwkkHMsygOGNqLbF+fTapw352YUypIoy208UBUBt3ndwLtyogn0KE5ZnhIpbiw7T7FyC/PoZxD8R3BlZIb0rdf4odVY0FGO32gw8pgQ+tmLG4/ynMtxTufhE7k4rX7LjD7Wa7cqaRstelcWmeJpbMlT2fg5pLEfZ4nA2I2bDUWBAAtNCU0JL2CAtvL973//wwsu+YABECEbv0CTDkwKT/z9cZY8AMtkS3fJiaZkQsXbcZObHzkubzKSDYgDGjtAoouXVAStrK91fiBCVvLJsznZGwMbWvtF30UAP6nxo0dOD3n0W5XQzGfpRjSZbo3PuMhNvuTmr/RKRrpMNrKqM2+U+YN1dAEA+9AvOV10uzikE+PwireH19FFg/+nC0sY6tC3TGEJIhuQkz7ogKzoJm92yXbOaauePPpqmyyOLQ3yT36XPowBP2210d842NE46YGv0Sf9NI+Vl6Vss7cAm8INTJkxJAPKIUW1ruYUQ1mUwqAZAfj28MqAARcaFDU+dEAfTQaOR3w6lqOhrw9mj0bN+Ixavdwn+/QZDRKvotnOq8ezHJ/+HR9dxh8nm3pjtUZJfv1zAuVVCd9VSV/n0SMruTxISsfGl4PTv4dFRYY286/i7Rx9pgNrdegZywio6ZXz4wWExw+vZ0MyAgR0s6E/Btv7yAdMFAkNNG21osuRXz4kV++8ydrkbrwuBn7G52k1nkCfTthC0i/ajvH0kCvfo9PAj7xk5+P0IXk11Dj1w5M8yRZtywirbJfd0rPoy3JV9OjAuOgkYMGvgIA8AWxlcjYH6BgPH9HxALE5R2/okZNO8MHTeR/zQaulsOwP/LMbni5E7lIBofV0NCXykRkt5XSRfuTq8c9f8NaOHfiV754ATLZo90Lj11Z/vJTx9tBU9M33jbe5Oc5nsh+Vss9eA2yCMwajBqwMweCS9TlKpGAGpciUb42MQTkY5TCmgTO0yYluV1K08MBTG7nz2qYsOToPfehDP8BZGYURGabkmDGjl5GaXPhGt/HUliwcrb/eNsFyLI6GvnpRw3Of+9xJVv3TkfKqFO9VOZmBIPnIax3UpGysjZvOWyMDDu2YWMWfXptctkdZGwfS9gubRCYoXZoAaFdn4gE3chkruciJF5pkZTfjsrTh4uNBo7Vqt4looUuXxpGvpM/s12QzRmMCJLbo2bZlKxcb4ekhoz58r6Q9PunHs4O205GLbdONchcF+R3ucIfDiU42NJIFTbo+zkOufBkfa7CWyciJJhuSlb7R50eiegCb/vQjK/3SNd0mszaSAMetdt91Ro+sXSDYMlDE34d/0GQ3tNCkR7S6BcfP3PQ6Mtq2LVrvzef5gXJzQm4sxpHt1NGTOrKxvWc4lo/wwt8nT+mT3dMvXxt1bkuanTPNKbLlW+liWW6c0t4CrEGZODkyYyS03GDl1uZykiYJBTOC2yL9KUWeYVNYRpbjFQBrrw59dR1ro84kY0x8GEfKuHJy4G+tFh39k78xoaO+pL5kcpCRQ6KND7qML+c81SkDEfSkcZx4L0u1X5ZzRH3L6dvV3O2puwag4eJG/7e4xS2mSS+ycmt+HIBF19jJSzfWY292s5tN0eENbnCDKfdWHX74eDnAvlh8jRcw6ReQ0B1AHfWJtno29ClJW75MWE+s/Vmi/cx0mi3TK5AAyHxIBPqgBz1o2h9LJ1108BLFiWglupC8NEJuMuMnyrVEpT150EjvaHVsTJYcPC8wZomu0QSq1mfpBr36L8vxomP8rG8GVuilT3ZLZvI+4xnPmMZGb+gGKHyRrskpOR/oep7h7TZyocFm7KjMH7wJSQ8uTnSIJpnQR8sxcJVLbOU8+dnWg2h3jGxg6cBaMru5AGcrAGu+mSsAGKgCRy9GkM2D5vjiSXY+RE6yyemXXviXY2Vb5rzira9+9EkP4Yi6ZSm77C3AEjzDjsbO+A1A5GOCNEkoHRC5Ilsj4rTopKScgwFH5ajXVp1zOUAAy+il8Y+UeAFUiQyOJQZ364sOo+SgnCZZ8JHQJWMyxdtOAnTQi7a8q3UO5o0YfdA1jkBxHN9iWftViZzOp5PKokcRkb3KJpcPaNjo75ZcLhqtzyLP8Zicjjm7iEUZTXREe6JE9KuT21Eib426nSb6psf0TKdkLo8XILd+b0uXBzUeePiHmCjH034TmU954+x+97vfBKCiqXSKZvzUAQfyADGyJTMdKRtHHxNnn8XJ2XG2t1ZJj/pIaNpPCqBFjDbU80lyrEpka1mCvPrSH7k8LLQpn8x0jY/1ZHagL7aXs6Nc/+ylnA66oNEBOuQ05mRlS+ureOPHNuRCK7ruMNGUKseLHJ1jA9u5/Mft/PPPn8Db3Ywv2VnjZjsg7w6A3SwBWE6iAzTSWfT4HXnpw7jpndx0k+0ECuyT7dnoKBtGc8yzzV4DrAGVDMxADZjw6hnJukpR5BjtASLrb/plTP0cM2AKWJc3YfXTFn9vdBUtB36BHkDEG/i5NSUzY1I+vhwu8EJvHB85tcHLxDLxXZ27XVYOwNEvUgZy+uETvXXj2vfzo7Nuo2z8Jp+J76GYF0gs6dgpYRseW0ijnrYhx65ojuM6SXlTuU/Cc+zD50WXngvYGcR2XfwDxE1kHHltUt5bgDUoQAPgODrgAG5yigts3Xq4TQZCALZIUp3bCf0DZfTQAkTrlKZdfORoVOdpOl5ANX4BXkALDAH8uI8O30AWf1dVx8p4kFUbE996mFsddANtYzQuCX28vAUDtOkDnfSzbnz7fp4+tpnona7SfbzyM7aWRj3V5v9CPo7rJOVNdXASnmOf7JeN5NnOPN+1fMm6twCb8xMUuAEfSqXIwIQSAWy3z8AO8Di2wO6Jr3Bff0oHXGiMEWSKWMzxRx+vjFedWwr7awEdkAOCeOJduXNuZ9wiuf3BG6iiixbZ3IaRzbGycbrNdqsKxFtuQN9xY22x360seump2/PF8Zy2Y2PaZqKn0Y/iRU/5WZM33dXm/0LemE6ab6qDk/KtnznMfuY2e8kds6sli13Ll5x7C7AEBDqUJ5dSorUf9ZJFdaDW1oyeDAI+W1PaY0f5wIviW49JCUfl+GkrosRXGT9tle91r3tN0SsgbZkgcA/ogaAnoDakt17VWIBq48GDwzi2R8/bSO3VNA70jVEZwMqBLd7egCEXmTgXWkeN57TVGc82E/AMQCsvO05325TnXNNuTCfNN5X3pHzrN9osu5Gp87uWLzn2FmABUSAKeABHt9TKFtMtQlunBD7ABvgAWrfSngL7WaAfH2orggRA6GaQlHBUXht9AtjAUXsL6AAU2BW1jkBoKwyZgC7AffzjHz997NnV1TjQF1G7ABinqPXFL37xtNG8qFV/40FfCsg7bwnCnlPgzKG6NepCcNS4TkvdphNkXX+6oqf8gT2kfK7jUV/raJ6m8+O4TlLedKwn4Tn2YR/HoxyO2bP5Op470/LIa5Py3gJskRhFKpsQolBPO31h3dNE3xSw9w6AASI5kAV8ga2nip7Gv/CFL5yezrotR+s4SmMoUS8ZGEgffRnRQyhPLQFsfPEEqNV5k6x9o5YUbBvxSUKfx7M2Cxw9YLEdy08atSkydZEQxVp/Ba54lAfkPuuY45AtxyLzcca3z20a1zZz42fbLpyBbfVN4vS0TVnONe3GdNJ8U3lPyrd+8e9Yro7NXCQ7f9J8pLtJeW8BFkh0NRJFemroK1O21vhoS7fjcqmIEQiNa5dACiDZzwiUfZwZreMoDaAHrhmKTPqSz/corfUCQ+AauCeDY8AIJEvA19IFcLZFyPYg0TYZa6u/FE3lzuvvYgKMATVZyMapuhgsAsNxxrpvbdL3NnN6clFq+Ui+GNWOetmmLOea9jiuk5Q3lfckPNf1IZM2i3P2JLKu43Xc8zsF2MCKU1NKx/KU4jbau/b3uc99pvVMoBOgAaQ+MKG+KBYYub0OpCo71tema/shx0gv3ikO/yLCZBlz7UXWtol5ywft6AeMcuBPrt520UaEXWRbZNqY9AlMnVOW9HPhCIRtcCdDV2v6U5Yaw2nOR11vo5xultHu/Jgva3sa68dxnaS86ZhPwnPs03wd5XB+nBPjuTMtj7w2Ke8MYIseKMQaImAI0Iocbbj2SptfRQAkIDOCl6gwMFXf7fQISOqBEqAT/UkAzu26CNSaKN7A1u3/CPSrFKs9o3l9lHzoAsBRxgBRFB2QBpraB5raNS51tSWni4PxaOPYGL19Q05plPFMnGjsd1T5TGjNbbf7QG7W7+nTb3NqZwAbmHr4NAJFwGGt1Cupbu0BTKAZYJYDHmDlWKSoDExH0AJKgApwBWRyYOatHuup5CFLgJ+CluUAVh/tvRLbpwXxIgNeADFwDCjx1UauTe2TS3ttyS86Vy+6dYFR9uFkrw+mp1G+M5mIY7+jymdCa257+gBgttl2bdac2hnAihoZGagVDYpc1dk36meA3uMGQoGVHCgCIDkgtS0LEDkXSDknaux4BOexDoh5zc6DJ6/IiWB7uJaCluWA1darou8nP/nJBz4uAzA9eMMHXzKSxXatZPTwS7mkLZklMjW+QFkdGl6c8FosYJ8BdrsTZAagWb+b+EC4sTOAJQCQMgjrrHK360DOHz/96RXgACEAA4SURalFfcALiAWaAVZ5/QOqaDivrkjTsShU1EyOMaJOUYu5B2+1TX7brHxIhIxkFsH2P6hAtLHgHX/n1DcWcncOsAJkH8/wOqALE2CfAXYGAP43p/3UQXixU4BtrVUUSCCRmY86+DJRIOn2GJACIcDabgFgBMgAUECqDjBpOy4XBLDaObfYTr2v6LRUkHJW5S4O5AW0QA/gOfZADhi2tGGHAJ4S2cgfyJLDOJ1Tl3zaGatx+yqQryj5mEavxOI9A+x+TqwZ8Ga78IGwY2cAG0CNm+SVbaUCNkWqgCawDagCI/XAUy5S9DkzwNYtOoAKtLQLqAM1ANc6qTofO/ZVHUCZgpbl5PfKrIuEZQ5LC4BWNCt5scCLAIuReBcJcrk4JL8xkUE9UNbXdwZ8Qo7BeggHZOlpBth5Is9gvr8+EG7sFGA5iAgQWHi7yaZ7/9kqsisHjAAX+EiiQOcAka+Ouy2/973vPX3OzPYl/0my1xRIBbbWantQhAZAA67KaAFvYOfbkcAzBS3LyduVivzGAVj1lZzzsV4P6vy6hDzG5kIgKsfbHlpjUxapaiN5O80OB+vCgDUZ7KoA6I5ngN3fyTUD32yb5uzOABZAcERgFDg97GEPm4AO4ADAIlCRHVBS5/YZEAInH8R92tOeNm2V8k1LEaQ1XG97+Ti0N6S8168tAC2CFUX2hB494Os8oH3gAx84RaaBWIpazANX0W4P59QZSxPM2IDus5/97ElGnzn0cRYfIe6DxJZDvG3m+5XkfdnLXjZdaIwFHd/sRAef6CrPADtP4vxhzvfPF8KLnQEsIAzEAJQ1Rk/0i1KBnagVKAJEAOgcsPTQBxD22239AY7cgzLlaLt99yV1IIoWugE3mlLRMbAVYfZPqZYKFh0Y4KXAk+ZkpQM8ojfyOSndfek3juUk5U3HcRKeY591/Me2+1jeVP51/dedX6eTbffflP7Zkn9nAGsARWVyXyu/9KUvffiQCpgCPFFr4ApogaNI11YuSgROY9RofRJ4Scpoiwa9YquvdU/0WhZQRtdxdb5+BaT1w2NR2QHiOiOuOg9cJTyiN/JZ1fc0nBvHcpLypmM8Cc+xzzr+Y9t9LG8q/7r+686v08m2+29K/2zJvzOApQAAYyAAxi0zgHP7D/QCVSCrbJlA8msIT/v1B07WQgEpOtFED7D2MAgfEbJ/tKMRkMbDsXpgDtg97LL2eRTAAt4AcZ0RV50P+NEq4h6NuqrvaTg3juUk5U3HeBKeY591/Me2+1jeVP51/dedX6eTbffflP7Zkn9nACvCDKiAzeUvf/kJ3ALUwM8x0HMsAvUr7J6oB9CUQaHolQIwT/c9HHLeF7Ws71rPDWhHfgAW2PoZXN+cRRvNFA50A951Rlx1PjkDV23j0XhW9d/3c+NYTlLedHwn4Tn2Wcd/bLuP5U3lX9d/3fl1Otl2/03pny35dwawHv4YBKABgv5V33IAMJU6BqyObVsCriJTCgRORZQANaUAb+d9BzYewFjyx06Abd1VGiNmfADsVa5ylelHcIBU/2ijicbZANhFB0j28sXzp+24cZw033S8J+Vbv3X8a7ev+abyr+u/7vw6vWy7/6b0z5b8OwdYYAVsrb8CPEAKAKWiS8Dn+G53u9u09mrwQA/YAVNrsFJKbcnAzgLtgLhzeD32sY+deOAlikUXT+XWZ0W5/ohZ5IoHnmiMSwfxO0m+zIAnobWPfZaN77j1m47puHyWtVvHf1m/fanfVP51/dedX6eHbffflP7Zkn9nAAu8ikBt2Lchv4gV6CkHgKJKdX61XFRKAZTYLTZ6AFQKVLWxlxTgAmPtH/OYxxwuDwTmcjxG0PWL4wA2wNa/FwrWGXDd+aMMuK7PaTp/1PjOpG7TsZ4Jr6ParuN/VJ99qttU/nX9151fp4tt99+U/tmSf2cASwHd6gPY8XupwLS110AP2PomLAA1eP0BaQ+5HKcUoDtGnfaS6offox/96CliDcCLmkcwd84WsHiNAKusfp0B151P1jGvTxeNjk9jPo7rJOVNx3wSnmOfdfzHtvtY3lT+df3XnV+nk23335T+2ZJ/ZwAb4AFCUSGABXKiSeuiym3LUmcf6+1ud7vpVVaD11+/olW37pTqnL2vyiJQkatc5KsPkG5ZwMOu9tgqtxRj/iVVAAAHc0lEQVQBdP31YNz+tU7hi+fXGXjb5xflWTxex3+x/eLxuv7rzi/S27fj0y7/vunzXMuzL/bbGcBSOPATrQFA657jA6dAENiJKN3C+1WMnwMCSv0AbLf+6iqjB7hFxhTt/X3561//+um1WmAKtEt4oR+4+42LqBdoH+UYeB9VP9atM/C2z4+yHFVex/+oPmPduv7rzo+09rF82uXfR52eS5n2xX47A1gKEH2mdP+YArA92ApgRZV9QwAIPvKRjzyMLANn4BodoAtYgarzQBLwurX3qxi0PMwC2gAVnyJnufO3utWtDqNjcqIjj8fIr7rFfJ2Bt31+UZ7F43X8F9svHq/rv+78Ir19Oz7t8u+bPs+1PPtiv50BLHAFVBRB+eedd94EeCJWQArsAtkiTgDsVdbXvOY1U1+vxXqBoMgVEKpDD127E9zmO/+6171u6ts3COLRcgSw7Q+1559//kQDPXJKySlHb53DaLfLtKl8m/ZfN/Z19Hd9/rTLv2v97Zr/vthvZwDbQ6gM4eMsRbCthZYXYYo8lYGx7wW07io6DfQsDwDE1mfx8Y1Z/7G6xCUuMfUHrpIo1tJEUTOAVffMZz7zEKT1Ry85A92Ol+XrDLzt88vkqn4d/9oty9f1X3d+Gd19qT/t8u+LHnclx77Yb2cACwgpgQGAlmj2Ote5zgRwRa4At4dQrZeKQEW017zmNQ+e+tSnTm9cAdqe9KPXF6g87PJ3BL+eKQr2MA24Am805fhE3ycOfecguQAsWXMU5fG4+sV8nYG3fX5RnsXjdfwX2y8er+u/7vwivX07Pu3y75s+z7U8+2K/nQEsUC2KDWx9zq9beJGqyBLAjuullgiKaH1D1a6A1772tdNygOUBywKSZYSHPOQh0zIDEPXtWMAKSAF4oKqMfjQf9ahHHQK/yLXImIMw2nHAtbbrjLzN8+sceh3vTftvSn8d/22fP+3yb1s/+05/X+y3M4AFrh5EMZTo1X5WwCiCLLIEfoAPyALHfr/iVj+wdN5LCr6r6rOEXka42c1uNi0HoNPbWdopFx2jGX3tRLjA3fYs0bALAHAdH2gx2gyw//vtzXUOvO78PEH37xum+26TM5FvX/zvYsuEXifgpueLXvFHy7GI0Y8DrYsCPyAql9SJRAFldaty7QCnh2baFQX3EM0xetEQGT/vec87BNB141umt+PWb0p/0/7HlXNudzQQzvo/Wi+zv3ygXnYGsEWGIkXOCmDVveMd7zi44IILJkAFkO2PBYSOeyEhYFyWt7XLeUAtQlUGsM61RKBsKeI2t7nN4brrusnj/KaOtI7HOvqb9l9Hfz7/gRNlUR+z/lfrZ1FfF9XjnQFsD6V6Qg9c3ZIDXK+p+nlhEabbeUAYWC4D1bEeGEvtEEALDYBdFAx41V/mMpc5ePe73z3xl7c7YdUk2tRhVtF2bh39Tfuvoz+fXw0gs/5X62f2n//Vz84A1norIwSwyrZWVWd9to9w+5QhsASgfhljDXYE06PKASxwrqyd8iUveckpkhXN3vzmNz9485vfPEXRI7BtewJtSn/T/vME2AwgZv1vpr+Liv/tDGBtoQpMi1x7qNTTe/tXr3e9601Rp2jT9wgCyaNAdawTuVoGAKJAVdm/vJS1c95vvn1tixzAHeibOOTY9gTalP6m/S8qDr6tcc76nwH2OL61M4DtaTwwBbZjJGuZIOH9+vq+973v4RKBW/xAcgTUxXKgOu4cALaWB6zj+s23v88mR+DqG7LrJo/zyXfSfB2PdXQ37b+O/nx+NYDM+l+tn9l//lc/OwPYDMBRPeASNVYnF1E6Z2+r8vOf//yDK1/5ysfeSdBDLLntXUWt/lYAtNHGZ1wL7tcyfSRm1SQaZT1JeRXtZFtFd9P+q2jP59aDx6z/9Tqa/ej9BzsF2DFq9ZBLNClxXud8R6D9qIz11re+9eAFL3jBgRcM3OLbamXpoCQ6lRzLLSkAV+38EtxbXV5AAOZAW1IGsu1qaG142xNoU/qb9p+dfzOAmPW/mf4uKv63sxcN1jnouvN+YPjgBz/44C53ucv0S24vF/icoa9y3fCGNzy47W1vO/0d9sILLzx4+ctfPn1hi1EBqZca1tE/7efXOfC68e17/3XyrTu/6fi3TX9T+Xbdf9/1s6l8x9XvqQVYChJ5dovv2Bart7zlLdPHtUWnLS+MyhQhH+ch1joF7vv5ccxHldfJf1SfsW7X/UdZTlLeVP51PDelf9r777t+NpXvuPY5tQALQMclhlFh40MyZaAKiAFuyw7rFHTaz4/6OKq8bnxH9Rnrdt1/lOUk5U3lX8dzU/qnvf++62dT+Y5rn6VrsOsEmM/Pa1CzD8w+MPvAah+YAfb9qxU0O9Csn9kHZh84qQ/MADsD7AdsjzupI839ZhCafeCDfWAG2BlgZ4CdfWD2gS35wAywW1LsfDX/4Kv5rJNZJxc1H5gBdgbYOXqZfWD2gS35wAywW1LsRe1KPY93jk5nH/hgH5gBdgbYOXqZfWD2gS35wAywW1LsfDX/4Kv5rJNZJxc1H/j/5HTvEs8iMz4AAAAASUVORK5CYII=;" vertex="1" parent="1">
          <mxGeometry x="590" y="400" width="80" height="38.6" as="geometry" />
        </mxCell>
        <mxCell id="aUsY_H1b6O0TGKv6YpwI-23" value="" style="shape=image;verticalLabelPosition=bottom;labelBackgroundColor=default;verticalAlign=top;aspect=fixed;imageAspect=0;image=data:image/png,iVBORw0KGgoAAAANSUhEUgAAAM0AAAC0CAYAAAA3kahgAAAgAElEQVR4Ae2dZ9gdRdnHjw07CkoRQhcRNaKGIqGKENAEJCCSoGBAA0gLCQGDoUQBEYSoQJAQKaFIs0WQgNGAMRQDWAIqBlBAihFUrHyc9/qN73Att7tzz+7ZdvbMh+c5OzvbZub+z9x9en//+9/N3/72N/Pss8+aP//5z/aPsu/v+eefN/Gv/z7497//bZ5++mmzbNkys2DBAnP55Zeb888/35x99tnmnHPOMeedd5655JJLbB3XPPXUU4Z7Yt/33/fJPvTROnUOF2CEco9/f/nLX16o0B5AffKF8Tj/AP7nP/8xv/zlL82FF15oDjvsMLPLLruYjTfe2Lz+9a83L3nJS0yv13vh71WvepWt45rDDz/czJ071yxfvtz885//jONQ0uQdQvMOOGCl5wDzpz/9ybu6JB8cgZIfKPTZc889Z26//XZz0kknWaCsueaaL4AjCZSs45e+9KXmLW95i9l1113NKaecYhYtWhTBUwJwkrTtOwYjgKf3zDPPGApu6fHd5OoiaPKD5oEHHjDHHHOMefe7321XlCxghJ5/wxveYN7xjneYo446yvzxj3+Mq04f4HF0rf2CEbDSW7lypeWrtRuS9RE04aCBFbvjjjvMnnvuaV73utf9D/sVCpKs617zmteYnXbayfzwhz+MwCkInCRta8fIoD3+ARzt4mR9BE0YaP7617+aiy++2Gy00UbmZS97WS5WLAskaedh2zbccENz0UUXmX/9618RPDnBk6Rt7Ris9J588kkDi6ZdnKyPoNFBQ39ddtllZrXVVqsMLBJAyEizZ8+2YxnHSB8j10dJ2taOwUrviSeeMMyI2sXJevey+Js+MGi2AMzqq69eG2AcgFhxLr300gicHKtNkra1Y7DSe/zxx3MBhodGsKSDxfXLz372M7PeeuvVDhgHnM0228zadqJa2j9Obrw0oMj63mOPPRZBk2NWch2d9btixQozZsyYxgDjgLP77rtbWxCKiKxvjef/CyoJCq3ce/TRRyNoSgINdpiDDz64ccAAHBQPJ5xwgsHjI4LDv+JoIJH1vT/84Q8RNCWB5tZbby3FBuNWi35/MYQ++OCDETTK+EpQaOXe73//+wgapVNDZmp8wg488EDz8pe/vBUrjQPckUceGUGjjK8GElkfQaN0aAhguOanP/2p9RFzxNqWXwyq9957bwSOZ5wlKLRy75FHHokrjadDQ0Ezffp089rXvrZVq4wD7qGHHhpB4xljDSSyPoLG05mhgEGZMnr06FYCBuBgYMW+ENqeYbtOgkIrR9CUAJrvf//75m1ve1trQYN/GuzjsIEhtL0aSGR97+GHH47sWZ/A+dKXvlSru4xju0J/icnBLy2UiIbtOgkKrRxB0ydgMB6ioXrFK17R2pWGbzvxxBMjaDLGWgOJrI+gyejI0NmWDj3ggANaCxhWI9TghxxySARNxlhLUGjlCJqMjgwFDUFJH/3oR1sNGrwD9ttvvwiajLHWQCLrI2gyOjIUNCS72HfffVsPmvHjx0fQZIy1BIVWjqDJ6MhQ0BAz/rGPfaz1oIGFDG3TsF2ngUTWR9D0CRrsH1Gm8TtEth2EEhRaOYLm/0GD7xisFrnGxo0bZ7bffnvrS/aDH/xANQySMOOVr3xla1ebVVZZxcyaNcu70kAot912mzn99NNtthxsT8hrwxA+rYFE1g89aAALgXjXX3+9ze4ibR+4xpDAz2dRP/fcc82b3/zm1oIGOw2RpFkzPmm8UEkn8xigccPL4ZprrjHEXHU5LkeCQisPLWiIaiQsYuHChWbixInelWLkyJE2QV8W0d18882GaEkJuLaUcdokmjTr+wmPzvpWJg3YT8IeAE8XM3xqIJH1Qwka2DBWFmwX66+/viGbSxbRcJ766667LpNVIe8YkZLJmdr3vLrrNt98c+9K+f73v9/bfr53xIgRBsdP+g22LQuAg3hegkIrDw1oYC+IHfrGN75hU8FusskmuXKQkULWF3OPLNREIg0NgAD+K1/5ipfI11hjDRU0vIeUueQ+IEHh/PnzzUMPPdQJtk0DiawfGtAsWbLETJgwwaZ1lfmSNcJbddVVrZDs4+tZbbbddttcQNTeW0b9lltuqa4Mo0aNCgKN+x5WVMDz8Y9/3CxevNj84x//8IKy7auPBIVWHgrQ4KyIXFLUP2zvvfc2uP9rg4/mCU2VI642/F555ZXqd5955pmFvhkFA2l22e3ApyjR+q3peg0ksr7ToCFi8dOf/rQJZT8kkSME77PPPubuu+/OlGeSA47HOGyffE5TZdTmZFBNfmPaMTIe8koRwLNqr7322uboo482BDSmPb/t5yQotHJnQYPAigBcJGYf4oHgvv3tb9vso6EaI9i3m266qRWgoQ3seRP67awUfDvsXBGQs4q/6U1vsrsitB0k8vs0kMj6ToEGoiWzO/mTyTSZd/AZeHj1OXPm9JX6aNq0aY1q0pgopkyZErTKSALCLejrX/+6VaHTH3nlvze+8Y3mW9/6lt1WxCcDyvc2WZag0MqdAQ0z6m9+8xur2WFzpDyAgchIUj5jxowg2UUbYICLHFRklcvz3WnXvvrVr7aeDCQt1L4zqx4t4V133WX7ctNNN83dDuxCRxxxhE0fFbrSZX1LHec1kMj6ToCGgWE7C4xweQgVdew666xjt8FYunRpYSKTA8sMy25lH/zgBw1EnEbcVZxzMliZ2Wcwan7kIx+xWsc834ySAO9vwEcSRdlHbSpLUGjlgQcNBIqf1A477JCLONkUiR3F0KyFCMt5BxmfLfbJJI6FmTcPwRW5ltUVlTpEWra/GIoC+ol9cABD6PfB3n3gAx8wN954ow2pz9uHdV2vgUTWDzRoIA6MbOwIFjqQXEfmyWOPPdbcd999pRNYcqBZAX/+85/bcOi11lor1zfmaQ92JLRfvCv5/rKP77nnHisr5WkLqzkeByhmIL6yv6mM50lQaOWBBQ0GNTZtRRYJJTA0Stttt53dIDbE7lLGgPAMPBHwGNh6660LqXV97cOg+tWvftX0I8PkaSerDooSnDlDPbtRJmAnw2bk86rI8x1lXquBRNYPJGjgkdk2HMCEandgFSZPnmxXlyYMcSgHmKlxaUEV7gNCSB1GRbZNR35hUMskIu1Z9B8OoOw2zSoX8r1cw3j5vK2191ZVL0GhlQcONKwwuOLjQBgKGJQDZNBn17eqOj70uRAcm9aS9ikvW0k7tthiC3svW6o3AX7XTmRJVlBiiZAPQ4GDobltwNFAIusHCjTIMHQ4NphQwGA3wPW9bVtOAH68hRHcL7jgAiuToG1717veZT2vmZVZTXbZZRc7o8Pe4ZnAPdzbFhsIBMWWhXmcVQHZ1Vdf3fgE5iYACQqtPDCgATDXXnutJaiQWQ2nQggQVXRbCMwNUhd/0ZDhToPgHzI+KGPyeCxU2WcaSGT9QIAG4ZEtv9/3vvcFDQi2kbFjx1p+PwKmvvh9bFM77rhjkK0MToFJ7ZZbbqlUgxkCNgkKrdx60ED0sDDYCEJmMGwi2EYQkCNg6gOMI05ibNg+MUSzxqqErQwFSZOeAxpIZH3rQcNOXlikQwCDJucTn/hE3I+lzww7DgBFfpmoWHFIaxXizgRXgCfHr371q8aAI0GhlVsNGj4e1/4QPpnM+AAGrVKRwY73lLcqARw0hIxHiAcB3AH5sMnZ0MQ4aCCR9a0FDcv1l7/8ZQMYtFUGoX+PPfaws1UTnR7f+b+AY/xgu+ASsJFpY0g2H0LRIdC6+1OCQiu3FjSoiXGm1DqbesJ177zzzto7u+7BHbT3ofEkHBrvgRBu4e1vf7shs0/d8o0GElnfStCwARGalRBbDAbC+++/v/aOHjQCbup7sSktWrTI2py08aSe8azTxYl+kaDQyq0DzcqVK632KyT0lt3HAExTBBHf+79sWVqfsHL86Ec/CgoFBzgoBtKeU9U5DSSyvlWgoXM///nPB7llIDw2sZRXNXDD8Fy8OYj5CWG5v/nNb9ZmMpCg0MqtAQ0al5/85CfWE1jrVFTLgIvQ3GEgtq60kUlx//33D7Lh4FtYV6IODSSyvjWgeeKJJ2yshqYtY6ZCPVk339sVwm26HQT8YXzWFANo3Nhmvg4DtQSFVm4FaBAWibUgRaxvlYHf3Xnnna3jYtODH98fJs+k9ROprlD0aGP93ve+1+YZSHtGmec0kMj6VoCGTiRbo68Tqdtggw1s4BmNKLPT4rOKA6BI3+FLSMYgUj75xhyPguOPP75yNlyCQis3DhpWGZKL4yGrdSCxG22IiSlCKPGeFwOTcZw6dao31RWcBSESV111VaWTpAYSWd84aJBNSHfkAwydt9VWW1kLcyS+FxPfoPYHsgrRn1pCFALvoA98EKtqqwSFVm4UNFiMSbigCf+4WLCctzG+vKqBHIbnEhhIYkICBX2TJp4hl1xySQQNRMEOXNreKPiV7bXXXq2LvBwGoq6jjawg2pbycBrIvFWpoLWVRdY3utJ87Wtf884wzD7IOmTOrGMA4zuaYf3Y15TQbt9qg9KA1aYKbkOCQis3BhrsMpr2hBnmC1/4QgRMg/ExdUwksOns+aklVSRfArnqyrbdaCCR9Y2BZubMmd6ZhVkHXf4zzzwTQdNx0ABMwEAON5/RkzpSYJWdhUeCQis3Aho0ZriB+5ZjMpZ85zvfiYAZAsAAGlYbNpfS0kGR5rZs2UYDiaxvBDRnnXWWmmny4IMPbn3i7DpYl2F6B2CABfOtNrhRsZVHmTE3EhRauXbQsDcl6VmRV7JWGlSMt99+e+m86zAR4KC2lY20tJ0W9txzz1JZNA0ksr520Nxwww2q9Z+kDI8//nhkzYaENUsCHAJlUs2aUDmPwgAZKHlfP8cSFFq5dtCwnbZvJsG7lVBn3Gv66Yh4bzPq4zL6nYTuPtBQN2vWrNLoQwOJrK8VNBiyNGMm+c2q3jKijIGNz6gOlKTe1bLYvPOd7xwO0JBtZN11182cRRAAzzjjjFL51Ujc1RF3lX1L6i5ttSFXWhnfIFcSrVzbSkOU5SGHHOJN58P+juQELqMj4jMGEyxu3H7xi1+oxs7DDjusFFrRQCLrawMNiRW0XMzjx4+PLjNDKPw7oCR/MWCyi4JvtYFrwbMkeV+RYwkKrVwLaDBckfjPZ7hCOXDqqadG20wEjQUBiiDyQPhAQ75o9gItApTkPRpIZH0toGHLOfaE9HUAHgLRA2CwWaokIfZ7zERLRhofzSADY7Pp1xdNgkIr1wIaMvjvtttumR1A40lfys5a/XZ2vL8bwAMIbGLFzmk+4Gy22WZ9040GEllfC2jYsnyTTTbJbDxsG6xZma4RETyDD56QqF63OVQ/4y1BoZUrBw0zxrx587x69zXXXNPuftxPw+O9gw8SOYYEKeKn6FtpmHDZtFjem6esgUTWVw4a8lwdd9xx3oazxBKIlKeh8drugSRtTNkBj3D3LOCgDJg0aVJftCNBoZUrBw25ltkGI6vRnGfLOcCV1mnx3HCAI2ucQ+gHL5J+4q40kMj6ykGDtzL5yrJAw0xBGEBWp8Xzww0aXGo++9nPZtIPdEWwIimNi9KKBIVWrhQ0qA2vueYab3wEPCl8a9EGx/u6DSpk4rlz53plYkJJyFZUlBY0kMj6SkHDkkmMf9Yqw/m11lrLpnEq2uB4X7dBw/gSY7Peeutl0hGBaTNmzChsr5Gg0MqVgoaYmIkTJ2Y2FtDAurHNXCT+7hN/0TGGxSdZZNbkS0Aje9oUlWs0kMj6SkGzYsUKNaCIjZngW4t2aLyv+2Bj8+GxY8dmggYwoWz67W9/W4iOJCi0cqWgQfMB+5U1Q+AJQEx4NGp2n/D7mdzY9ZmdorPoiPNbbrmlue222wYbNAhw7J1JhsysxpKn94gjjijU0H4GId47WCDF4/nYY4/NpCPoC48TEukXGVttZZH1la00rB5kDckCDOdRN59zzjmFGlqkc+I9gwWW5HjhZuWbgPFRIy908p7QYwkKrVwZaEgfiqrQBxrCAdCMhDZuEK9D7U6ib2ZLBFW2mFi6dKndPuK0004z5EwgkQixIySUYHfjjTfe2GqL0Bgxg26xxRY2TPxDH/qQFXinTZtmiKOn7+D3CfB79tln7S7FuNR3kd294IILvBlZCY/+4he/WIiWNJDI+spAw+BBFD7QoCrEk3UQwZD2zbQZpQaOhuRDYCsJ3NtRh+LCDgC02Hdff2XVkZ1l5MiRZsKECTZc/KabbjJEPv7ud78zpMwCVIA37ZsH5dzVV19tNtxwQy89nXDCCYVyPUtQaOXKQMPsqvmcMdgQ2KAMXNp3MsM/8MADZvHixYbdi2kz+6lgpWZSyCL0Ks+jYCFPNpGyZNs/6aSTrJH5rrvuMgjVjE1aW9p8jomAicHXb0cffXQhtbMGEllfGWiee+45NfCMfUkGcQCZtVGnL1iwwJx++ulWHYpV2sdz+wa7jjpSY5HBBZclWLtFixbZVWhQWDnNVkMfkoyjyE55EhRauTLQ8GLNsAnP3ubZLfltDigoN/ByQA6B3YIY6yD6Mt+BLMnWFgCIMPSbb77ZPPbYY60ei2XLlqm7ph100EGF2qGBRNZXCpp9993XS1AMXJIw23jMSnjrrbca9vv88Ic/bDDGViGXlAmKPM9addVVLYBIakJcCoqFNso/y5cvN7vuuquXnpikiyRHl6DQypWBBm3RuHHjvI1ka4U2AgUbEy5AbNOOUQ2NVpeAkgYqXFFWX311ayQknwPZg2Cx2zI+WPu1EJP99tvPKj/yfrMGEllfKWh23313L2iIg8jbwKqvR9MEy8Ie9kSUrrLKKt42pBHgoJ9jglh//fXttn4//vGPW5Ei+KGHHlJdadiGsMiGthIUWrlS0IwZM8ZLcNRXDYLQ5xNai/2Dvesxuvp2NSgLFLBGaNlwJUJdTPI7LN8nn3yyzZmAQQ919ZQpU8wnP/lJq7bebrvtrJMr3hRlfUfWc1BssInw5ptvbg3VoX1ZxXUPP/ywyrl0AjTaSrPzzjs3Cho0R0SMsruWz/U8i6iyzgM4VigIjj1DR48ebUNykRlw9cB+06+TKt9O9p4lS5aY+fPn24TgqJfRkBGjhLCPkqJM8ANu7E6o2WFhqwBH1jOHBjRYsLMIi/MQU1YnVXnegYU8a3xDGbM2z1httdXMRhttZMO3sY1gu4Hdq7It8tkQM7YYvAVYtbDVwGoBpDJU4rBupNtCBUzb6gLP0Mg0miIAuUEOepVlBphZ8o477rDaMF/CBh/YqWMGZyWBIIn1gDVgt2q0PFW2Ie+z8VLAqIl3Bu71aCxZ/WBBtTZm1dN2JgdU7+zwUIfCgGTnWppatGesSHn7SJNhZH1lMg0vgk/P6njO42OVt4FFrwcwbK2Of9I222xTmGggGBQE7P04depU60OGRwDEWfTb6rrPTRhz5syx8hPbnrAC+cbIV4fHA2pgdoPol93U+gCWdocddvB+K3aaIh4mEhRauTLQMPtMnjzZ20jYmTpsAgDmu9/9rl0N4PV9hJBVB4G85z3vMZ/61Kds/mCyhg4CULKIEQAhD+FlTtQjaYGLsqkjRoyw7kPEs1TFrsHqEjOTNT6cR1VOCuSsNmed10Ai6ysDDUZBtFG+RqKp4oOyGlPWeXJnYWvBJ8v3PWl18PDMpueff75B/YoDZFnf1YbnQOQYBMk7hxwG+1ZE9qGfYFOr8lonSytKjrQxcufQMmIfzNuvEhRauTLQMAtj73ANSvtlhqpjpdlrr72835H2bbBhEBCaNazkg+gjl5d4Vq5caQMHZ86caWW1tH7RzqF4QH2f993a9YCRpJK+96OeL0JPGkhkfWWgYQZDw+LjmXHl1jqr33piWPD49XV2sg4WBbCce+65VsgtMnP1+81N3s+4IZ+w8iAjoCxhAkn2ke8Y5QiscNltIAbJt/UkrD6KmCLvlaDQypWBho+HYM8888xUp0ZcaOqYvdn0BzbQN9CujgFnloUvJoiuKv68yMDWfQ9qeYiHJHyMVShri32qaDCYr43QCq7/sIFuvJK/eJcgZ/qekVWngUTWVwoaPhKBkzBUHB2Jn2Hl2WeffQppObIa7TvP4OO2n+xgeYwRkFRSCxcuLNTpvvd3oQ6CZTJBGaIpCyDqMjZaSus3XGSQL3kHIOaPsYNtu/baawuPnQSFVq4cNK7xrDpEEjLzQ8jufB2/2CjSZigEXuws06dP73uPkzra0fQ7sG/hwOpj2bDfFFH7hrYNHzRkZeRUHDgR/kngEnp/2nUaSGR9baBJ+9i6ztFoNsl961vfaj154X8JncX3Da+AOoxzdbW16vfAObCSoP4liNDJOxhLsbtdeOGFfRFw1d+f9nwJCq08FKCho+iI733vezZmBDmLHNOoWute9dIGbdDOoRklKyorOMF4sNvIGzfccEOhGP2m26+BRNa3CjRoqrDaY8hCA4Nz4BVXXGGdHNkqHasw7F0RtWLTA9PF9zPhoGkjxHiQx0SCQis3DhpkHSIjmf1hofCMHjVqlHVHhz9G5iCsGBf67bff3s5quK/gCgKI0HJ1kSBjm+rL0aaBRNY3BhrAct5559kNbInXQM7QNDNoveChcYXB6ZB8YDhKXn/99QPt0jLMAEGtj5cFiT7QspKohP1oyOoza9Ysu4WGSwJSlQlAgkIrNwKaO++803qsEl7rBEmpBg4tAzQ2KyVJBJqVYSbAQWo7kyZy5f7772+5CrxDMEJjksA0gXqbID00ddRhcOZa8p+V7XGggUTW1woa3DTwb8JLONRYlgc82IIuvfTSuOo8Xx9rkxeomB0IKdh0002tGSDUz43JlWsxHcC2Yzcij0Pe96ddL0GhlWsBDQIj8gfxEGWDRYKKGYqk6qw6VS3naR0fz2UDFSUBKwtya5k5FxhrWDiUEf1oQTWQyPrKQYM1mbxaPr8hSfj9lmHZyExCgFQ/nRmBkA2E0L4BLDhbosSpIkccIGQyxleuaJSsBIVWrhQ0aLZwy8d3qV8g5L2fFY2YeQLE4orTP/GHgiR5Hew4IRVaDua8Y5t2PTkeiA0qEgyngUTWVwYaCBWWbLfddssNGHhXrM1oyNZdd10rA7EU51UasOKgxm579sgkoXXlGOIFMMguaURexTlME6TczQscCQqtXBloWJaJCAyVYbgOgOBTRMgAjZ83b54V7FFFwg+T4ohQZbQroZ0OcE455ZRSBMauEHTV7cBITQg0RBw6TmVdh5IAVx7cfULbqYFE1lcGGjLo42of0hmoGZFBUCfCTqX5giGb4LJPiO4ZZ5xhDaChPDLaOtTcoZ0YryvOzjFOt9xyixpl6aMLxpVwjlDNmnwWdj/GO5Qtl6DQypWABs1VyCwDuwW/i9cqqshQVwwEPli/448/PnjVwTkz77IdwZMfPOymgNInlJVGkMe1f9KkSTZKFkM122oAPJLNQxvUQU+hIIJrwbOEvHAhY6iBRNZXAhoyRIZ0GjHfrBx5ltJkJwACnASRf+RsI8uwdPixJe+Px/lBofUZLk6hxI3REuEd7gKfQogzqe3kGFaPOlI4zZ4924InhLZYrQCb9r3US1Bo5dJBQwOx0EuilWV8yZgJQpfQrMbTsUQX+naR5t1u9kkOStYz4/liYLrvvvuCWHJARQ42dmvL4zvItdzDvSHARJ4l5F4bTw0ksr500CDAa4nokHUIaNIaE1oPW4cngNaRKBrwYwp9brwuHDxMRhCznBxlmcmLzKv95F7gXYQkhKw4ZAPVJmYJCq1cKmgQ4MnPTMfIznJl0I92rOz8AKRiZf8YX0eitiatVFxtwsEQOnGw2muKH8aecOWiRsjkt8DREAinTZQomX796197J0oNJLK+VNAgn2iJxGHL4GGTHVDGMasNMTi+VLMAiiyN0W5TLmiYhNjVAFC4yTHtl2SLRdLGZtEHqbVIGZX2LncO2Qav6axncF6CQiuXCho0HZpQjqBYlRaLADZ2UXYdlvaLpga3Hl8nxrp8oMK1nwydaf3tzrEiYG/LI8No48BEiZnCZ7djoiRnON4JWc/TQCLrSwUNG4X65BnqrrrqqlI7LtkRdMznPvc57+ChMGBP+uR98TgfSGR/ISciLzqApP3i2l8Fh8HKRfqmtHe6c2jp2NlNfrcrS1Bo5dJAg2CHbtwnU5AatkwFgGu0+4VNwKjqW+1wLUeucffE3/4AQ/+RhZQgQkek8pdVhuSL/Qj/WeNEbM1ZZ52V+W6+BbmG4LasZ2ggkfWlgQbBDE9W2WHJMoJ6FbNNsjPwdvWlLwXUBKxpGpXkM+OxH1iw3ChZkmOdPMaAHaL6LdLPjCPGUICRfGfyGAMqqaeyni9BoZVLAw3LpOb+X3Qj0azGpp0nSTkCZ7LT5PGBBx4YA9VKDFTDiOhjy9mWBKE9bbzKOHf33XfbyE45zq7MRAkXlKU11UAi60sDDYZKLQQAnTnGKZbUqv7ILo+GznVY2i+zTtkq7zIGf1CfQRiyT3OGEy5KmqraR9yUxuWw9WHWmEtQaOVaQZNGwHWfw4bEHjORPfOzXHkIXAPN+PHjDdv/5XlmnmsBjbbhE/bDrNwCGkhkfWmgQY2sfXjdAEl7Hwa4OnYryDPog34tNhpfGDOzfJXsGc67ZCZKG293jriu1rFneANo2jPXgCZ/CRMouiXDoBN3Vd9Pdk2fNwCu+lVpTeEYiA5mXLPoCu0dWUCz2i9XEq1c2krDB8H2+ATCrEbVeZ4BJDlhVgfG8/nZNuKbfNor1PzY56rYbhE55eKLL/a6bmH89HEXGkhkfamgwVnTp6+vExxp70KeIQkD6vEIjvzgyOoz0gf7ZnrGAuVLFVsvMpawh2nj7c7xbVdeeWXmmEtQaOVSQYNreB1JFFxn5P0lGhCPgagEKA8wAAmNqDbuJALEfSlLrsgCpO8844i6WfNGIE+BTxGhgUTWlwoalkrcvn1eznkJvczrcSbtdy8T3wN2rqkAAAr3SURBVCAOax3yLEognzcI44hROS2UvWi/8SzyRvjeizyz9957e6OCJSi0cqmgofGXX3556gZKZRJ/kWfReag+s3T1RQcu3vffVQvliibPstLPnz8/k03K25e45vicNaET8n5ru6RpIJH1pYMGL1bN47UI0fd7D523YMGC0gYs7wB3/XqcZTUWjTF0SoF++wPFggZS3jdy5EjVQViCQiuXDho6g41KfUtmvwAocj8W4zL56X4HvYv3E+8fwpozgZF1k1U/r3zJPXh9+JxyHX1AgyGb5mogkfWVgAaNBkkz3Mc3/Yv2ZPny5XGVKdHfLA30eDETTRky3uwYQXAYRk8Sq/jAQx159BhDEuj71NvJd+NVH6IplaDQypWAhg5lqz5fFGWycVUes10DvG/aIMdz5WrR6E/SLoWaHfBXw5KPnYeUTWhfSeVF6Dp/HHMO4yWJzvEp9Pm4JemI5C6sZiFjrIFE1lcGGpbRE0880QpiycbUecyMdMwxxxROERXS4fGaFwMPApsxY4bdWyZ0rGHpCA6EhWaTLlIJ84dX/OjRo+2W9ihyQp8HaIkiDjWmSlBo5cpAAzGRNJAk5CECW2iHhF6Hpuaoo46K+QAqZsnSJg32jTn00EMb0aICLlTbIWyZ+3YNJLK+UtAgeGP4Ouigg2ya0VCC7/c6hEQGDXd0H6/sOi3+vni16Lc/3Ljj71XnhIlmjvATHDhDs7XSVgkKrVwpaPggPp5ozcmTJ6s69X7Bwv3sZY8Wh6C4PB3XL6HE+18MPEwPyCME/KEtK2Nsfc/Ayxp2btmyZaqKWY6VBhJZXzlo+EBmHgQ7NB9VKgcADD5GRdPcys6M5RcDIW9/MO5MmBMnTqyUVYMVRwZCu1ZkopSg0Mq1gMZ1NsoBtGpbbbVVkD7fN7Mk69CokHHx3nvvLdRp7vvib38gSes/2GMMn3gisydq2fY7/M7mzp1rk3YUZcU1kMj6WkHjOpUZiO3QWXVYuiH6PJ2JtoUkcMRw4PO0cOHCINWie3/8LR8cIX2KcI6vGDInsk6IITQ5OXLMPbBiaEanT5+eS+DP+kYJCq3cCGjcx2OwYmsF4nDQ16+zzjq2QwESoKCDABQdzBIMyHDVIFED8RGLFy8OWll4DzkMkHOIMC2yhLtvjr/PW+UK6lw4BybAvH0Cq3722WfbXfI22GADg6ETIT5t4uQcdVzDtURgko7J57Wc93s0kMj6RkHjGseySqzFjTfeaPXrRx55pJkwYYIZN26c1dujQsSlnyTnCJehnrI8lzy+p512mo0q3XHHHc2UKVOsIa2MfMLu+4fplzj7pUuX2vxyZMxkzABBEfAwjgjubDN4+OGHWw95bDVkNdp6662t3QaveermzJlj7rnnnuCxzzMmEhRauRWgydPAPNeyGxZu4UnDGKsXDqXMdAiOoQawPO/t4rWszhAtRkOcIB1rxQoAp8D+MUVlCtdfjMWTTz5p7XusJBzXMT4aSGR9Z0Hz9NNPW61Nlp2AoChWMlavuOr4ZRxYWlYVMv6nJQVkUkK1PKhaSwkKrdxZ0JDIgfzBUpCUZWQkWLYHH3wwN2/uZsgu/8I+feYzn7E7bcu+S5ZRysC2DWJfaCCR9Z0FDQ6AoXE9BDLBS1900UWZubEGkRiKfjPyyf3332/d6vH9CjVODmpieQkKrdxZ0GCzYYuF5GzoO0ZLA8tGUjmE2yKCbVEibdN9EAz7mKI0Qa3rZBdf37k6tkFvU1tCv0UDiazvLGhw42DrD9SVblBDfiES7AhobQiTHRZ5h/7CmwJ1PitvHrDQr3gph+6mHErMdV0nQaGVOwsaOhxlAJ4CeYHjwAXhEFR13XXXddK+A1BQIRM6TMYW1+68v8gzbK40qPYvDSSyvtOgATgY4DCE4m6BwTQvQXA92qExY8YY2A88p1GFhtqK6potQ96DShgCwCaGipg8ddhD8q4qrg/RTKJIQQ2NATnkG9p4jQSFVu498sgjuV2j29hw7ZvIqsmqg3LAl3fYEUTWL/5TeGxjbGMvHLRLgKitsyyyGd+HuzyJRTAk4kCJc2toFKTsC1ZuwtkxOrO1CROT1v9trtdAIuuHBjQMGqsDfmqAZ4011ii06iQJCLZk1KhRhlzG8+bNsxsXsQlu0wCCiHEZws0IjSDfx3cWBUmyzRgzsckAljoMj3WATYJCKw8VaBgAWJQVK1ZYlgKWi9DYNJ+nJKGEHOMbh/c2AXeEQODVixYOKzpuJgxEFQTARAC3wIrH+/D4nTlzpl1N0B5mGXdD2pS8BuUImwDPnj3bvq+KtjT1TA0ksr6HxkOe1MpNNa7M95I5BbU0bBY2mqSrTZJYihzzrLXXXtsmgkB1C7EBJrKvECCH0MzmruyrAsGjsGB1SHND4TwWeZJM8L3ch+BOshC8fMmRzPN5D4kn0GIVld3S2srqhJMk8hxyEMqDMsehDc/S6F3WDy1o3GAxU+MEygwamn4ojbi0cwjbuKDgqY23LrsXsBLgnEh4A3u4sFUJ+5KOHTvW7LHHHpZYOQ8gttlmG3s993G/C6vQ3lu0HhsNbjMoCwhZ7yJYHA1IUGjlHqwDakftwmS9e1mXfll5cKVh5cEhsSix9XMfbCJ/AKwMlrHIt/Bu9iy94oorrN2FfklbAbs09kna1o7BSu/RRx+1Bjzt4mR9lzpMtoUZFZaVlYdkc0XVsUUItsl7ACntRXFAsFjTygw5LlWWk7StHWPs7qHteeqpp4Z+pUkbFMJ0cSkhYQPsEKrWroCIdtAeXIeQiwhDH3TVcdoYhpzTgJKsBys9clQBnGSFdhzyIV27hhWZWRjfNAylZO4cNADxvXw3W44gM6Fpgwi6NlZ526PRe7IerPRYiiEINDTJSt9x3o/q0vXYJkiTevLJJ1vCI/wAEOGv1ZQcksXW8T2owkeMGGHDJPCnI73rkiVLojd3Iomij9aTdWAErPSwFoMeCskLfMddAkHRtiAcw74Rt4M6lnDsAw44wGq68BpgRs8i5qrOAxLey/t32mknm90Um9Fll11mv3NYnE/zjqmP1pN1YMSuNNgI8EVCi8Zv8qKs47wfNSzX43+FkRE5CH+sqVOnWnmBGR7VMupikof0w9phA+J+Vg8E92233dZGoGKlnzZtmn0vScgxqg5qJGXd9JJF58nzSYz0mC3ha5FtMLSx8iQvTjuuu1GD+D5WIvqOyQg7B9sWsuckgGI3MOQjgHXqqadacBEdSSgDm65iCJ00aZJNgMf54447zl7H9YQdow4GGLgEES2J0ZH3DIN6uApaSKPx5DkwATbAiFUEMDvCqyHbsPS4yuRN8riKDx/GZ6KtYjVgtWdAWP5RdzMG/AIEzlPPdchTXbeZNEEHkr6TZbeYgA0wAlZ6GGvgdRkYpxRg0PjjXPIB7riJhsV3+pNfxP4p3j+OrpO/0L7DAZMZ2OCctdNwoQSOW3HYKgNvWfg52DjnORAHqPgAxb5rX985DEDj0Do0D+0DGrfCOMBYjwBYBG5i+U+uOCxLsAfcyANwGMTNhCAsEvCR2Jo/EjC4P/KIxb/YB22lAUen/Dr6hZahaWgbGndgcaxxcoUBI2Clh7uEA45bceDbEHhAHUhzvLZDIK71vMABiReS3C3+xT5oOw1Aqw4g0C+07Dgq5EhoHZqH9sEAWGAxcVwWWOkR2SeBg3KApYolCc0BaGPlcQAChbzACa2O9wNU8S/2QVtpwNEpv45+oWUHFGgcWofmoX0wABaSgAEr/wc1GXSGjB5N8AAAAABJRU5ErkJggg==;" vertex="1" parent="1">
          <mxGeometry x="525" y="680" width="56.95" height="50" as="geometry" />
        </mxCell>
        <mxCell id="aUsY_H1b6O0TGKv6YpwI-24" value="" style="shape=image;verticalLabelPosition=bottom;labelBackgroundColor=default;verticalAlign=top;aspect=fixed;imageAspect=0;image=data:image/png,iVBORw0KGgoAAAANSUhEUgAAAHkAAAAVCAYAAABizEFoAAATOklEQVRoBb1a+bdVxZXO39K/dVaWSYySaMABEUF4IIpINAgOcREhkrbVTuwOygraTjGSBASUOMQgomCQKCgIEkDeY37A483v3fvudO65Z56+H79eX9W9QPdPodfCH84699ap2rXr20Pt2ru+BYD/9FOAyEHojYCAb3+b/ymBzH7PQCQgUvXLbT/1RWz7X6BRtOm4BPQ4BKrtR/81R0gguTiPxnbGd+bVW3NpXkQX+fq/fdVPfdSOJoHaRfpotds0Z277mH4dvtptZk7xNEqgn8C4nU90zfyZ5VdjO21mTInAAAG9KwQmCDQu9hVecfsxdISNeBQe9TaGwljt4v+ff751OZ2NcAVmClYrZQNoEkXMMwHrMEpGmRUT9P2KASkT02jRbQ0ZMLM0YhQKzIzjoyVGgcAK6Ps1JlHKLEmZF3U67vm2gL02GKP0wj4mmebUmMwIXf2LXHOnDDyrcFkaMo58Fllh+iRxyCyNWWQ5PddjngokCUIA1hnHAtBjkgpMh0mq/yHrtQqT2GeWOyy0tqjBMHAYhRJ6bEAPozKTVMKqM8nGGKVDTAut1bFKkoFJYJUqTkcIDBIYZpD20wvHDH6+HzKVgKUUUgajEAULxIyTFpPUZ1GkLIqCcZxclnA7sr1sIachGPtiJmOathgFEQWktcJxJkWfEYzj1Ewf17f/Pa9Ox5GlxvQ8abDVxCyThadmcefPDbIo9F/C1YJCJpksRdpfZoEq80Igh3RbJYahLDFmkcfMsoBp6tNtiraEmNJpVA1dvxXQcTrtmZlf46WAcdJgEMqyJHQ9Aeu1iQuAi3YYVRkl4kP8a60Jw7DJJJbVF4wih34kKx1haqy7yjQJGXrWmhtVn344xhzDbHhH6UXyADGrlaYRbuCBWZYzSprMpGh5nXHiMo5jRmHBKARzWbdRgH/egjsYX56QARYAm67LAh5rzijjGCwKtacMUwliiF5yzvwvkNBLT7PS/JoFAjO23mgwyRIWyOh6TWZ5wZbn02nWTFuaSYtBx5UFFYzijNWaQ8dpmfZQngMeY5ynE55kmDQZRgn90GcO0Y1YwDdglStjLDKYR3OlhceJqqwvpRc0mWShmTNKPOZwmRZNM0etmjBwwUYFrEyIb9EsMcYwC4Ss1st0WiUWyBn6YORbDLSGDE32D/ewEL08oevY+ZtejalR1DLjvMrR0RqjACyP2e+VaoMZWkxQZpSXmZs5wSKHsXTfB4NAW98VFrIEk8u60DSg5ADzFAaQJATTFMyRs+k3WauBiflfZY4S1TfLwTgFK7Umg1jCUv/Ok9ANXNYbCfNcCwKdBii6eWSflmMXHMqto0Y/G6PT8k1/14V5pznYaDYZJYX5H7bAPLbfNC7OffOESU7HsQIycxRgBstblrXHtMcFccoMHqPMYxjBPDkcBqlD3wVTD8zFZww2HbueZiir9piIhsEBbEV1xkWDNWfcGkYKxh7YrNmxsmgZTJQkRskbToMt32eSWsWX8n8DQo5ZbZ2jjxJDLSAHfQdM2k+kdwgmAsIFh/rBBKCXhYxSMMnAqvoArLkxg0zvgHUvYAyw3kqYFGAQgmFgLSl2wYlBsNQHJk2wUQPDGByfgOnrhaAErHnHhsGG6GdtBQnAlhRFVtCy7QGqHK4fMzxoTGMY9EqgJ4EnljfxNzQMHj+e04/sPGMlMNF38dUAfYxy1DlhhJhoracsDn7D8p7AZ+9wj1F0CbpcBWPhFckriH7JWnkENktgIQWug5UBqzDWOzaYYog5xpiiSd/EM1c48JJLTuHSR5NBAZYr4DO/6ud1V23lpG9/wCeWDfDMSfD++97i48u7jZa6PjhRBze+PsSrr3qap/R98e/49NPbGSdgXNhneAS86ruLeLinwiAGRwfBjX/0+cB9Ozhl0p84++ad/MUjPcZD7NnrcMr1z/DQATDOrHeQlc++7XW++MJ+Vsrgy7+tsWv6Vs6c/jK7Zr/CFT8/xBNHwYpXYQyPBw+mXLG0m7Nu+JJ33naQ98zbyg3rzxp6pQrYdx6cMvlJ7v8SZkvSPC0PfGNti48t38FmYhXzs0/A//jFKKf/eBuv++5bXLq4h394tZ91DwwL8P2/Vnnt95+mcAgS0G2B42MZb5i8kLt2jjH3wI/eBudN/YTTrvkrl8zfzk3rTnJ4pM5EMQiGmWOE8hxxpljl8l32Ze3Jcq3DZYcRQDcCH3/ir/zlsm42J8Czx8G1fxilG4BnzoO33PQKe762Vjk6DE6dtIs73gNl7Q/f18M7p5/gG2vAUhn0PHDwJDhv5hfsPZ8zzMEnV5zg4oX7+PqGHkNTyrFkyZscKqfcu7/OadfvYE2W2wInmrmx/Pl3vMfXXj3LqAWufgr8+f2DHC2DPSd9rvqVw4Vz99FLwHNDKX9yxwE+tazFo91gpQK+/OI5ds18h6tXjjFywZNHwZ8t3s87bz3NyhA4Vg/Nute8OsyfLviUUQz29IB33X6Av3k85IF94EA/+Ma6mLOm/5kbN54xAdN7G8Frr9pgPFmpBtZrYHUUvKfrTe7bAVbOgdN/+A7fWRsbgW9+5xSPH6sxiGT5Md3AoZ84zBAzR2rilMt12ZctZLnT0QnQi8CHHlrHxx45waAC+lXQb1ptjXKB1mOsMG6BL66q8/55ZxlXwFYJXPUE+Oh9Ie+87Ri/2gNGTXCwB+y68QQHhsHDPQ3edN1b3L8b9GLQiVOKpp4Q4La/lTh32kk2RsDBMdvm1MEHf3qQG9Y1GTbBZ38J3j+vzDAF/QT8/GNw/swzBuSXX+rhgtk99Gt2HV4GI4S3N3mcdt1nPHUQHDgFLph9hIu6Ai5/YIJRAboJuPY1h/+9MmZ1DFz+SA+XLhpmfcyO91MY4a/5/QC7ZrzFsT7wqx3glKu3s+nBbEnad9V/xvVbOHEG7NkD3tv1KY/vh8HRa4BZauODOLfbhbxIhuKbEbL2Eu0r49XA7Glb3j/Pm3/wCZffA256CYyqVlO1V1fL4A2TXuOm34O3TNrOkz1WCcIauPyBEa7/Y4uvvFBm19Sv6I6A/ih463V7OTIC7thZ5ZQfrjf7vQE3j1h2m0bAbgx+sQe8feoBvrsR3Lsf/HCbx51bwcXzy1z9bMWMW/0k+MBdudmLR4bBxXeP8KllYNgAH1t6jM+tOm/2ficCnazBCBH9GJx2/U5+/gF4+h/gHdOO8+AucM5tf+ea35UYeeBLz2Z8+rGYUR284dr3+ea6jFEEDpQbDOCwFtV4ui/hTT96h2cPg/u3g13T9hpv1FKQGoKlQfCOqXt4eBeY+uCyB3dzznWjXL0cPLEPrI2BNSdmDN9sXa4HpiZmmTAR/RW1ZB0ZWrHDVGdQL6LbBCf6wZXLwXlTxrl4Th+H+0FFuC0X3PUxeMcN5/i7lTYilReIm1pUL7e8X6e0esVDHu+bmdE5D86b1suRIXDTmyOcN/NzY+Hax8pui16RGXcZ5OD7WwIu6DrBF54F/+uZvVz9/BGufAKcN32Ia9dkDJrga6vAe2YGvHXqW5zT9RZfWQ2eP2aFPHfmh1zx6NdGOGbrQZUtOBwpgZO+s4V7t4L9R8AZPz5kXP++L8Ap127i3zaD764FV/7SKnTXtN3cuE5nZBjeGmmJHhy2IvCGa7ay53Pw2B5w1s272QrBpoK4BPTq4E1Xb2XPl/a0MHge3LoRfHhOwRu/8zVfXFk1QvWLinnLa9ZaVWbwzZHvCgtZ588hlt1TZvI0g9G0WgUMJ8A7bvmCH2weYJiAzRbo1sAZPzhtFiqXWXaHjDX8+t/Oc+O6cRP5jvaCi2aFXLEAXDIbHB8CFcwsnlvhQA8Ya2+ScuTg0HhOudbtO6qcdeMx9vWAoQIizVcBH10yzhee7zeR/W8fB3/1KIy7fnTFa1x0d4+xPp3rn3/uK/7i/oDn5V20HUQtKkpX0Dh36hEe3gkO98i9H2R3N+gF4LtvFLxv7nE++UjBJ36Wc+wMuPzhk1z64B4T8Vv+MnNE3L414+yb9nD4KHjgY3DmlN2s1+0ahFVpAJz07Q3s3m8NIsgjpjo6eeDrL4A/W3jUBIBuNsIYLaYI6KYlhkXd5B+uuJBb+Wk68YA5pmxYv4+f7j5izsfDp8AZkzfzWA/M0crxU/aeAm/9wX6eOWTdTaSzZQu8964t3PIX1xxtdATbsRlceEvMBdPKPNYN+i3w1klf8DfLwfIg2KhaANa//rWJWLf9rZfzZ3SzPtRWAIDVcXDe7du55venTFT/8n+CS+46Z45p4w2X82Z9wD+vkxsEx0tg15TDXLPKHvd07Oo9Bj58734+tPAQkzo40A3Ouukjjoy1j1UBuGzJUS7q6qO2Au3n27aA82Zt4htrq+w7bY9qI+fAu2dv51PLT5mj5dAJ8K6ZO/nSc8fpVMHAAZ9/5jjvmfu2OR8f6a7wT+vftdF3C3zlmYwPLvgHfeUd4NDPFehK0K45q+uEc4WFnJkEgJIGqaLrZTs5d9pm3nLNZv7oX9/mqif7zHnVcXOW6yX2DwSc/L01PPCptUidb7MIfHjRG3z5uYMmUKs7yi2D2/4C3vKjV9jbO2GOVkNnwEVzP+WMSTv4kxlHePW/vM6H7t3KRhPc9cUxXvOd59jb09mrWoaf+XP+yNde3UunBv770l4umv+R8TgjE+P8x5fg9779OA8eHOFAf8i/fxRy1o3rOfl7L/HBu3dx6ve38NfLezk2aM+pvQfBG7//Jw4PFub8rISGtpqlC7v51NIzTAOwXgE//qDKBbPeY9ePd3Hu5G52XX+Qzz4+xPqEjU90/v5sW8o5N7/POTdv49xb/8y5t7/ADz88QiVdtn9Q522TN/DeWUd411QFeof52TabOIry0CRoJPAgSZgju/LRtdKMYRqy5tikeqbEwBB4+iB4VhZscrA2MsyQMivA3Z/4VMSovSiX2w3AsycTo9VZonSozoINug3weHfIKFGqMTDpvNooePYgePxz0B0GC9/SGB2vc6TfZsFcL7Weow4ePRKZPT1PwL4T4NkTSo+GJqs2PgIq737qRMnkgYsYjB3w6D7w613g+Ckwbtjs1PiYb+Y6dQSMQ0XMKf0gNulLWXDfcZtLNgmLBCbKHzgCnt0P1s/ZpIi+hWnVJD6UQOneA/YdAU8csrl/8TVacpiFoD8Bfvkh2HsARnGl9Eoe+Ulo1qYkjQzLC5S2vfys12UdoZTWDDOd2QIGaUSnlRqrU6pPAhUjUSHXEpk9ZXgkMtqqb2HhGGGqcFCvqtJT0HEmGIRlmiKFFtaySfhyeYiFigVKyAc2I6TKl6oweZ4xCCNWq016XkbXTc15VDle5akllFolN7/TGHSbheFBoJfGbWHEdwtWhi1tCTpTwSWBCdiUIVOJULQ0vxTGaahKpeJEk0EgGrZ4UhRSqnFTlUublp7KhW4jY+ArcaHCyKgpoKjKJA+jXLaCUmGiU4ij35n1jGEoDKsMcIZ1b5QZEjphiW6knLi17m9AyAljVNnwBpm3D+cmp1vUGat6AiXZa/STms1J5zZoCZLAZGyCdIxZbqtOQVBly1SCQrbcpgFWeWYDbK5K0wSd5qBx77ZOK5DLTFN9S5mmTfp+wypCu0yXxrnxFALUbap/zkhJfeXCfY1LGIexmSsPwCLq1LxV4lSBpMlCeWZZp3OWKg/maWrLgGZPHGOS97PRPN2ulKXM0sDwoG3I8i/Fdk2+WmspClWqWmx544yi0CihBC2vpjy/cKs1R9s5/IT18BBbRTcTOHRadUZFhTmarNQbZswVF7IK8ta9uib5r/KXLTCoYND5rcKDhKoMTXsxZkE2+X6hkN6pn5rabGYL7Goz5T6V/mQxoQXYtKvEp1Kg6tGhFa6pvyrNp2BENd62QC7QlsXJojQmtrTa9XCbHux8U8lSpcLhdn/VqDW/2tvzGfqi177AcOmFAPFx6X/Nrxqxnk6JUG2pVSwpkcWrzhwSYssKXXgKqzZeto+KQsI3/3/txwrSLstda4FG25VeE8PaU+Um2yXIi2/1U6lQJUkrXLlLUxjXYi8FxAghvNhmQJU7T2z//9VXwmyD3mk34KtNAosuWrbmMW61cwvDWvAF4E1tWLc7JEhdGJCAVciX5UlhpFAStN7RRd476+jMbxStXevt/G4L9MJtlc6apWAqzQo7E0TZCwmmlCmr1zahb3obTAtbrTKlXAlZSnaFc9cXQvfOIi7VVAO+XGInMJCgdJNDblMu2rotC6raVNgXmCreO/b6jm6SiLbAEoii37kSI4D0rSOECxYpGp052lbWAbUQIKJfMhcYDM0LdDr8SUFkufIUuZ3XzCOeRfcSDyCeDN+XehK1abxuiGi9Giee9NZzCU+dtV3A6BLlMNd6hInoSZhSPLuNGWW50P5NCPlSTb7AtJhqa31Hm80C1SagJHxZmn7rhoXA0H+BoMW0LgpVNPUIUAlEgtZb/9UuAIvMtqndANIWVKEbJsXF8eLF3I+qX2w3NASUeNOTX3T9HcUydCU496LCdXgwwtA3eRV7A8Vau2576HqPvqkcqDWLvtYpfMSLHn1v33XrYGn4lGKorx6N03Wh+kUcTB/Nd/mlxv8Bu2Vh7BAc6NYAAAAASUVORK5CYII=;" vertex="1" parent="1">
          <mxGeometry x="420" y="349.5" width="121" height="21" as="geometry" />
        </mxCell>
        <mxCell id="aUsY_H1b6O0TGKv6YpwI-25" value="" style="shape=image;verticalLabelPosition=bottom;labelBackgroundColor=default;verticalAlign=top;aspect=fixed;imageAspect=0;image=data:image/png,iVBORw0KGgoAAAANSUhEUgAAAGEAAAAYCAYAAADqK5OqAAAF60lEQVRoBe2Y61OTVxCH+//WaeulWm8VrdV2qrZ27Bc7Y2/T6VTb0WodueZ+lQQhhEBCCJck5CUQEkgIH7fzrFnmheoIWNCp+XDmPWfP3n+7ewLvnQt7pLvebA7e6wLwZgEg/10Q3oJJ8J+A8Elo8FBH2seBATnq7z9Umwc5MV4bhG+TMXmQnZBLMf+hJAUA/HMzMltbFvYHmZzD0v1aIJCEqSVHVptNeZjN/Cspp0ODwrJgXnTmzuj2NX77uuknAgOSqpSlvdmWo/4+tcm9m9d0umluHve9W7fx2/3LZF50b3p2yrh1vmz/WiBcjPqk1d6Qzc1NcRp1TYo5SGc8mJrQdX04osm6mxmTH1IJTTr3nG8mo0q7mYgKCxn4LSi3HvYkfrxSVptfPQ3L/akJlaMgkEMnX/RYQqCZXuse47M7dOO76YGfO4vHdMOH3p9Sya1Y4DE9xGA2oO9m7RsEDP2VndBkPMpltDK/SUTVQcCpNOoyX1vR5aw15NrTsExXl2R5fU0TeS+TklpzXb4biUthpSrwFFdr2lXsz4Y9YnroNBY6z4SGtkCAD7rp/3l8RHUanbdqsb6qNOO7M5bQxGAbPnRyl606cizQL9xDp6jgQR49xMj5xnBE/SeO7JKje0YjevLVJZUFECuAAwWBisRwub4qJ4IDCkZovqBOkQy64/5UWj6N+mSokJNbI3F5kE1vVfBIuah7HlgCXlpryIWobwtYKorZj54v4yG5kYjqngq0TuiJ+VUvPCTp1/Qz5QnOFVSmN5/VM7bhxUapXtNKRWa4tKA2x52ybLTbcsT7RO/NF+QsjkfZjO4ptI/8fdJotSRXdaQn6tMCDMzNyPmIV2P9bWJUgdsNAPDsqxNA+etERI1POIuCURzHseOdx3JmeUmqa2syv1qTeHFOzkc80hP1aiCDhZystVpC8O97nygIxdqKfOjv20okHZJxKqoTwHH2YsyvgBsI8H8W86vOvnx2S/b70WEthtHFkt4dD/RrlY9WSurzqdCg0gdmcmozvDCrZ/Tx1sBHV3zg61N6vDQvDztdbyDUW019D+EhDrqEWHmvvogHtZMPFARGEVVPlZBMWrPVbuuZmc+s/nNqXK4lIvL39KQ0Wk15kp+SI75emVmuavsjeyeV0CTQCQu1Fa0wq2ZASHceYCoUm4+nJ3UcGAhU5ItAQJa7ZHlBfaIwjnh7dexhF118AQ4+i4U9dMYj/KdDQ3oGJAPh83hAO8ZAuBD1yr3JlMb6MJeR9Y2WRBZm9/Qu7KsTqCQSy7y8FA/I1XhIvwTAryXamM7wzE6LdzavgTzOTcoxf7+CA19joyUng4OahNXmulTqq9tAYKT9mEqqbHKxJM8WSwoeY+pVICB7Kjggt0eHVT7tVCRSnJPmxoYm/GwnuYwQNwiABSDwwZ9fqao8j/Lt0ae6n1xyBH/a7bbGShEQa6w4p0VCbNGFWeFX3IF2Ao9s2lmU+9m0nAwO6GPJ11OY1lbm8WRGpyol5aOCL0R8QvCnw8+ra7i8oKOLZLFn/pOEW8m4yvBFD6Mu4yzqYo+d3ukpSZSLyk8S8OX3ibFtsjzs5yIe+SX9TMYqJU0YfjC3SQ4ydzMp1fHHZErP+MeMh49iSjlllT8THlJfiG+66ohvdkbB8hbycio4qDzogx8efkGh60BB6In45HIsoA5rsGGPzkASAt2CuRIPytV4UH/lQLs2HBbeA6qFyoKG/JV4QC53HN/S3QGNtwQ9LPYAgx0W8iTVfHHLkgB0G838QJ47k0EHv8I4q0znDL/y4Ae6Onaf0/1yMUqsz33AhsVqfu0WAPj2NY4QJBgDwAxytiBtb3w85szOerMpyXJR561bzq3LdHC/U4+bZvJmg7Nb1n3v5jE+s2k2jN/OO3UZ3f01GXh32rC7V333DcKrFO+8x3Gq5HoiqhW2M8Cd/O/S+dBAIKlWQV0Atv8lfaggvEvVvZdYuyDs8v87e0nqXnm7IHRB2D4b91pB/xf+bid0O6HbCXRztxPegk74B0kOD0GkRO2kAAAAAElFTkSuQmCC;" vertex="1" parent="1">
          <mxGeometry x="590" y="440" width="80.83" height="20" as="geometry" />
        </mxCell>
        <mxCell id="aUsY_H1b6O0TGKv6YpwI-26" value="" style="endArrow=classic;html=1;rounded=0;entryX=0;entryY=0.5;entryDx=0;entryDy=0;exitX=1.04;exitY=0.605;exitDx=0;exitDy=0;exitPerimeter=0;" edge="1" parent="1" source="aUsY_H1b6O0TGKv6YpwI-2" target="aUsY_H1b6O0TGKv6YpwI-12">
          <mxGeometry width="50" height="50" relative="1" as="geometry">
            <mxPoint x="289" y="281" as="sourcePoint" />
            <mxPoint x="440" y="160" as="targetPoint" />
          </mxGeometry>
        </mxCell>
        <mxCell id="aUsY_H1b6O0TGKv6YpwI-27" value="Browser" style="shape=umlActor;verticalLabelPosition=bottom;verticalAlign=top;html=1;outlineConnect=0;" vertex="1" parent="1">
          <mxGeometry x="20" y="160" width="30" height="60" as="geometry" />
        </mxCell>
        <mxCell id="aUsY_H1b6O0TGKv6YpwI-28" value="TO" style="ellipse;whiteSpace=wrap;html=1;aspect=fixed;" vertex="1" parent="1">
          <mxGeometry y="310" width="80" height="80" as="geometry" />
        </mxCell>
        <mxCell id="aUsY_H1b6O0TGKv6YpwI-29" value="" style="ellipse;whiteSpace=wrap;html=1;aspect=fixed;" vertex="1" parent="1">
          <mxGeometry y="490" width="80" height="80" as="geometry" />
        </mxCell>
        <mxCell id="aUsY_H1b6O0TGKv6YpwI-30" value="" style="shape=image;verticalLabelPosition=bottom;labelBackgroundColor=default;verticalAlign=top;aspect=fixed;imageAspect=0;image=data:image/png,iVBORw0KGgoAAAANSUhEUgAAAHwAAAB5CAYAAAD700UNAAAgAElEQVR4Ae2dB3xc1bH/LwkvJIQHgQCBEEJvphtTbLrpoZliQu+9N1PdbfXei2UV94Ix2MYUG9xk1a3qktVX2tUWFVvFKpa+/8+cu1cWfpBH+cMLRJjz2avdu3vvPb8zc+bM/GaOBjAEdO8eorN3iD5gD9DT1goD/Qx27oTBfhjYDUP96nhwz2466aKT3fQM7WbPQDv0O2B3FTi2wJeJOFJeojbpebq/iIGGr6C7GoZaGaCHXfTTA/QC/b396gb2MEg/e+hnQP0blLsY2gOD0gZgSO5sN9DFEF1yxzDUq38m5wwNMET/f2QbpI/u/g72sFu13f27gAGGhgbo7uqku7OLwcFB+vf0owng6r8hgX0PhSWFNHrraXBU0d7uwuGqo8ndQIvHgcdVj7uunKaaYupdlTR3NOLucOFqddDsraHdW8FAYyFUbYIdX4IjB1ps7G4pprO1Gq+3iqaWMpo8FTjbamn21uNwNtLkaqbJ3YTD46DR04jD00CTp4Fmdz1Odz3Nnjoc3hoafFXUtVVQ31pJo69afeZxNuNtdtLiasTVUv8f2ZzuOpq9dbh3NtHkqVP95vE5qa+voaG+jr7eXgYG9jAwNGgAPiSixkD/Lq6+eTxX334xt957OTdNvoRbHryCa+++iFvvu4ybbh/Lbbeeyz33XMSdD07gxnsu5Lo7xnHD3eO58YEruPbOC7j9tjN58M6zefjOs7j7ltO45dazuPXucdx+/wRuunssN999DjfffTY33HGm+vsWdZ3LuXHyBG6cPJ4bJ1/Cjfdcwo2TL+Ymf7vxnou44d4Lue6+C7j2/rGqyd//uGc8t991OZPuvIJb7ryEm++66D+y/eOuC/nH3Rdxw51jmXjbGP4xeRx33j+RG269jAcevpvomAilxUWk90o4MEgvYy8/CVvDp9gcH2BpWoTNvRiTMxOLcwHW5gUUNWdQ1JyO1ZmBxZmJtXkhluZFmJ2L1DlFTZmUNKVT6khXr/amTGzN+netzVnYmuXvDKzqu1nq+9bmRf7fWYjFaTTjOwuwOhdgcWZhlubKxOzKUn/LtW1Ni7DLfcpx84L/yGZvWkixYyFFjnTsLclYnMnYXcux1K0lKOYtUtJj1MS9e/cIla4r9F7GXnEctsbVWJwZmFoSsLbGU+iOwuSJVc3sicbsifK3GMzuOMzueP9rLGb3aPu5+8DaEkeRMx67MxKbLwCTNxCLNxWTYykB8a+QnBGhpuv+vmGVrhtue+hh7BXHYnOswuKaj6klFmtrLIWeCEyeaNXMnkjMngh/E+AF9Fj/AJDPRtvP3QdWdzRFrjjsrpGAp2ByLCEg/iWSM8IZHOpjaHCESh9iiD10MfbKv2FzrMTimofJHY21LZpCTxgmb6RqZm84w00BLxIvLWLv+yPPGT3+yfvF4onA3hKDzRWBtdWQ8GRMjsUExL9IcmYY/QOyLhoGXOCWhdAuxl75V2yO5VhaUjC5I7G2RVHoDcHkDVfN7A1lbwvbK9HesBHvjzxn9Hhvf/00fWHxhGNvicLaEq4AL1QqXQBf5Ac8lL6BbgRlv9Gmy7cO+NHYmpZhaUnG5I7A2hZJoTcYky8UkwI7BLPXaKF71fso4P9nA97iCcMmwtkShqU1AB3wJEyOhQTEv0ByZggDQz1KqH884KKyR9X5T662h6fRb5giRcJt7ggs7hA/4EFYvYmYHVkExj+vAB9kN/1Du0dKuKHSj8bmEAk3VLpIeAgmn8zjhtoeIeEG4MOGnGHQjb7uNW5/2r6QOdzqCfcDHkihVwBPwOzIJGgY8B52D3buC3jn3jncJYBH+edwUefGHG6ALvORzOHyMKOW+f9lHwjgIuVmj0h4kJqCbd54LI6MYcBlBbarv80AXJZlYqUL4Mdgc6zA4krdx0qP8BttArjR5CIjwf5pR/LPJTG/xOvIPG7yBGNuDabQE4LNG4fFkT4C8G4697TvC/g3LctiKPSIdAvgxtJrX8BlPW58NmLZ9g3zzb+ai0Y/+6F9p2tdMa7NrSEUekL9gM8fBryfbjqH/r8A7ve6KXCNgTD6ulcL/hx9EYrJF6JUublVJD18L+BxYqWHsptddLNzXwn/ISp9FPCfF9xvGkAG4CGYfRHKf2L3xmMVla4AD1OA9+wF3HC8fF+jzZjDBXRRR990M6Pv/Rz9In4SWU2ZfZHK2LZ7DMB1T1sfXSMl3ABcPG3fZ1k20kofncP/72yQMAp9oRSIY8wXpYxtuyfBL+EvkZwZrignXXQYKv2HAj7C0zZqtP2fOl9Ei0jMw+wVwKPQVfp8pdKTxJeumEbfaLTJsmw5lm9ch8sPyvpbHC/B/teRnrZR9f1zqO99r2F42sSXbpPQdUskdm8slqZUAhKeIXFBEF204+puMiTcCI9277MOF8eLRMtGOl72BVxAHp2/9wXh5/xbD55EqGiZ3ROFxQ+4uSmFgISnSFgQQMeAh1JH0SjgPycwP9W1xOlid4djc+kSbgBu8QOeuCBQSfhm81ejgP9UIPycv6tHy8JVeNQmnk93BDal0lMITHiapKxAuoc6WPvVx6OA/5zA/FTXUoB7wlR41Oo1AI9Rc3hQ/NMkZwYp+nKtq2YU8J8KhJ/zdy3eMKyeUCzuUKziAhf17jUAf0aPh9ODb6d3FPCfE5if6loWbygWTyhmiYcrT1s4Np8B+LOkZIaqBI3+PX2jgP9UIPy8vxuKRZbKHvG0hatg19cAzwhTgA8MDIwC/vMC81P5KfSlsmkY8LBhCQ+Oe47UjDB/AtkwiXF0Hf7LBt4APBizT/e46RI+DwV4ergO+NAo4L+SgM8o4L8SIL/rFGAAbszhhkoflfBf6UD4NqNtFPBfJeBqWea30r++LNsH8L2ZJ6NG2y/ZaBsGfOQ6XDleRgI+MDLVSAd8gC4uuPIY7I4VWBVr9TtEy4QP7afJStRGNW8Y+k2IqpHjb2vyuT7/7A23GvNWiFpbynd1MIyInJxvEC/kPfn725pxnp9Nq6J6xvUkxOv/LXUNuZ44MPzPIK9few79XtV7XztHV6fD7/+P74R9/TdHftd/rLOFdFawSeUASGqXPLfxzEYfjHzP6B//fX9Nwg1f+jyChpdlArikGkmesMoNlyIRXwfcrHjpRjKhzlqVG9FTjvTOsngisbijyGkMpKgtBpOku3jCqeiOw+oLJadxNgXOIMo7EzC1iDdI3ptDoStYeYe2N86goicKc+scTL4ALL5wClzyEEEUd8hvhVLglNi7v0N8/s5QCYzR/oElnxugy7H/b8WZN7JbY3RKtXSML1Bv3qBhFW9R+VhB+uB1R6GeS4Eu9xLsbyF+8PRnVgPdG6TuVR8owg+XwW18Z8T50k/DTc6Tpr8n6dcmTwyF3ggKJVVImiyvVAKn/tzDg16lakeg7tc3V7+2//7MnmDlaSuUtCNvPOamNILinyMlI1SVABGcRwA+xACdXHDFMRQ1rsDmSsUsCWrD2aMG4EJZ1kecekgZFO4oynbGU9QaRUFzMLmNcylonovVG0xxWyRFrZFsr59FbuMcynfFYfOGq0yJ6t0pWD1hbKl9H3NbgAK8qD2WorZYbK3BlHSEUtIehQQE9OzVCMXOVNf3xGJxx/o7WIDzA63AlL9FgkWyJV89Tk9rlkiSnOcLwOyb6wfdP3BVtkYwVk8kkn5rlU7zyH2GYvWE+Jsch+ufyTlyrjcYq3xXnSsZIOLP9r8nrxLUkMwQ+T31m3qWiP6+fCYaJZJCTwwFvkgKWgMoaJ1LoS+CQm+0/7kNSReyiQxGATwAq2+Ofm1viLqmAC6cNsnnt/oE8PkEjgR85Dp8kB8DeCQmVxD5zbOxecOw+8LVDZR0RGD3hZHTMIuGPWlsrZlGnmOuGhiFzeEUNEVgccVStjMFW3uUGkj2tgRKOhLJd84mr2k6FncwuQ5JgRXQBXCdjCEgWqSph5cHDVQDRrSESR0Hq98z+aXHJNQfyZ7xSWJkAKbWuf7zZaDoanEYHH/qzjCI/wMsGQgCnDQ9cDH8qgZOIFYBxBvoHyg6sPo5Ao6kAhnniJQGU+iN8gMeSGGrpAv5izCo+xa+oF+tK60g0438/lz/gAzDqlT6dwJc+GySLDz4IyQ8ErtP5o0wikUjOEMwuULVsXRasaQcO/WHL+2IUhJucoZR3JpAsS+J/KZI8l3h5DSHkNckvxVPgVPU/iwqumKUFO9V6fsCHqnUuskXRKFqwYrQp6tEkRJJd45W6rHQG+7/LIRCn5wnTaYImbsNNatPIzKVGBrM4o5BbyJdIpF6sEKp75HfUwPHr+KHpwjDLhjx+8PnSaWGAMzeIDWgRYUXSqpQqwxWXc3rA32kraIfW2T68wao+9EHnvjSvwPgkmCkw/1jAI9GJNbujaNiVxrWlgRK29Io9qWyrTqY0vZESjtiEIm3eGSuD6W4XebyGeQ2zqZsVwIWXwxlXfOweRMoaUvAJp3imUtldwwm9965Vgj3ukqP1kFQEq4nOupqUACW+TB2RJO/BXQDfDn2/61Up6RLRetzqgJDgJB5W8CK8oMtAy9q2GbQ53y5R5mH/QNBzh/Z/OraIr8t04+hldRU5L+esjNkupSkzQg1CJUWUjaLaDXRSjLtjLBN1LQkmiFQDVSZUmUq+c6AS97oj5LwlngqO5aSXz8PS1MW+XXzMTUswtS4kK9KYijxLmRLZSgFjijyGkMR6dbnRX2Oz28OYp39bSp70ilqTVRzXZHwrJ0z1eDIa56tOlIMM10ly2jWjR5Rk9LJ0jHGvKcD7gdZABUDSLVwP+jy2YjP1Vzvr2KhbIAR87vKnTOqXIgNIFRgMfr85yjAovwqd2RWrW4b6HlqwtsfWQ/HXxNH3lNGWCRq6lFTlkw5IuHyTGH+5x1hoyjbJMh/fZFwvR8sEjj5rhL+owF3zeP6+05n/8M1fvNnjf0O1dD+oPHHYzQOO0nj+LH78/zUm/isMA5n/5fYnQvYVBZIbU8m60xTOPkKjbdiJrCtPoj8plBl9JW0hWF2zaF0ZyRlnTHDgJt98rCiNg1DSjdYpJNEPRdKeHBYdYt6nE1h20y9tc7xq3GxgGWAyEAIUp2qDDxZBimDbo66hm74jVwSybFY+XIPco6oY4O1a7yv39/wSkDOVdIpA2Bk4oYMghFcfiMpUw0oUc3yO8bAkuv4Vx77AC4D0FgZfCfAdbD3KBn/wVa6cz53PH4x2iEaJ449iGvuOotzrziWcdeeyGkX/4mDjtXUZ387R2NGzCOUtKyiqEVKTCWyfMuLnHKFxpMzTqfQFUHZrkTMLaGUdUSTUz+TguYg7D7dMtXXq/qSTZZtYvzYPGIJ62tqPaXZb9wpbRCAqW0GprapmNqmYWqd5ZeecEwewwj0S6XR+aqTpYP9AKkONtSpnOufT9XACBwBorwvTQaFfNcYAP4loALe/30DXHVN8RXIQPDbCTJFCIhqiToHixpY+15HtIysNPSBYCwDvyPgBuT/eg6XDFIx+VXukt9iVHQaVwR59bFMeuIsTrhgP1ZvC1C10uzNS7A0LqTItRBrUyazEidzxuUaBx6rsfDTd7E6k9nRmUZOXQDVPWlYPTHkNYWqJZnZFYZd5j1nFPkNEezoykRKU0kK7OaaWdjbIindFUl2/VRK26PIdwRT1Z3BhtI5VPcsorIrg221ARSLgdgWgK1tDtmN71DRHaPixFZPAjZPCgVNseQ5xOKOobAlksKWcPJdgWypm0FldzqFLVFsa5iJrT2E/JbZVO5OZGPlTMp2zcMu13UFUtwRr9a8JR3zKWhOIL8pjgJnLFW70/lqxwyKOqIo3ikqO4hCdzBF7eKfiCW7IYiSnYmUdyWpXLDs2jBqdi/B5k3kE/sUdvTGsqnmDXb0xZDvnEuuI5ySjjTKO9PY3hhIya5otja8T5HYRcreCPpuKl2WY2K2ySz+ryT8fwd8DCeM01i9fSo2VxL2lhQszQkUScqLK47cmljei7qVg47TuO/FcWywh1DbvZjqzgVsrgwktzGcmt5MCpvDKHCEU7Uzi1JvJsXuTPJqE8iti6OgKY6a3gVYvdGKzlPRGYe1JVL9xvbqBMp8y8mvS+MzazAlvnTKO9L4qmKaWgYW+WIwNUdjbk6hyL1QFRks8SylsmM5pqZkCpvjsHri2LF7PtW7M1ljmk7DwEpq+tLQbYhgCl2hVHYuxO6drwZKfnMYhc4oilvTyGtIwe5eTNWuD/myLIoCR7J6v6p7PpurZ6mBll0XRF5jNOU7F1DSlsnW6gi+qgiksDmeql1L+Dh/Ojs6l1LTs4DyXTEUtQVh8wVj80VT0pbBGtMsSjsysYud0yqDKBh7ezi5TbOUA+Y7Sbg42gzQfzjg8Ux6fCwnjN2f1dkzsLkSsbckYXHGUOSNwuqKpK5nGbk75jPh5uMYc+mhrMuNIqcqjaUbZnD2xP14OXA826pDKPIm4uhfwcfbZ3LbYydx7Pka2sEap12ucfszx7N82xQquzJVdoVNtEJtNNvK4pkSfCfjrj+S3x6hcdqE3/LKnOtZlx9ITedKzI555FYnYW7MInXVFC6fdAwH/V1D+6PG2VcdSMSCp8mrS6Zy1yI+L57N29HX8PvjNWYm34XJJd5D3dtn9yViasrg0rv+xPWPHMZa81TKOxawuSKG7B1pXHv/CRxxpsYBx2qcfuV+vB11M1uqoqnpWYG1JY2KjuU8Pe1yxt9+OJGLXuD+Vy/ijydqXHPfUbwZegOHnqoxJfQGzE2pfFb0DpVd8eQ2BFLkS+W+187i6vuOZNFXb5DTGMXWugCKOmIo3inaSV9VfA/AddB/OOAJTHpsHCeM/R2rs6djc8Vjd8djcUYg1ra1JYTt1aHYmhby2Os38Ns/ayxaPxtLwzI+yY3jr2drPDX1Qoo886jamUnyh09y7tW/49hzNO597mKmBN/Ftff9nWPHaWq+z9rwolLxJd5UPi0I5paHT1XgXXjD0Tz2xkRue+xM9jtC4/zrDmBbeTKVraup8H3MU+9czZGnaxx+qsYTU67l2fdu5MwrDmT/ozRue/JktlTE0jy4hqzPXuPsiQfw6JRLKHQkYGmJprY3U2mND7cF8vcLNB5682y2VkUpbZH16dv8/liNP52sce+L43nq3eu58q5jOeRkjfOu/y++LImi2L2EvNoMHn/rKg46XmPcDX/hxgfHcNez5/LImxezcvMMTp2gccujJ1O9czV5DZFU98xXr+tMsxhz1X48+MaFZNfEUdu/VE0LttZoJem6zz/4u6l0XcJ/LOAi4edx4gX78dH2d1XNsCJ3DFZXCMW+udjcsylyR1LiziB8/vNoB2qEpj2CuT6DzwqiOOFCjYennIu5OZXytiyefv8iTr7wNyxcE0JTZz455cspda9h7rwHuOzugwlb+E8KGmPJr0vkmXeuURogMOVJrE0rqGj7kMKGdN6JuokTx2s8N+MyChsyiVz4DH88XuO+l8exLj8Su3M5O3Z+zOayeB5/52J+d4ymtEJ56xLW5Qfw0Kvj1UBcb5pLZUcW2TvCyatN5K2QOzh1/G9I+fB5Sr2LWLZxBhfc8N9MuO0wPtgciM3xIRstaVS3f0Fk1nMcdZbG8zMuJ69mHkXOZbw862b++ziNh1+7nNVbQ6nrXEepZwnFriwenzKOg0/QWPlVAGZHCmY1JaYTvvBhNXjiVrxITn0seU0R5DiC2FI3k3xnCMXtsor5zssyiaGI6+Vfu1b/9Rwexx2Pn8WJF2h8tP0t7C2RFEnZTmc4xb4gbO65mBwhbCuPHAY8IPle7E1ZfLQ1kL+fp/Hy3KspaEhR5PmHXjuPw0/WSFk6hxLHl5iqP8LcsAJr82Ly6lL4qjSMUl8Gm0tjOf2SP3LHoxeTW51FiW8JX5WHqXn2E+sMLpv8e+564RRMjgW8OOd6/jxGI27FC5T4lpFTl0hufTw1u5fxZUk4Yy7/L865+g9K9Ve1ryRt9bvs/xeNoLT71MAqaslQxuhND57KJTcfwdq8uTh615LywZtof9J4J/QeSpzraOzMJbfiQ+o6tquBessjp3Phjf/Nx9uDae79krufOV9po0WfTqeydRU51bFYHAmUeuaTsfZlDjxG4+2QyZT7linQ5XknvzCGi24+FLMUEvamkNccTGlnrFoNCOAqYPVdAdfh/t9dq/8a8BjueOJ0Thyn8VHOm9hbpPZnCtamBIo9UhIykoaepZR7VvB+6CNo/60RkPQAloZMVm8J4vQJ+/HoWxeqCsu1XSuZt/oVBfjvj9QYc8mfef69W/lgczBflcRR3fkBRZ4MZdAt/vxdtd5/cepk8uszlOUtVrfNp/vni1vnYXNn8ak1kismH8X5Nx7IeksoJa0LcAyuVEba9oZATM5Enp92Pcedp7F62zTszemsyQ5j7DUHc/9LZ1PsWkDtrlXELXmaI07VmB3/AFVtS8mrTuSJN69Sz/P0m3fwxGt38sgLd/HC24/xyAt38/L7DzPxjjM48K8ai9fPJr9qEW/MvZ0xl/2WRZ++RaEMuK40zE0h5NUGs7Usggk3H8F195xEXnWaKsqz+It3OHm8xrPTJpJbNw9lKHrmUrwrjKq+eApaQpQx+Z0lfC/gfgm/8q/YHcuxuvZWYpRE8wK1LIvSl2ZePWas0lpcEeTXR3PHk6dw4oUi4W9jd8VT5ErF2pREsTsRmzOe7IoYSl0f8NSUm5RDJmHpCwrwVZsCOPkieaArMTnSya6Kpq7rI9JXT+Mf952rnDmyvt/vcE0ZNQ+9fh6bS2Mo9SwkYenzHHyMxuyYZ7G3LMTkksiYFJgVV2Y0ZlcC5uYMcmszuOjWPzHu5oPYWhVHXmOcsq5zHRKijaC0NZ3n3r+RUy78Lz7ePh2rWO2183ltzg0ce57Gx9sCKajO5L3wOzj6TI2lX7xPZdtCipwZPPb6lWpKEUfTIeJv+KPGwcf8hv0O1tAO0tT0td9hGvNXv0Nx8yqeevsqZUOsyZmF3ZWIrSWUIm+wSgYs86Xx3PsTOeoMsXGmkVedQdC8h9W0sDY/WFn+Vp/Uvw1mU+3blHVHk9scQFGbuFZDVKBJGC+Fspb3xWFqTiMg4TlV40XQ1cOjshVFbz8Dg7L9RCfnXf4XrI7FFLelYmmNoKA1mDxx7rfJGlyv5yL+Ywn1WVoiMDvDKGyMYdITJ3LShRqfmWQdnkSZL5VSbxJFLfFYmxIpdi5ie/l8Lrrhz5x71YGs+HI6tTs/4oOvZnH6BI0XZl5DUcticmqiqOlcSnZFMpb6JWy0xJO19l0ee2O8Uv3aoRqPvjqegh1prNgwg/0P1Xh6ynWU+5ZS2BRDoQRfPPFYXGI0pqjlV15NJrc+fipnTdyPrZXR5DfEklsfRpE3gbL2VOyuDJ548wZOGncAH22fgckRTbEnmUVfvMphp2rMTXyCguoPOOPSA3hhxpVsrYjE5krG0jSP56fdwInj9uejbeFsLUunsvVzSlyf8KU9jYrWNWytSKTUt0QtF2s61/DwG5dw+Bkaa/IClP8i3xFESXsERa0RbNsRyBeWKP58ssb7YQ+zZms8D706gRseOlZVtza7E/0uWMO5o5MvBGy7OxRbi3gd9UQES2sMBc5U5iQ+S0JWKAOyvcjQEFp3t+wjAoNDYrj1cP4VR2N1LKGoNQVza7iK3uSLl8gPuA62xMCltmcEJmc4hY2x3PX0aQqQj7MDVamJ/NoYzI5YKtsyKGmRovpLmBp5N385Q+OBl88juzyB+s6PWbV5JkeO0fjni+dS27WGTeUhTH7xWO585iRK3SsocS3HXLeQ4uYPsNWv5NJ/HM2F1x7KJzkhbCyM5qzxf+DhF8ezvSKRlqG1fFUaiKU5CVNjEnc+cyI3PPA3Pi2M4p7nz1HW8aLP36Rh9wfYW1LJqYmk2J3OmpxATrvkj1wx6Tg+KZytHD7lHQlsKJrJxHuO5ob7ziAg8Xn+epbG7KQ7qWjPoKAhSk0r02LuUZL8fswdSKH/8tbVbKtIUwZhQUMak579G9c8cDArt73D1so4Xpx9DRfd8t98Zg3F6kqhtEOPDEpQqWJXMlvKYrjzqXO5etKpLFwTzBGnayStekHVvhVvnB7mlWCP+NAlTKq7mL8OeBhm4SY4U5id+CzxC6SoTx99g/7iunv6ZVsbUe69XHDF37A2LMXuTvX7eqXspvh2ZVT5VbkqC6VLeaEzgvzGBO557nyOO+83fPBVBNXtn1HqXklxy2KKXAv4whrOnKT7lWoSq/WDLdPY0bGcreUxLNs4lfG3HsKT703A3rIIu3s+/3zlZA48XiMw9XHyqxdR7l5DkWMVa7ZFMnbiwTz22gSyyxIw12Zw/7MXKrft2yG3Y2taTKlnGTs6VhG37GmOu0CcPGPJLs9g4frpyuq+8+nTWP7VVMp9yynzLmd7ZSqvzL6R3xyu8VbIJMxNCZS0ikMnjLz6cGYn3sPxYzUuv/04Lrv9aFZsflc5erZWBVDXs4RPTSFccsshnHn1b8j45G3szlVUtn1Cue8j3o26jQNP0Ljx0cOV3VHsWcCT71/MCZdopK9/kZw6kWwhUQRQ4JpOQXMA+XXxRGQ9qQzBh1+5XC3VPreJuk5QgRaDFyAFEfXAiR6PtwnxQnHa9EQES6uEpFOUhCdmhdE3JFoctN29nf59jQTwPi688jjsDSuwt8zD7JJRFIrVF4LVp8eJVcKaYnXoURpxP+Y3JXHHU+eouez8iX/hkn8cw7kTD+KciQdw5pX78fexmnqAM6/SCEy7m6KW+RQ2xivpWpsXyKGnabwccCU5dQmYnEks+vINxlz9WzVAJj93AY+8PoH7X7pATRl/OlEjIvMRcqpiaer9mE22eK65+1gOEQfGvX9Ta+fbnzyVg07UnTUrN8+hzPshRa4VPPDqBRw+RuO4CzUenXKx+vuSWw9VRtd19x/HRzlzKGufh90bSUFzICWtSazJn8M51/xeSfFz0yeSV8dWit8AACAASURBVJdAVWcGVneMiuVvrYokbMGD/PZojRMv0bjtiTE8/MYELrvjSDVoz7pGY51pJgWNCZT4Mnng9TGcNEHjM9sc6vsWKZAl7i/slUJnAE0DH7DBGskJF+g2wGsB1ylPoIRXhzkB/oCNDri4hnXQdcdLGAXCq/MDHpDwLFLjRVZi8r8mNThlAylZlsmeJxdddTxFjR9gd6VhcQl3K1SxVoaNArc/UiUS74mgQABvTubGR07iN0doaH/WDRd5PfDvmlo/Hn+RxtNTx7MmfyZ1vUsobUtmW02gipmvzpnJuddrPPreGOVHtvuSKG3PZFX2XG5/cowy1PY7UuOPJ2g88NoY1hXMopVPlGMnvz4Ca1Mq2yoSeOr9CZx6ucb+x2gcfb7Gk1MvYWNJJGXtS9heG4+peR7WlgzCFz3Mxbf/kUNO0wfhxPuOJnTBI8o1Wt2zhJKOBApbgjC5gynvTGa9dQ6TXxrDcRdpJK2WdXAMBc2RyudvagmnqDWJ8p1ZbKqIYtLTJ6uB9tujNMZc9RteD76eT8xzsLWkYm1JUu2xd89kzESN+eufpLA5gjzHHGr64hU/wOQKIb8+hk0lMbwbNonf/1UjdfXzyiElMXcJyhhhU13b+tW6KuYjZbuCKWwNI19iHa1RmJpT/BQnSTXS5VrrxEPXUCtdA53008W4q/+u1KdEs8xOKboehl3yj90hWN3BmFuEaRGsCIoSTCnwRJPnTKBi5yryaiVQshpTwyrKWz/B5lrB1spkir2LKW0TH3QquY3BishYulN817GYnfNUy2sOp7InmaL2eLLrwylvX0Z15xq2ViVR3fUh5R2LlM85vzGS7XWBFDgC2NGVhK0lDnNzIhU7l7CpMpri1sVY3ZlK65hbktlcLWTIJCzeWEo65pHnkOvOp7JzBTn1yeQ7Usmui8XmS2VLbQC5zYEUuoOwtoaxo3cexe1CzYpha3UctX2rKNuVoSJbct7m2ulYfBLdiiGnPpLsmhh1r7LOz6tPI7taiCCZWFoSlIu2pjcLqzuBTZUBVHSKzz4dmy+CvOY5mFpCsHliqepYTH5tGve/dB73vXg26wpmk9fgjxYqRqvEyyXqtneKFU+bDIQCbwiFreF+wKMxNacqwFPTI2BwUFiqaEu/SsXRU4mntxkB//yJR2N3rsTuScfkkqWNJJcLcS8US0sQFgHcE+gHPIICTxT5LbHkOqLJa4zH2iI7IGVhcWUqy1KWQLIezm2MUEGPkp1CsptNnnMmZneYClrkNERRsiuWDVVTsLdL/DuZnAa5dgoWkQ53CmU709guEaaOOGr6kylwzlbRMrk3kcrqvkyyG8WIScbeNo+ClhjKupMp64lje/MMCjzCYZOQZRT2dllyJlLYkkBRRypFHUlY22Rvl3DKuuOxdUSwvXk225tkAAgDNwurL5XsBrn3WCp65mHviKZoVxQlXRK1mqmiXgXNEeQ3RbOtJoKyjixy6oXOpXP0CpxCboyibFeyonDlNoaqNbVN7qc1RtG8NlWEUeJZwpIvpipDdmb8ZEyOVOzeZDVfS0xcqFx606lZeihWl3xZPhfKykpsrdYY5bkU1mpqejhDgwOIraatKEglcU0Ijt4q2mjgnGv/jM29DJtvvgoPFraI2ojAIvRjoRaLo94tgEvyuc4gyXdHYm+L1cttexOxepPIdYjaS6K4I1HRg0t2JiiJsLYFUdIZQk7zVBXUL9mZrCQmp2kW1QPxZDfOUP7h0l3JbKsLpqIrne0Noch9VPakkNM0h20N0ylqF6aLhBgjKWgJYlPtdMp7ksluDFHTTPGuRLKbZlMozM6OuRR4Z1LaE4G1PYKtDQHkOSMo705TIOc6AynwhKjPCjzB6nvyat8pfocI8lyhWFpjyRbt5ItRg2Z701y9TLVQqduCsbSK1IWq8GduUxjVvVmYWmKUxsp3BVPQIjH1MPKcQRS4wlRoVMKjuU1B2NviEW305LRxnHCxxl/O1Lj09kNZXxiiomdm0WJS4FgRMAMxtQph05B0/brCjlF707SK1o1QvnZZNurZo2EMDvazZ88A2ofl8/ikchFpn0XxedEyLrj9CLY70ijuzMDcGkeeS6RGp+3apJSElGYW0oGKwcooE9qynxSgyAKiaqTJjchDGowPec8I3M/B3Dp7BGNEJCdIxXZtbZHkNAWoZvXJQJJ4sPC1jDLdI0p0+6+reG7CdVNF/A3yn1B8pZOCdIaqYqkKWVDuV3Zo8i9x5Dvqu/J9P61IUYvkfb2Gqf658dkIurb6XJc6xU5Rz2skP/jvV/WFnxCh+kSOjXOMZ4nG5p3HP189jd/9XePqfx7O6uyZVHUsU/N+fpNOrFBETWG0KsANpo4OuMzpsvuUaDBxvKjy2QbgGVIBoo+BwT60z5oXsb5mIVmbYliZm8TYSYdhaVvItuYotrvCsMqc2hiskg1k7W1zhynQrUJ6Nx7wawDLDQg9RzhfQgOS170kRDUIhKmhAJ/jHxhhZDfOIq95rgpFCrHC3haOrS0MiyLwCeAGPUg6UhxAwjOL8oMinS5NQBEmi77lljoeBmXE57Ill8H5Hv7cAFwGhICqkwd19SkSZUiVzJf7niPPbHS8wWAx6EsG2CNZM37Q1YCV5xK1nqqmMPHv5zckYGpKIrcuCpMzSsXkZdDpjFY/jXlYwvcOINmjxuyLVrx0HfA0XcIzQunsblOMB+3TxkUsyItm4eY4PsxL5cyb/oi5NYtsYZv4oijbPQ9bu6gUcVeKw0WkPNRPLRLQhXK0z4hVkmzwsYSeI5EcP1DqIUU1GgNCBkMIlT3xyoARy9fmi8TqCybfNUMxTSTIr89VRkdL8D9G9zoZam4YcAHLL+UKWD94Bkhq/zXDgeHnuSsJ31eCjc9EQxiAi1TJecZ97P3tkYNQP5bnNfjkAorRRg4O471wttTOpaQ9mYrONMX+lVi/CFihM0gxXvZKt05j1unVuuGmO2GkepOQLAVw0RiyI4KU3nyeFH/Jjz0MoKVuCiFzcwz59Ruo6zYz9uZDyXfOx7YzFVNbNFsaxdjRJUqWBsIzHwm4knRhjiqqrlBvpflpNz6D7iufG7TikZytvakyMkXIw1laoihtT6Bsl1CCAzC5A5TFrHeYTkdWEjiskv0qWxkzI0ETSZfkA2lyvO/fAtYItW2wRIfpwX4w1WAwDCVDSxiAy2/KedI/skOjkeEifxsSbkxxxqsBsrzuBb/QHUq+M1ilYeU1zcXsDqbANZcCIXLuilQaRpdwA/C9A093wujluvYCnuAH/AVSMsJVLLSrrwtt/vpILI1b2ImLPtyMu/4ITE2ZFLWlYu+IY0v9LGXYGD8q7jw9/WZvOo0i5ks+lkHYV+D7k+wUaV/W8wYvWwaEGFw6CV8t8TwhlLSHU+QLx9wcTV5DBLkNARS6hKgYQVGbqG+DICiqMVTfKVFAlLlZTQ+6pjCLV1BNNdKZhubxz6fDEiefiZaRc41Ol1cBQVSszK0iLQZoI0GSY79kqc/lXCloG683NRBlEIyY/4cHkwwUacbAFdD0VrRTgiLhWNtCKOuKoLwrkgLXLHKaplG0U9i1ssYOVrGNAtn1QGjcPn3g6diEq1WPzOGyctJzy6Re+oukZESyZ2iAzp5utGqPja49XuVW3T3g5Zzxh1LespK8+ii1BCrtjBt2q+qqw5+Z4SfOKQKdRGrEMvTnmSk/u3jjxPIVL5BK1YnF6o7Tz5H3VKqNZKPIeWGYnAFqK6Yid6ryxBV5U5Qny+4RFqsMlhHJgMOAR2GSnfhaxVbwgyf2gmKeGlPJyLlfBo0szfZlko6UNmMONmyFkYPFGHSGtMrf+u8be7MqiRetoO7LSHvSkyd0bSCDwa89FPj6IJAlYJ4rkGzHdAWyrS2Qoo5gtXzdXD9VUbALpER2q78pwHW6tQwitRaXmrjKNyLRMsktSycw7iVS0qPp75e91UEbko3XB3r1XeKHBrjwkmOo835C7o4IzC49m6GgxaDt6g+qZ1cYGZXGPG7wxHU3n+Q6qaYAlcEgc1KMPx9L1qQivUIx1gdKSWsM1uYYzI3pFDmXKrar3LDVKcSGxWrTHYtsaqukL0Lf4NYT5zfaRhqFIwGXQTAC8GH7wQ/4iOzRvSsKQzMI0KJZZKAZTbxdBugjpV4kVtS7sSqYjaltut5aZ/sNPpFkXf3vnWYM8CPJbQ6jsjeNHX0pyhjOa55FYctcbK1hyjcg0lwgrTXMD7pIuS7poiVkIAup0STrcBUejcekAH/Zv7sw9PcNofX3dUP/ILvbd8PQHsZe+Fcqmz6ipGUeUrdzW/10dvQn+tWdMbLlAobq1C+mJN2/VFMqXh37B4OocKXyR+RmqVQi2WsrTsXeLY5EwjLu5fJJhylmq3aYxuGna9z62BgCUh/DKrRn13w1NSh1qyRejC9dWnTtIyNdUmZlupBBIE3uUwauzKuipkXCjfdFmgVYUd17+e7KEFXRKP80pewSf7BiOP9bpiVpxgARW0EMPVknCxf+PUxt7yvto1v6xhJ2xApC3bvcv0hkLPmuCEVbkhVLUXsExR2yXA2m0C3flQyaCAp8YYik62CLTSGrC7mH4G8BXCQ8ij17BgVetL6+PvWH7mrtZtwVf6OocaUqCKDIBLIVpcdQSQK4DrDquOE5T0a9P69K5VNJx3+9AyWdqKonhbwmyZoMx94aTX5TBHZPBp9ZIrl28vGKPLD/kZqKj4+99g8c72esHvg3jevuPZPNZWn6FpktYZR3xymHizhkxC0rfm+x7nPF2dIyVxH6xE6w75xDgXsGBS6xBZIpkPKUbRHY2mNZX/IeO/oylVNHXJtVu+PJl/Sm9hAlWdvqZlLSEavfb1som2vepmRnBMXtURS6pHBONAXOQMp2ieMkjuy6UBqG5mP2ziTH+Rr2nTMUCLa2aLY3zaCsO0ZJsljRxbvi2Fw/na0Ns6jYnTzCXhgpVNLXxt/GvG+8ymd7mwx0PXhiECCMdGGx0keU7Rr0FwOQ0MnezWaNfcuM/HDDItSB1cH2GzmGijVubPhvuRkxjHRpEk+TrS1KeZyKOqJVPVCLJ57tdYm8FX6HSk967u1bKaheQIV3BYW1aTh7N7KleBE33n8e/3WUxuNvX0FN9zLyHCFsqHiLusF5CuzavsVsrQ5Vxl5lZyrFrXFsq5E1fQilXUFYWudS1JaC3ZfGxqqZVPbOI88ZxY7eRWypC8HelqRy4bdUSwKCJETMoLYvRWXAbquZQ/nORJUZK+HLolbhiCeRK25TdwpVnemIf79q12KKvWl8WT6NXMd0KnrEHz9HuVbzm2IpcIVS0ZNEvjNGuYBlT9eq/kQq+xLZVCtex6+DOxLo/+3YmGK/E01ZAO/bI9EySTcydhf+IYD7R9sw4DIyZVAYA0MI84FItcDSTqHmyHIjkc9L5jJ+0p8Yd/1RfJ6fpijFhQ1J5NVFkr0jDKszQzFLhaY76ZmTWJ37Hg17llDZnapclAXOKLZWh9PYt47ChgxMjjSsrvmUti7E6pbgyVTF6ixsTlXBkpq+JRQ4RbvEU9KexVeVIezoWUzFrgWYnXHs6Enhs+IpFPliEYOx2DtfJUGUt2dR3bWULZWRCLGhrvtTCuoWkl01D0losDSnK4aNxRXnHyCyd1gM2dWSlLEUizuV7Q2R5DkSqexaRK4kUBa/TKFnruKm6f20V5r/N5BHfv69ABfqQ//gwI8EXCTfD67hEfuacROGcLHEbyzn2TvCyGmWUh8JfFE2iyv/eSiX3HI063KTVNy6oCGVxr4VVHRkkFcfQ169zPNpyq9sbUlme50EJ+ZjaUlirWkm979+loq3C9/7vOt/x3MzriCneh4eviCnLkRJfvr6N1XoNn7Vkzwx9TyOH69x1PkaoYse5DfHaPzzlTPYUBSCAFbfv4DKXelkV0cwO+UODj5FUzFvk2M+Tf2f8oUthrfD7+Ksq/6g+OhHn6PxwKtnszZ/Jjs6l7B1h55Q8VHeVE66eD9C5j/Hm+E3cvrVGoefrfFe/PVqBVTVG0ehZw5fVr/l77+fAfDuvl5/LPxHSLhh/SoDybCKjTWs/B2BrTVWvRa6A9VD5rfMVCS87IZAZqTeqkgI1953Gp+ak7A5V/GFVXjn6ZRIaLV1AQro2jCaBpeTXRNGRftiEj94Hulsib0/+MpFPP7WeK67/2gkg2Ps9b9nwadvUt2ps2hSVr2t3r/gH//NQSdpvBp4C3c/P5a0de/y3MxrOffaAzE3LFC04bLW+WytDCW/Po77Xz2NM67U2FwWiakxlU/NAVx2x0GIUXnppIN55M3zuPelM/jTKRqnXaYRkn4/Zb7FmBqTWZ09h8NP0bjoxmM5eYLGdQ8dyaPvjCXhw8fIrp9DjkP3JJZ06kbjSKn9PsffS8J7Bwzyw08LuNUXowIhAnieayaFnlnKoWDxRim1+ui7FyvygnTkX87SuOHBMwia9zTLv5pNsUdythZjao4lvzFKsWU+t4RxxqX7c8mNx/J5XgZ2x2pKXKswNywkMPUhzrjstzzx9gQq2hZTWD+PtNUzlFF41eS/kbMjg9zqhWyrzKS87WNeC75ZsWIjs54mtzoZuytdccI/Nc/hsNM1Xp5zGZVtS9lWEcejU8Yq6tT02Lup7xIq0zLya+ex4svZXHb7kVx888GUez8gZ0cyyzfO5orbT1Up08u+mq4GbrE3E5s7mdq+ecoALGwJIN/19WXv9wFbzv1egAv1paunU6UT/vA5/F+pdFFT4Uql694y2Qx1jmrW1lAVGrT75pHbkMiawiBeCfoHJ0/YX2WCCMFf2tFnabwZcj0lnizKW7Mo9y4ibtFziss2O/IVLFUbKKhaRcGOpZQ0r6aweim3PXI2F1x7COsLg7E4FrBofRC/P0Zj8vNnY2nOxNyUgcWZTk5drJqXz7t2fyY/MwZzfSbWxkxFxHw77Dr+eJzG0g1vUlCbygZLFOddLenQJ2GuWU2xYy3bSuezo/UTSprXkrT0bYRVOzP2Xmp3ruHDzYEK7FsePpvsqhhs7nhy6sLJa5RlaoieBOgJp3Rn/Nes8Z8UcIZ0O13yR3844IZK0isz6OtaAdpYNsgcHqXYJArkjjAKWuaquLfNl0yeIx67N40irwCQSJFniWJ+zlv9Ni9Mv4lDT9aQpdmz71+GpSFDUZTfnHOLmgbuePAy3pnzJC9PvZP3Qu/niTevZkrA3YydeAR/Pkkj7aPXKHIuZ+G6YCXhYVmPkVMbp4wx0RaVnSnk1ofyyBtnccolGl+YYsjfkUVBdQYTJx/OLY8eRWFdIjvaVpD6wWtqNXHJ9SfyTuATPPD8NcyNf1Jx06fMvY+b7j1HfT4z5gG2l6ey0RLHCRf8liffvgpzUxzFvmhlDErFK5svBHurZKMK2UP48SI0P8MczpCQ28Tp9mMB/zYr3e/y9IarbMftjllKhVlbI8h3RmCS8mDO+RQ6hKaUjtkVqVg21pYoLM3xFDmz2GiJ5apJx3DMGI0VX8zFXr+cJ1+/gt8dpnHAYTrZX0j/fzpeQ0j/B0tm6B80/nC0RvIHr1JQs5AFa0MUyXJW0j0UefQ6NPmOEHbsjleExcxPnlVEyKkR91HmXE/66vdVJmpAyiTFs69qW8L81W/oSQcHaPzuzxq/PVTjgL/4kw1EG/1BL3zw0vQbyalMZaM1mkNP0nh26pXYWmL8EUbxRIprWUp9CW3MX/9FOX9+DsCFkP7/BXD/zQ4vy2QACNj6OlyIDbIOt7aGU9YVr5gh2+rCCFn4AKddqZGw8inMjkTs7miKvOE0DqRR7Iklrzoea/0i3gmazB+O1PhwYwi22uU8O+VKjj9bY+WnIVQ0f4a9/kMq3OvYbE+juOljKt1fYm9YQ1PvRsz1S0lfHaimh7mp96vlkyzBCprDdOaMO4Qv7LO56KYDuf2R89lespJ3Qx7gohsPYflXr7OtMoi8mmiVanTkqRozIl6ioPxzvixcSm37Rsy1yyl2rKe0+XMKqlbg6ttCfvU8lm14nzGXH8Cjb16ErUXqugnIEjvQXcvKOeUHfK9W/P6gf685XGUg/CSAyzLN79dW7s5wxWIxHDDiIZOqCTErnlJz8b0vXMAmewI72peypSyI3Jpwyn2ZVLWuoqRpFS9Pu1mp5EVr36PEsYyw1EcUdXha6IOUOtZT17GBLSWpynDbXJzG7Y+dz+W3H0vWJ+9Q7FrFfAH8EKFJP4zFmaY0iqVFkgBCVLJ+Q+8KXp17PadefBDxi2ZwyU1/55/Pj6WgPo7G/oUUuZP41BSg0oSunHQKBTs+psL9BYV1Cyj3rsJct4Lg1Gc547L/4p3wSYr3vjY3SNkfL8y4RqU362D7acXDZb0Mn/3PptKFvvr/Q6XvK+EG4LqEi1RL1QKZp4TXtaV2DlU9C9hcFcekZ8YoMB959XK2FKdQ3f4RJa5l2B1LWZ8by6zYhznuXI3r7jmGzUVRFDVnsC5nrsofH3fN4Sz+JIi8HYsxNyzBsXsDcxIf4pATNO5/6WLszkWU+T4gY81cdY2ZSfdQ7Msk3yGVI5PJbZIwbzSmpnjmffQyZ1x6EJfecrJKGpyT9BAmh6QsRZFTG6qs96ffvQrhxr8X/jAVns/ZaEukzLOKj7PDVG7diRdprMkNoHrXClZsep9TLtmPR6eMV6XM9Bpv4pMX17Nez22YyTPst/ipJVxnLCtW+o8z2vYF3FDp+hyeL7FtybJoDVdNiH02n9Rjy2DZpunc9OAp/O4ofT78y+kaF153LOdddZTKs5L5WZLll296WxUM2LErk1JvFvHLn+WoMRoHHK3x6OtX8fBrlzL+tiP4zV+kGMAhLPxsKhbnPAodKWR9Og3tSI3pSTerejDCLRcSoVCoJMlCigHaW9J56PXxamCMueIP5Nak09C3ku21ocptmlsra+tQxl5/uJoerph0Cg+8NJF7X7iUPxyrcdAJGgFp91DRsRiLM5HFX77OKRMkFfo6JNKnAy4BJCGBGNrPH7P/gQbb916WGb50qdP24wD/JqPN/543jK31szB5RLrnqrokUuhGcpstnmSKvFlsKo0lLONx/vHQ6SqHS5Y3Ujjg9EsPJCT9CbbXJlDbu5gvK2ZgckWxsSwADxtIWzuFR9+6nMNO09RSTrI/np95JZ8UhmFuTldJA1Xd6QRm3K+8XK9HTkCcPV9WzVCRMqFFSxPVLsmIUUseV9kpL86+muwdccpLZ3ZFqeREqTBd0/UhBfWZTAm9nRMv2o8Txv1OGXL3vHA2yza9Q5EnnfXWaYqmtMb0LoefqfHoO+MwS3RPVi1GdM6I2yugf7g6/96ASxJpvwqg/FjADdeqny2ilhnyIHor7oijrCsBia1bWoMQuvJ2x0y117XVE6+qL5b4xO+cTkH9fHZ0rKWuez25dSkq/cjqTWBbQyB5zjCcrGRjlSzrhFOegaklldK2ReTUxKuMzJLWNAocsSrRoao3mk2179DEKtZZZ2JtjaOZJZR1yXeTVfRKWLFS8bmgKYTKXVlsLAliR9dCinwJyoKv6olXRYLFut5Y/i7FbbG0sIJ1pumYHQso831IXl2q8rlX7MyksnOeWmfX78lUNV5snnR9ySWhU4PtokiRxt+GV/L7q/MfBLiArhf26WTslX/F5vi+wRMBVaRZQNddqbqTxQ+4J1yXZl8E+a65mISr5p2LpTVYL1vVEkZxezjbaqdRKlkiLYlsLBUAZL2apNczaffTjr2RZDuEYxZLdlMI5tZoCtwRqkZrVXcmeQ49aFG+K5nshpmYfDMp7QpVUi08eSEp5EjSnitckf22O0Ip7khQal3KesuenTt60lWBQCnxLaW+tjdOw94Wol4reiLZWv+OUslSLlyqOuXUSXpyCmUd6WyrlVLhkuQQwPaG2RS6pACw8AkkDi/P7ac1GQkFagAI4D8MbANwxS10iz0SqfIDJAFCqikHxeskRpV2ojNeBGyVZ8Yeun7AdtKGFMsNC+jyKu/t+wDGe8bAkMEhx/r39aWFVBXUkxSF9LiXtGB81/ht+dtgi+jfF1Wp1z018q2M7+hG4/BAHL4v/Tf28tb8hAZ1ff9vDLstJbZvtL0Mn+E5Wbh8iiShpwTpRpm/L5QKF2PVeG7/++pv43jfvvp+fwvhxO4OUfnhdumHlijsUi7NkaE4bckZEcrLIuXZNL/NpvhOexjdP/x/DtTv1/n/F9//OuARiNNK1cdrFMBfIiUjSgE+MAr4vz+Y32UAiXa0iVPHHaTyAGX/8CJPvIoHBMe+RGp6lDLJRZOPSviwiv/lgi/TjbCAVZKnPI9bqGNxfsBfJDU9kqGhPcrdMgr4rwRw4e+ZPbJnjLBXw5TxaXXMJzhuL+CqIMDoHP7Lley96l4MSompz8UsSQqSCibbSTskt+wFJD98aGhAeVRHJfxXIOF7l3z7AK6yR5/X88PpU5yHUcB/NYCLE0eyciUNS1R6DNYR6cKD7GYPoxvGf4O/4Jeo4iUnQOqlB2GR2jtu2X8mFqtjHkHxz5KSGaxKsvXTPWql750Hf4lA6/esO6304rqSfKmsdK9Y6QL4MyRnBimnWmtPyyjgvw7AjZJqQqzQ88Rlh6mRgPcMtdPaOwr4r0Sl625hKZJk+R+AP6skfDcd9NE1KuG/Bgk3nkGK+kgpNZNbqkdJBQjZe1QAD6aXnYzO4b8KC12fx6UUiZTtkvxw2Xt0uOSH7D2aGYLESXpHJfyXa6gZUi2vEnKVihD5kkasynbpFSCkxktw3POkqipOvewe6Byp0oWZ/gPDoz+CUz3yxkePf9gAFFKFDrheiVHqtImEWx3puqctI1yVVe3u3WkArm+CsYcfSoD4cYyNUaB/GNAj+01Al9KbZtmoVooKCuCNmQTFvaxqvEiB/N6B3SMB/7GJCAbh4Mff/MgHGT3+bv0pTB4p3GBplSBKkNokwNqYRVDsKyoeLgS2finMpwdPjSEaPgAABXBJREFURMJHAf8lD669gOseN9kVQgHul/CBIUkaHRwF/JcM8sh7/zrgwXslXDFeIukb3D0K+MgO+6UffzPgMocLxSnCD/ieUQn/pQNt3P+3Ay6F+cLFZEOV3hydw7+bUWR07L/rqw64lPmWak4hOmtVWelCUw5lkD56B3pHJfzfFcDve197AZeomQG4sFZ1T5sA3t07HB4dtdK/bwf/u50/DLgU6ZN9agxeut+1KoB39gx72kYB/3cD8Pvez17AQ/cB3CBA9NK1e1TCfzXh0W8GPJ2g+KdJyQykb7CT/sH+0Tn8+0rSv+v5Xwc8zK/SBfCnSMkKYICu0XX4vyt4P+S+dMBlyxDhtAngiSp4ogM+1w/4cG7Z6Bz+Qzr53+k7Xwc8fATgT5KSNZfewZ0qQ3jUl/4rIUH8b4D3De1iYOhrnrYBBtjJBVceg90h5bPnYW6JVpWX9PLZeuX+vaPaSHWVfPD/7EiZkeQvfWOTbZ3dUsZDNtrR68PL33bZDcotfaXvk2KkDwtQUgv9m1Osv6tTSP8NoTipXaCUSpd0Yd1oS84KVPHw4XRhKZ0t67QBOrjgimMw1yyloDaREl8CUjO8ojtOVUEWgrvsjaU3CceFYZJtF6SeunqV419mk/ScH9qEWmTtlD4Ko7gpgDKnFO1JwdKWRpEnhuLmEErqA6nxJVC6cz6b6gJVoYHcphkUeiMp9MWqIvlGrvw3vcpvf3vTAS/rTkQ2/CvZGa32Ubc0zmd6+KOkLgxn954edg/4o2UCuNBfBtnFuMuPo8r1OXUdH1HqmU9+Qzjb64L8m9RIIXipLZ6M2Z2E2Z3gf9/YwCZeL14jBWx+Yc0s22v8wGbyxJPjkmL50ZQ2RVPSlEBuczr57gzKPPHUtUTgkHIiNYGUuZPJbYikXArve8Io61qAyTMP2Qxe9ij9oW1bnWxyE8+22gBVcqSiPZNyz0rmRD1HdFIAewTjvhHhUdlhWChO4yacTK7tA8oaP8ZWt4i6XR+rArJS/srmXIKteRm25uX6q/ztXIhdWvNi7M1LfrFNPZt6Hnmm79sWY3cvprx9JRW+DzA3L2OLYxk5zQspd8bT5AzF0zCHCtub1DqiKHPEUeyIw96Uwo6dH2FuWoq1aQm2pkXf2vT+lT7+praEct9qKttXk1eTjK0pg4LqNExVy4hMeo/Mxcmq4ENv7wgrXQp/dHa1cs31FzEn+FWmTHuAl965nTdn3c0r0yfx6sy7eHXmZF6dcY+/TebVmXfz6sw7VHttxt28NmPyL7q9OkOe7/u312bcxcvv38Lrs+7kxZn38PyMe3gt4D6mBtxGyLQLSHznBJZNO470N44kc9Y5RE+/kBnvTuC9aTcwZcadvDLtLl6dLu3Ob21yjW9vd/PCe3fw5tx7eWnqzUyZcwdvzLyToJiXeHvqs6TOi1c1XfpHAj440Ed/bxcrVixgw5cfseqj+XyxaTkr1qSy+vNM1mxYxJoNi/l4wxLV5HjNxoWs2Zil2toNi1i3YfEvsq3dsJgf0z75YiGffjqf9Z9n8sFnS1i3YTkFmxdjWjGT7Lk3sP2Vkyh66UhKXz0a6ztj2DZzIjnpb2DdOJ8v1qXy5aZlrN+wiE82fntbt2Eh39ak71esTWfNl4JPOms3zmflmkQ+Xp/JkmXz+eLzT1VNn/6eEVb6nr5etauRfDI02Etf/y7/Xma72EMvffTs07rVfuP97KKfTgaGuhgY6v6PbIODXYC0HoRXAr3QWQufx9P47kTqHvoLrnv3x/vgAdQ9fBiVb4xn59p42O1iaKcDhnYxONSluOPCH/+mpvev9PE3NfmOGN0S8xZbbCdD7AK6GdzTy9DAHr1yU/8Q/w+bJ1P0NQvNiAAAAABJRU5ErkJggg==;" vertex="1" parent="1">
          <mxGeometry x="300" y="530" width="105" height="102.46" as="geometry" />
        </mxCell>
        <mxCell id="aUsY_H1b6O0TGKv6YpwI-31" value="" style="shape=image;verticalLabelPosition=bottom;labelBackgroundColor=default;verticalAlign=top;aspect=fixed;imageAspect=0;image=data:image/png,iVBORw0KGgoAAAANSUhEUgAAANkAAAC2CAYAAABUHCj5AAAgAElEQVR4Ae3ddZx1X1X4cezu7u7uFhFQBFFsDOxuxe4OVOzuTkQUREEElVBQKUUQwUTsjj/v7/W+r9/nea3v8dw7M8/MnZnn+c4f57XPPWfH2qv32uvse5v//d//3VxdF4+D//mf/9n813/91+Y///M/N//6r/+6+fM///PNb//2b29+7Md+bPNFX/RFm/d7v/fbvOZrvubmOZ7jOTa3uc1tzuR6gRd4gW2f7/u+77sdw1jGNDYYwAImsF3xyPXzyG2ukHf9yLse3GFa13//939v/uM//mPzL//yL5u/+qu/2vz6r//65uu//us37/Ve77V5uZd7uTMRotMIIxje//3ff3Ove91rCxsYwQpmsP/7v//7dh7mcj14uDW1uRKyc7LkrAEG/ed//ufNX/7lX27uf//7b77gC75g89Zv/dYXLlDHFUawghns5pDQXVm6/Yr6SsgOKGSYj8b/h3/4h80f//Efb37oh35oa6n2MfWzPMuzbJ7t2Z7t/wie58/+7M/+f95Vnxv5nM/5nKuXd/pUdzm25/pde7esu/zN0n3/93//dm5///d/f826sVKs3a3JWu2b65WQHUDI/u3f/m2D6f7kT/5ky4S3v/3tr4uJMT7Bed7nfd7NC77gC25e+IVfePOiL/qimxd/8RffvMRLvMTmJV/yJTev/MqvvHmbt3mbzXu/93tvPuIjPmL18u7t3/7tN6/2aq+2baOtPvSlT30bw1jXI2zavNM7vdPmh3/4h7dzplRY7X2Md2t6dyVkZyRkNPc//dM/bYMGv/ALv7D5gA/4gJ1Bil2W6rmf+7k3L/RCL7R5sRd7sc1Lv/RLb177tV97c/e7333zhV/4hZsf+ZEf2TzoQQ/aPP7xj9/89V//9dbtvF5G5bLq44/+6I82v/Ebv7Ht+0u/9Es3AiCCK8YGA1jANAUv2LOArBtLmJUjqB/yIR+ygYOnP/3pW5y0Br1eeG/0dldCdkohE4H7u7/7u80f/MEfbL7ma75ma2EmU8Z8a+VzPddzba3Jy7zMy2xe67Vea/PhH/7hm2/91m/dMr4I30UwF2VhbMIHFgLzGq/xGhswvsiLvMgGzGtzWXtGSL/6q79687u/+7tbHHGdL2JOFz3mlZBdp5BhmL/5m7/ZPPShD9180id90lbrT0aj6dP687mwOUvBdePGsVCPfexjt+HyNWawrpuWoN/GF3hgPbln3FPC/sxnPvMWl2feqaOuNtrqU1+Eqnvj++35hIXlA+MP/uAPbteUYDcHc5lz23VP2OAIruDs1iZsV0J2QiHDIH/xF3+x+aVf+qXNB37gB27XM7uYq+eY8eVf/uW31uqzP/uzt24fxp+MvLzH7Paq1OPa/dmf/dnmCU94wubRj3701src5z732QZSvvmbv3lrLbh7n/M5n7P55E/+5FtcnnnHoqgr+KItS6Uvfeob8xvLepJ1XgrahI/gcl3NhQU2t30Cx7K7rP3gDO5Yy1uLsF0J2RFCFrNhPGHrX/mVX9laoJiKtco9rCRc1iZcLOuqT/mUT9k8+MEPvkUwICsS8woUYF7Mh/F/67d+a/NTP/VTm6/92q/dfNRHfdTmtre97TZIkeCeVYnx3/Ed33HzcR/3cVt392d+5me2G9JgoExYwDalCf7S8oHb3MzRXM15upRwUlQ0yw539gPvd7/7bfcI9Q8P4Tqc3CzllZAdIWSYiJbHSKJ3InK7GBwTcY1e/dVffXPnO9958xM/8RObZzzjGavMg7EwsODAH/7hH26Fl0DR9K/6qq+6c4xdY5/FcwKRouAS3uMe99h84zd+43Zf7Pd///e3sCZ0hG0KAQH527/92+2c73rXu25xIHIJJwnXhNE4gisf8zEfs8UtHMP1st85xo16fyVkCyHDLGlUDPV7v/d7m8///M+/loXxrM/6rNcYcTKNsPjrvd7rbT7jMz5j26Z1zmQcz1groX3rk2/5lm/ZfPAHf/DmVV7lVS5EqCb87s1tVxifS/hBH/RBW5jBbg7mYk6Yf1o4zx71qEdt3Uk4gZs5FgEzVs9kl3ze533e5pGPfORW8SRM0aHfN2p5JWRDyBAVs1gLPelJT9p8+7d/+9YFSrvHFLPkHr3xG7/x1q17ylOeco3pYjz9/eM//uO2vwc84AFbl+xd3/Vdtwy2r985xmW8NwfRVHOCK3M0V1fCQNie/OQnb3EDR3C1FLDm5jl3E84JcLmTs7/6vdHKKyEbQoZ4XB5pQ9YMrbto3aUFE117szd7s829733vzdOe9rQtcyWk+uEOWl89/OEP33znd37nhgsVQ1WuuVG921ceRzitg57neZ5nu8nMhT1p+H3f+Mt35maO5mod1xqLkHXB0Td90zdt3vRN33QbmayPhC5ctF5DA642IbvRLdqVkP3/BbeomsX+V33VV233hWKCSkKGEWRKvMmbvMnm677u67bChYnSrJhLuNsmrwieSF/au35OW2JKaVIv+7Ivu83ieId3eIdtUOQN3/ANbxHptKaiKD70Qz/0WrSRpTjt+Lvag8tcucvmDge2DKZ1gyvWHu7g0PoWTl3TfTSGde1XfuVXbrcObDvcyIJ2JWT/+7/btQXN+R7v8R6b53u+59sSfEn053/+59+8wRu8wTZMbs/IWgvhCZaScAkOtJdkbbOLIT3PGim731d/vpMCJRqI+SgHzMtte/M3f/NrY9pE5qqlAFiSu93tbtfez/6W9xjcOmlmcizr7Ptt7gQcLmzSEzY4yqrBnef3vOc9N5QD3K71J9vk3d/93bdzs/5rLjdaeasVsoj+p3/6p9vFPAGahJ7uofxAFsHeEsZGZBqagGGgxzzmMZvv/d7v3VqUo4SrMXKP1rR4dXaVxvjoj/7oa0xnLr/6q7+6eYu3eItrcxBQsbaJIW0/vM/7vM+197v6Zo0IBzf4Pd/zPbd5kfbCZlh+V9vlc0Iib/O7vuu7tjgSSJqWzbrrIQ95yBa3cDzbUzwpOrQRJGIFc0Wb141Q3uqEDEO6CItoFoswo19ZFQTmzki+/e7v/u5r6wPaWHsMIvROuO54xztu1z/HtUrq6ZsWf53XeZ1bMNdktH33Qv0YrPn82q/92uat3uqtrvUld/KJT3ziNSGzoS03cV+f3nFxrauaoz5++qd/ehsFJTACGBKTw9O+/lhC9awN73CHO2yFDc5Y/WAndNZecAzX1o71maLTx0u91EttPvZjP3a77oP75n0lZIugwkUjhIDQhFyP+973vlstG0ErI6w1zad+6qdu3Rrt0sBcnT5b4V4WHNFe2yxU/S1LgmUPTcjaxvZP/uRPbjPpl/WO+k2IwBVOl0ImZYtb2/vjChmlsRYp1I8PN2V6fMVXfMU2kEMoXumVXumaUCxhXlppbiGcla3f9kZeARcSzuGeYBHSBDWhJuho1/aBts3xspa3KktGwKQQfc/3fM92/YJwES8GsYH6tm/7tpvv+77v20YaIxzNacNUdvmHfdiHbS2Rthhp2Ud9LUv1tMcgaWJanWtmY3ZZf99vxxFYjwXfWQkZN5Sg2QsjVFOQg1lJEO0hfuZnfuax4Q5P5iqLBS7gNAWmX9FduEcDVk2brvAhqouGorfaahceLmN5qxEyzGI/58u//Mu3kSuEWwrIK77iK24+4RM+YfOIRzziWmADAeXY2VzV9hVe4RW2TJXVOspyxRhKbTARRoixlISOmzbrHnVPyMr9AyMLgzFrt7RkEodZv94fVb7lW77lRopVa1BjTIsObvNgeY7qq/d5CUrP4BJO4ZYLGE4oQ8/QAk2WQqat4Iy2aMoigu2yCtutQsgQjdaVwtN6YhIO0V//9V9/e54FS6d+TERbOmDG5qs8vxgkxjlJqW1CNjUu5hAJlJ94nP7AToiK2mnP8vhwsvZLIWMxBUN6f5xSACQhgw9Wx1cDcGkdJZBx3PNIJr4b2zM4hVs4lmKWoBAaQSlnjHCxl5FObdESTQkkq17bidvLcH9TCxmk05C/8zu/s42sZbkwu3slImNuayNMi7gu2tF3UNZOWS9t6iNGOUlpPFYL4TEtwWpdwiqBszA8Jlrr23P9ECIuW4wlobgvsL0XSXzc4x63HUsd4/oAdK3PtWcCM5g3ZQNm2wQ2tm0+w4u1GXystV8+A5NrPjeX2sOxPhMYeIETgizw8s7v/M632AfUtvbmCnfqh4/LIFzBcFMLGQGT2GuvJeZE5O5lbVhfYVDWC1IQiWvFVbrLXe5yC8JOBrmee0yGaYyDIVgFayljYypW4+d+7ue2m+FLhmy8mAujC2YQAjCL2mG2mPkjP/Ijt5ahObEKgg71c1Rp7qx6jKJ0iI5I4Wy7tDDzXfeCQ+/yLu9yi8hh7yrBTYDf7d3ebavw0GAqvIc97GHbUD/rVRuldnCCxm2xXDZBu2mFjIA5Zk0kL2JgiJiXr/9Zn/VZ28/5MWrMam9J5vkhsiOMPYVM2PpOd7rTlpkxFBhYnG/4hm+4xpAYaDJVCuLt3u7ttuFsDOXSL5dLEq89PcJKcBMSDDjXbLPPed943LT5zRt3zBZBlqc24bPfs9SXzX1fL9hLZKm4ftVprOZUX3CPBmiRoJkjy2wDG+3qAzy1g0tKq/XdZRG2m1LIIPmBD3zgdv8KASMmYiCKz+klt6apEYNlEfAQgOC61CZinkVp/PaICAChENb2iQsYXKyadaD9u5hvbWxWmLvWmokwEQTWLSsQkxFcB6TO/cC1Pj2LYeFvCqmzRaSU7Wq39twGNlfclgdYcv2swfbNzTtZ/2iBJuZFAZkjmqEdGi7H1I7FBHvr1ZTMRZY3jZAhIkIQFlrbBjEiQPy0YLTkt33bt20X7tq4ML58Oy4Hl2Vqx5hBuSRqv9U3xr466mJgjGtMJTiFslm0LFmlPaPm0Dwar/KN3uiNtt9vTYsTHrLMwvDf8R3fsf0Mp3ZHlTbICVX4waD6OG7gJ0EVqv/Zn/3ZrXAEj8CPL7XBAF9wt4RHe89b//mSGo2CR9BFtn4b+fqZF7zxYhJO7a6E7Aw2rSESUh0zza+fSEcwl2+b7AEVfNCG1rc2kh2OuNpNoteW5eB6fvzHf/w2CZbbYk+JC8YaHVfIcn8ImWgdIcAAMWHMYC7Wk/oHEzgmXJ5JFOZ++d7tR3/0R7dhfFkssuEFKWTGC4Ovaf3Z1/LesQJgAwscUVysj/ESoGWb+RsurN1YY/OIyfWD+XMZzUHq1TJ30XPjuIxpOwGNCCg8gUvQx5mPaKq+a8LAdbSO49U0frg97/KmsGSQyM3iWrBGkA3pGDPkv+7rvu42J69sBm24VjS08H31YyK/u7T9si/7smunLhEQwoIRuSY+vad1jbsUhkl4fYMToyRs7jGf9CUZIFklY8hkt24MttmXZzEihvY1tbMVKRgCYf10HPdw9tk960M4YkYumqz/3h9Vyq20nTDXVObpt4CK9uAHN3fycz/3c7dKrufRLfx7jkZoNYM9rJttBvSpbW2UxhIhhuuLFLSbQsggUQqR6NpEMib0m1vxAz/wA9f8dAiXlW5xz31UJ4Z1j2C1ZeEkuHJRYrplyRo5G5Gg0bz1oZ95YT6wYjgXJvnxH//x7WLe5rJgButD2/vkRsCAFtffWp+eBecc53rvwwGl4fwNQkEpcKVPkpHCrfzFX/zFa5YwRWLD3Dvwgd0Zjz//8z+/9SyUNssJ83Tvm4v66IhmhD6hSdC8Cx8TJ045FjBJuS1pdx6/b1ghg+QY9qlPferWNbHQpgXThAhEiGi7acEImG+V5MghiPrKCBoTeE/Aci9pd9YFkVkaMCQwXBkL9ZnLOPtzTwgRFdwugivD3Tvjg99vFilmXMK17PMsf2NSDC61TEY/ppc2ZbtgGbrfNa45wAPrnCAkZAIggjUUB6EVbRQMgQv4tA61pWLOy3lHVxZbpgeah39BDjROYZoH+LThjnJbbWGAA/6D6zwEzBg3tJAhDPeBK4cxIo4SojGsPLgiTZDrc4kv+ZIv2Z6rsab5JvPQ6ARSOxrTl702gWXAs4xF8SKezWWfZSwZpD5F5yBdfULJPexdsPe7Mobp96HLtfEIztrzJSyYmvtHCZkj65EiTLEQKoEMEUJCFz68d0Sdvbw1XPRM6UwUwZMEJ/pYo6W0wAYecOMN0VXuvbrGOi8Bu2GFDKIAb/2C2X2LRANPNwMhnICrTkglMASyDI4lk8zfQsj2mmorCGHBHrERU7CBhZwEc86hvaHZV/c+15DR4C+SnBbsq2bv9FmdfSWGaXzlcRi//mpbG2X31TltyWr88i//8jXBIWS2GGyU567BJyvHO8gbgD/fuxEc1n7f3AgOlxx9WbRcRzxBgEUdl6d96Q89Bb3wQ/wz6XbI+xvSkkUoQQeMj1kSMkTg13NLuGMQSqvKi+MiIs5xGMz3TyJ1IV90i/uof0TDkD6ht8maJVPXF9bzm6jJuIRPv8uAxHGYvTka2wUOcya4IpDmNcdqjqJvhJkVnUqIQPg925zmHjxcyxkwIUSyabibNtitXbNw6IKOLhFAGfnWaMG9CxbvjeUiTGiKtvrVJ+/Csxmo0UZ/eAV9JozR95DlDStk/HeuyWQUzIeBnTORhoM8xGU9+vr2KEIiCLeQBg75IpeEKoIZyz3NOa2Z5NmTBAl2MdN8bpyESpTN0QLG8BWz4IgwvS2GYNO2NoRPprw2cMNSyGG0l7Rv/TjHP+oeLlgXqWjTSvj4U86h95jeR5fwSLDgVV0WjqJq20Xdo8bzXj20J2hoyxLWJ9qLypqvehMv1rsCIVMxRuNDlTekkFmHyc2DvEkUTCOtKF8fEbklQr8+jTgO8aqDCbl2IZ4g0dQSZyOw8T2bkUeaW536OUmp3zmf2dZYLtbUHp29LBvZSiHs3s82+vLcOlH0k0AKSmhDYVhrzfrzfgnHVGaznvvgZjEdkmPtw01kveZ7+3WUUAyOPoTDGtm5JWtzWI7Vb3WNS/noF43ROuvoExhfHRRAqp0S72RVo+8hyxtOyAQxhLktZifiINvekI3YEIbQjroW3o0gs82+e4mo9ovSzErbBIIeCIfI2lsTCoo0ppy7k1oIsM9PcPbBhdl9keyrAZkibezua+Odf8m0JrGOpM1tJ8BJ81i277lNXbmCLNWyzvK3ebCowuZolHsNZpbXehiuWC/44rYJ3S/XUMt+9/1OwNEYrfGH/gkbJemrhuZSP6y5M0OmBxL9DlHeMEJG+1kw+25qRpBCHEslUNEC23qA/y31SB2IRpDqH6f8tE/7tK2/n3YEA9fGXg2LoJRnmPtDgxOAfVrfuJgRLBjd5yksgHA5d8r7JZxg10a/1mAsmEW/6Kd7DKzOZCb36usLU7FirJlgkDC5NgRnOZbf9cPNlNXiH1lof9ZmWX/isXZgzXPwTPhfkgBcUVbwlZvIY1BnX79zjOW9to2L1mhujYf+xuHCEvbZzljWf/bt1MuyHkLA9HlDCZmQrT9HmAhzb23CNWG5EBEBuSV2/K+XgAhBg/vMfUak9M8t4fe3x9OYmPg4VgxMXDXZ8pKDnZPBfROsKTF4OUfwsBKEShoVJrHesvYgBAIbMZu2zZuAERCfqbB6LhaFK5VwzrHqgwALe1NomBd+wXbc/bLZp/WY7PjJxNy1L/7iL74muI07253kHn70wfKyYIQHH7CcYMcj9UcJqEsh4in1JmxnfX/phYyWcUEWJoTMkOWe6+brWESDLNrLXhjGw/AhvzbHLSO6DU5/HNFem/7B01gJnb8msjWwZsUQldVQdk9YuHtOfwIToXPPQrFoxq+uPgkRYbF+KQqnT/BZYwl+EBpt1Nfe/G0V9IlJLp81nAgcQRMJVV+75syCURjqNR9RSonV8ArW5hM+67vfs+TaEyg0wsA8EntlfbLSuLPNSe/rg7X9xE/8xC0PoBP6WMPLOaVw8EP40QZPoe1ZC9bs79ILWVZC4i8mnsSEJMS3VsL8Lpu8No1p/ZB5UoLN+vowhs1TJwyXyYCALJr0IylRxtsl0OD0DnPqjwtm4zQBM5465sZq2C/CzNq4rNcIJctCwIJPG/1Z0xAMglZgZrqIrBfXVP3aEiBzEmkkBMbxjgVj9bxntWoDNv3IgMHE5tI7673a1/8steXmOpLO+ZCiez5JmXXO8h6+/Bcb+mB2tBKNNicwB7cx8RTewjtTMM7y/tILGQSJ3gnXQ8okJjdEOo06LgtpeXbcKPVo59MSTx/6Mhb3woGftKITcq2nCCCGm3AtxxTGtkmtL9ZIFgphmgpDG8SniRM07hmh0YbGbZ0z+9dGvwRNpJMwOnfDuisXMeEORqV2ggX9XROhJKjamBPYppLyWxtbCBiYm2pcVrRPVyZc3WujH2PamxPphMej1ne1v94SPmyM4wmKmhAJ+qydSYK37K+dpWDNvi69kLEc3KolQ2IKgQnrIhOCSPtaFtIRBoG7v95y2QeG4YZhsNnnst58Zz3Aagg6WONhVO9j+lnXM3NlNbhs9uGUawJWO2NrZ4EPJyKeMtsx9FoUccJqzQU2ONaW+5mVmvW6N29tuI6ssSidNsYJnmWpbe3nu7Vn8/1p7238Ozodb+ARbqE54p3ZN3yjC16bwnFW95dWyFgmyJEJbhN5MjXiMP3zrHd+N3eqs+wnEi/qHszBbQ0kGOPvZIOnd/1WekZgrMFYP99EsWLeeU7IZ/15z+qxLMYhZDZj1V+Oo5/J4AIDPgkRMbVGy2rNvt3rp/EJpQADIfOOlVrWv+jf3F0Kylqw5QR+ym2ceMFjfaiK985KwPRzaYUMUmgWhEesiOuez+3T/TSUkK3wvXWR95OBLpLQYAaLOfikRQRRdgJBWM4puFkEjM7tI5i3u93ttkED6yDCsbToc362AqypfE8mGMRNNf4SH/M32ARGfP9lLWsrYanpG6O+CH9/g0RpyLABW/UuSwkmXgTeEDjDUwQI7+ChKWRgtg7Gc+rdKoQMMmhKDJcGVdJOsjqKCKlHA62F9i+K2OB0YUrrN4yYS0VjYlCCNpm9NhjcGox1UdfahXByc6xlZps5P89ZMoqGu8eKFQTZ1YaA0fStwaxjWCYpWKK2wTTHYSEFP2RZUCJKVs1aTj1tZv2LvI8GeAOPEB6KGe/gIbgNvpSbjJ1bjSWzz9ERZpiky8KVOySEDhkWrNYUF+muiJyxOIiGsFkwVoUFw4iImZsmMCMzhEXwXH1EJmCCHazdDG97V95hTHHaEqw+ErXWaw2mT4JNaEQdrT3BluAIdhBCEU74Tni1kU0i8NIzfWlPkE96qOpp51b7YAErHim4gW9kBglmVTdLLJkZ790qLNlv/uZvXmPaEIFo1l2Q4BI5ssmJyTFCiKr+eZWEwMKZBcC8iCucLvIpSICJJyzeEzSRPYLmt3MubAXYb/NZRozt3XHnpe5x8aBPzMf9BP8cw+Y4QSMc4NIvCyZVisKoXXMyP4LGwrGMnmvHDRXs4ZpV96JKMPibplxGbiFY8dSECf3wHiE7K4t26dZkJsZKdUYgAocEmkemBQQw+z5xuMc97rF9r96sW5tDl5jauCwPXx9jfvqnf/r2n0vaNF6DC1NjTEJl81k/lIVL/YQM/LXnOktPkvEhumet4Ts3Wpl1l/IlmubjR78FM6QOSS3C7Cwr13OZtZHlnbgi6KKH5mMDPAtGKMEeTMHnN8VBODEvHBBKNJtzmWOc970MGzyTlZKcvBbSx3slG1T3NOWlEzKTccbFcoFP41jLpF0EOxzfvDzp6LwJh7lYAiWCOSXKhqs12HIOS9gwqyiiC6NP10x/3Eef3MgwJ0wO28Ek3B7rCpYcM8QQBYLgEJ5SWOpJhrXfKBuGUNqrs9e3TLSeMBIQuYC+9TIfFgyMs8689942AksAB9aH5nFZhAyv4Bm8A0fwhaemNQMreoL/rAIgl1LIrBUiXgSi4csVxDzC9+pdNBHBlyUQnJAJznqIDnKjgr/57CrNw4URML//8LLvJ/w8M9dPo1FrC3/yPPXtDHlBi9Yn4HWBxSFCXFrzYdFYwKXrO+fjHRcRDlgxFu2i6TPhc49n8A4cECJZIXireuB1L9oavk5bXjoho2VZgMmcGM/CmubhS0vYFbGjcWa9EHURpSiir6e5iIjmEw5ZF0dZs2Bltax7pPj0PRYLhRlOS+Rd7fUdPkXf2lsDE9zCO0tnPvI3febDWgXzLNGBG2sdyjJb11mjCe/Pehd5D0bzwjuUTNFGvGWuEzb1fPGxC3cneX5phCzTzD2ak3Uv8bWQPUHj8siIWNY75G/CUnAgYmXBRNAImCBHdcDsWDSCtqYIeoa41jxOwcpSn4SAZ1UXXrmUTjVmwXJd0+y2AygOggYX06KpYw7Slqwb0QEerNEIGkupDsaNRpSKP/NT37vw1vtDlrYs8FA8R+DQazmmFDr4PW208dIImcn4onnp93NRLPJjJgjhSsWkS8Qc8rfNSpu1tLvxMceagGFA79RzIpWood8TNgznGy+Jq9xBTN4cL7K0XhEQoBwogOYJdvORPU8RzrWZiK+PSAnOFE60TNBYtHBgD07ACl37APY86Wksa1J4D9dgmQEh8wA/njwtbS6VkC03aBEW4fpEgnsjulju32Ta87jHdKJnPh8BFwErTI8gMZEypsFE+fwxpoCA5FXW+ZDuYAx0PSXYuI/mSSEEu/kIhthHY30cN8CVnMGDaAEPWTR4407qTzaKyCV8hrPanFfJmjm7Mfz7egNsjW++YMOT8JfVux5cXhoh46osCYW4tCRNYpKiZDQmBo6JQ8p5lbSdpF2bzFxEUbejXJ3JSJhUlK+I4PUQ7TzaYD5WzT4emCd+5YeKorIGti3sLSWEs557c+deFt63nSBaqs2y7nn9jn/wEp7CW3hMjuh0acGDJ097TMGlETJ7PjNIgGiI2b4YRLBoPktAuPMWMuOl3ewBWUNNlyoXcTKK+jFfbrB6TnE6rXY8D0EzhvWI48/BHQ7M0QOzKCcAACAASURBVDHilAX32W/zm3PvPlpRTupK0CW4FNOSoWtz6NI8wCXXE0/hLRdew3PRDBx4Em+eBt8XLmQtKgvHN0FE4JLkD9P8sjsg59BEWOs/wnARrQllcrNk1hbLtUvtMaZ76UgW1gmdtKkbRcjASZjmpq2sD5/TsEa+EkjQmveyxLiyYbiV2ormcUWX9c77N17CU6yZeeI1683pmajjyPIbWsgAT7shxNSGNEjnQtAywvZ8+fMmRNobsqVKCf8SMHB4ZnNTJgH4q5uiUIdQ+pAU4XrOBUl7noZ459EWnJhPAEck0BzM22V+5iWRu8ybFEl0Ioj22Jz8VRv5klzNUsrgLXxqP5m8fg5V4im8ZZ7wiefWPCo8er34vnBLBvB73/vetwgJQyiBixGVNhAPheh9/WIARPepifWHDyGX9a0zyupmvcCOoUQjvZtE05brZIP3eol2Ue3udre7/Z+5mA/82N90FFyC1Dx5I0L/S5zZT2TRWPnZxr3+zlPQ8FYeE16byh7caIpH4T1hPAkNLlzITE5oeBIBon3S3qSYc7lz6qT1Zv2zvicULJMSsYuGdVZGDACWGMSeWILmOaEkYAiWBQtOvzFkhD0JwWZd7ec13x3iXj7kklbNCa6kfnEL4YcisacmJUsdeIp23luP2VeUGSJ73zsBFnjhMdTvIcvgwVu5jPCG96JrtDNvuL4hhUzq0DJ6hQgOWzFhk5Kr57CWQyJc38Z1yViQ00Zz+/SEa+PcjaPGp7H59NKrrNcI6q42wsX+AOM4woC41qTWrzI0hNd9Ce6UXEnAjr62nyNTxIa2OmedLRJzoQPmjPnm/AiWqKPv4Ryak4DNOst754yI1tpHk/zsEyCf9SzrHfK3OeGx5oj38MEcE4/OY9uPQ7fqXLglg1TEmROSRxeAQskYab4/5H2ChvjWEdYiMiAwVtptOT6G84525gbaR5Ihsaw3f5szQW6eu0qEt2lqT0fImVUVPJh9zXvpTFK8wNBWwa6+T/K8/SRbF/uUh3Ubi8eqsW7wsiaQYIZrOHNql31DwZTWttrOeR36Ho9RYglauZzBjl549SQ4q+6FCZkJIZwjozPbIVJSagAy48LFvTtkieiQysWT4IvomNWfIewiOtj57IjA6kkjksEty6P9owi1hJ3FhAdX80Vkl2es1X3ve9+tdVy2Pc5vf7ZHMCXB6o91YxUb63pKIe9Sp5YwwIFII5wJCHEd4WZXqJ4AcsMETcyTRRMo0s/SkizHOuvfeGy6jHhwjoHOePV68HdhQobA9iUQbClkUo1iAAxynhkeBMz+lw1ToVuZAYTNacSYBaxZtEpMgTl8uFkO3FyjRazqK/XDZSwAEvEIAkYmHB2DV33lkvkIsC0EMDTOsrQ+hOvGCLfXW9pfWsJhfMJiT8n4LLl7glYgofl77x7tZc9IaeIiWvM6bg68++aznN9Z/BbQ6pxGeMGD+p0K0pwovpPi7UKFDCMtszy4CyZBm7N0XI+zQOK+PrJgxkZ0AubPK2qToLFoaWVC4h6Dc+Fo4eVaQuhedC2LVhAkpULLy180T+soRCZ0ElMbOwEzlr2qedy0OqJ0smJ8+An+5oI5XAmDNQ/hNdZphU0qVXgAA4EwT4oluJXwweUmaHBQG3NiwYT2CdXEm7WvQITIrHXQZPLZ9yHu8Rr8JETw2ThoBh7z8f4kOLxQIcOcGK2JKH29m5BxcRBhvj/EPUbEBDQxrerAmsaBXExB0OQpOmsdzJ4TMMygTfmJ2iVE7gmaqCOCYRhtZ12fxbMyzmTfdUioNk6gMk57dMGnpIW5O04mprTMx3gspbZ+c01ZZJYyJrre0jo162R8EcGlgAWfPE3KlBCCCS7BpY2vtVkz8HXBkTWa9Sr3G47r69ClMP103fHiHBMu8SwBm/WOwuOFCRn/FwGaRIzp2OuETO4c61GdQ5YOwnEEm0/PETp4EB9jGJvbStAcMc0tFEWjdVsk74IPA3JBMZf5yHyoLu0oCdWhQY2jxMQEkIuiDVd03wGnXC2CBiZCrNSvnMHGsl4qansUY+x773gDSql+RVKD3bNwV8kC22OEA5aYZZsCtrbeFWzC9II4cIQOjXeIEvyO0POVR3OnIJdj4Vm8Oy1e9XeVFyZkPqWfbkKTKa8PwKJjPT9kSaicfbEvaodhELp0Ki6l9KiZbrSEEeFiPoLmmyshbsLjuf5ox+pN4RYlpM1ZL5u2JSLHuMux/CZoFuzWQiJhAh8YuDasGatyEldnjXGsS6YrZew1QQlG83PmPGE0J/OhPMJN9SrhBcz+W4wwstC5mtU56zIc4bmCT3hxOQ6exbtreNn17MKEzJ7ScmMT4mmILlG65SQP8ZslIjwsza7+EZlAcG/sg/lsXzAkt2mNYRIaaxZHjbEA1k5cOu/0p9Q3IneBQb/a+FKaSwo2dV1LGI2NMWl8dX14WZspZNo5z3Fq612Mse+59eN044y/TwjADH57iEL71qF+7xJMc/FOHQElCsOhQ8t5H+I3nsN/xQTw5BwHz7Yu24ej+e7ChMwu/3Q5TMTiPC1rkv5GaE7wUPf2xJwaJWyPsHOchAejQLh1AmvhDAib1M7eJyxpQm1rg/EImE1tIWrPWRKuHIHQxrPqNy4BswYTTPGnFlzS3M3qLEtw939n6lrf+Y0pZv9wPL2FyQzHvV8KGQ+gANYcK1zAmyCHeajLC/A7XK/hwDtrZHThwld3Oe+z/o3nsmR4Eb6ahxLP4t3j4kq9CxEywAuPT8Y0AXsrCZmF5XmeCszV4v6lZSMeGGlWFsyiV53+uZFwShhO0GqTtUEQay3uGybBTDS09QlB80z/6secCZg1GIb0nKtofUJoYrbqG9Mz6xxWqqAN99caE6PWRl2ul1y9kzDJsu5SyFga47Buk6ZghDcCxe1reWBtyQ1uPuFYfbgGrzYEDF3C63mUeA7vsWZ4EU8at3kp8W58usTN2u8LETIZDM71m4xiIjNtRXrQeSDVGAgLecLHCJsF8I4AWMsQMExb8AHsLpE9wZApaCwYhvMdFoFqDZZ7RJB8GcxysjS5iwmYr4gJGLgSQEEXjGqLQRvvwBdDCqvbdohhvSNo5iNwEq4pEelYa8xw3GfoN9dkLLnPfwgGC21s4xEw+YsEijULBu9tPVAc2piPZ67mA25RxtmmOocu8V64wJPL8fDuST7kvBAhs9EnSpN2MAlu1dwMXJvccrJn9RvDEgDwZNESNFFE2p+AxfgIn2C6nxYtAZO752CZmFHf3gWz59zNBA2jchFZMBFB/RIwbZTaETSWlNXCwJgTk7JgvsczhnkkgNrQuuYUrv0Hmf9ujomup7TdsHT1jcuqZ53AB04CRnDMJyUTDlhogZBwbT7acMfNFczBXZvzKKeyx5PLueJdh8geF3fnKmSZWImjZUaENFqLGwJw9SwuvUOc6hy6NBYGzaJZ28g+sL6hedfGr00b1tZQUqoIkFC6/tbm4Jl1jPUJK2lbQEpWLuKyjd8uAsNqacNFc1/S7hSuNVg9oyympj4uo8x6/pSBUlyOQVGYD7zZG7QGI2D74BJwoiTmfOB/Of/lWIf8vVy2iHLO8fCuNfbEyb77cxUyfi5gbDBD/gRcQKHcOkLmz8O9P09Nhhly3eybWUsJuQuFT1jnPfgwF6bAHD76e+QjH3lt/bFLG2eduKKy6J2azPXUj3fLeYMtS8BqiYJRRKxf7/YxM5i5sKxNdNjHGPvesdBc24kH92CnWGROwIOIoGfTgs823oHZOpLgmo81kbk311n/vO79v3UGAU/izTk23sXDcFS9ffg6VyELEEAvTTCgZ1Tnzne+8y0mNid5qHsEx+A2TGljm7usC63M/VkbNwa3FhFFpJUxMuZPkDDTsm2MJIOEi8gNNCYt6d1SYGJILpVNZXtNrWmWYeblWP3GzP2ZQrS4nlJYfU0I4MgcuIj3ute9tm6gZ8u5BI/nlEzzgTvWORxU77xLaW0JD55cZh3hXTwMd8dRWOcuZIC3s74kks1aALtoj32bvKdFegyLyO77rRSksAajzbgyrBMBQPwpaLUDCwGzwMf0GJ5rKRgi4EBgXMGsnXsCSJEQYhofs2FMY+dKgy8YtSFgxlFPRrjABkUQY6oz4WrMSgcAOVPxegQL3VyyHbjGc076p93BTsBYTL/hQ6AlvDV3pXmZDwVmDcaKc4XNxzoTDuZc5n3zOVSJHqWf4cdlyhjexcPwcSmFjGbwZ3NLBHExAI0BRG6W78/yNwJDFEaP4H5b0IreOcMdIxlT3TVB8xyjYSaMX3qV5/oUDCFoBMmz4E/oPC/IURshbmsszErowMfV8h5Dyv8j8PaN9OO59COMKXigzS5mNDffgh2HKdaEEN20FRSgVLLS5mVtaUuCUBEoMHjuHrzmQ/mEB+8JEQEzX8IVfuDaf4lRHOaTMCv9hqOe1eYsy2DHgymWtSR1PCyGcBx8nrslc2jJzKcLQVPDil71/BAlRFq4gwPz+Z2AOVKaVm3cmFlgJouG4b3HbBjFc6F9dTFfDFjUUWZIxMNoMjlmkCNB0ic4hK8FAjBVAtY4CdhUEhbm7YlNQTNm41Iepwndx0z94WJzhAt9t84OX+ZibMJEkERRs9AU05qA1YaFdgaiOubjOeGizHgHu9Z46p32SoDxYHNeS69i7RyIWp01xdSzcxcy5xXKY5vIMLG572ARPN+f9T3iIzS3BDMTKpbACbdTwOa4mJ2WxTC0rDnE+O69d5lLhDJOFs2n9Xx5pXMtCGUCoN0cS5oXocGYNr4xlw3fBKz62rtXEjSMaU0k+AAGguA9ZSIpmTWK8NdTikrCgT5dBMx5HASMi2gOhL+5qOOegJgPi4Y54R0el7huPtqw0NoI6XO/0YfFnp8gNc4hSjwIR6wZwxBNGwvN8fJx8HjuQuYz7+V6S6ChP5QAtPBokzlEifiQhjERThDBN1nclhh/OS7tqY063CLWBhMQghh62RbDGct+kM9MBAykSmE0z7MGcyx9uOBIhNVY9pIImP4mE2vXXLSxJ2a7wXZAz1lbf2c0PYXjMMZaHZ+4UE7B6+xE+PNsyYTVUXpnrStlSXCDUMIjGGe97s3FO/QJB3AtcONd9Q5ZFqKnmPDm8js+9OFGruFp+ezchcxHiVyiiSB5gDNpFUPO92d9n1CwGPe85z234WYlRO4iIiEjFNYZ1mwPfOADt1YQg2GINYYhEDEfN1SY3hFo5rOrTc/1a50j2Rcjw5n+loIZQypZDJbSloPfrjvc4Q7bJOPWF0sGOOp362T0scFuuwL8FIcwfR+YLoU/moEBzITdfGyJCCqBdTmX2sCB/gim3EFJ0gTa7zU81+4sSzwIN4TM3JcpfnjF3+MehT/vz13I7D1B1kQIQvXvh4DCVPP9Wd8jFE2E6Jie+4fwfi8VQMxKWLhH3DF1rausxfye2n0NVszJImF+qVHSrdbq9Ux/ZT6oyxJxy8CWEIKr+krvwCTqSCF4z83yeck8u+I4TDHr5GISDgqGYIDBXh3LYvPZnxZOWLoPRoEROOYi2tqgcITAW29VTwnP+scj2rBkvimj2PwmnOrVprHOusSD8GD+eFMO6hwDfHh54mrX/bkLmRy3kBvQ1jaTEXxs2LtDlbIkuG/WGMbwX1lcLeugKWgxFcZHZHWspzACl4egWfiXha4v74LbF8DcI9+HeS4qxWUkeNVRxjQ0vjWLMH0WiXsZY4ItS1x7CsO6zVjWY/ryjEvrmLis0S4m2PdcW6lFFCHhNYc5PzgwnzXFoZ61GkVkPq3B5P4RGuthQlN/5mUMDEzJcC8JsnlyhQlca87wFQ7OurQ+hxeBDbyJ9nMMPIyX9+Gud+cuZKJqy81TzF5KFcDs58wJnfU9ovojdZe+EQyBMfVS0DynwSGZReEmEbxcQUyGgewHJWgxjZC7dwIPnmEg/dl/Y9kIRXPzPo2fgBlHfXUIWhaNq+I5uC3AMStLp45nFILfzmLEJKcRMvSQzMyKB+sswS3P0BbGUnHIzyQU9sEos+aiPbjNh0UjaJ7pi5JIwKxDpzChD8+j5/PdhOks7o1j7nCHN/Ho7Fek1Fo+QdpXnruQ0XpLIYPsKWQ+bJwTOut7xHTVL2JhAM9YNBoT47IaYBXZAiNh0Ua9KQAJGitYQjDLQlhYsPrOKmpPWAUBZDvok8bHXJ6xso2hDE5BFhqW+0TQWCtM6kx5UUx1bU2wOj4qJWDXK2QJ5hOe8IStFdm15go+VkqARt4meMFB8XARKZVw3FyUcAOv6E3QXHCdBdNmKUhOHZ6J2rO/s7xHf4LDXcSb4Jz94wsGY59w9e5SChkGnRM6z3tMU1RLcrCsdYvuCBtTBZPfhChBw1i09zLyWH2lNqwawcCE3E2WkuvJLZoCXLsYjqBxp10OekF8lkSf6jiuTVCGi9N6KmKfpCRkQteEmGUEU7CslcYmaBQL+pmT+ZRNv9bGM4Im6CTAIcRfFHFXfc/Dxb46p31nDvC1T8gYjOPg9ErIxgYm4uUGinj+1E/91DYaNt2TmDki+q1NTCZxlxURdPCuq/pKz3IduVHqC48Tbv1k8WabyViCG75ksDGcG+a9exnkNO9pLRghs59n7RFO1uYyYTQnG8migeYja0ab6SbO+mD2zrzV998Bffvm3ax73vdXQjYE4yyRH9ExluCDYINNYK6DtcKusTASweDqWNBz+ViAwt1r7bSRyc7FxMw2ko1ZXe+7nyU3Ud8O5bFha1xCwIqIJNrTIWDH0bBrdXITH/rQh14TYLCw1OazCy4wchHBJtBTxsa++vDNReQmczXhToS34M2c93nfXwnZKYUM4V2I3NVvvjZ3jwvDRbRGE861bhD1qh6iu1fSxphDaF/wgQbnBnI3CcBkkNrQ+lxLzGVBz/JhTAynPrhmO/fWiJi4jXN9GZuA2deRkUFIEpQ1ITrOM5kMooXzSwnKALx94tI8wEXQwSHYwkW0BoMDeBM5bh61URJYwQOKiYsIByKvzs8wR3ONNtpr4+K6isDW56HKm17IWI5DIS+CIZYrQiIgoltLWIMJTHiHgQgaRsBoBC3Yeo/5ML7QPubRxnpLVE1UCgPWxjgEj9CyeFkjQmf9Iugyw8Xqa0u7Y2JBAVbFc+MbR6KxMPtphYsAOmWYcoCbYFZyA80HDpYWzXzNk/sKHvU9A+ea4gA7ITJPbQR6GitBE9yBa3P0ThsRSRHbWb92Z10W+IDTGy7wcZwQviPXzhppy/7svyCyhbd3LBhhoUlp4tYhmIWQEAYMQ8sWctYO04n4iXqp59LGO4LKotmSiFm8x0BC+BgX8zSGkqBxmxI07TAkJra9kFB6Dk5fYCdg1ytk2nEx9UPBwMUSX36Dzd4bYZ8WWgCGsLDGsx3FYZ1IcWShvbclwltg6Viw2piTS3BHICSL5n2RVM95GLU5VIkHs/qE7IYK4a9tRmOo89yMRkiEKkJH4yK6vZEsGOZ3RXgCgMExE+Ln6ojuaYOhlgTXhvCJuCVorAQLJqvfe2NoZxylfrhaXE+uFAuGwNZg4NQGg7MY9q9EAK9XuGIi7SVoG2MqkOV8/OaacgnhgMLAjCzcUsCaE1gJGgWBzvbbeAuUj0jqHCNce0bQKDwW37wpM7/herY51D3egB/KB29Ot9eY1u2+EA+H+8pzjy6upVU59PI806qyNhjVHhN3yxpsWqOYPyJibu1YH4ImIEJwMBfB8D5BqU3WUL+0OetFwDBq76qr1F4/3DFWA6HVV7JaCT4h9K0aAbveKCKmIFwuR6ARFBZzwrN2D4bcWvPhvlJY5rNW35wERAgKhUS4WEMCtsRx7RO2BM3pXQQMHpc4rs1Zl8u0qnI0G4cr64DefcLVu3MXMkmVImQBqzzvBOGsAbeI9RJyZjn4/IiI+Eti9lxbAiZxV/SRRuvdnJP7+Zw18/kE9847Arus73djwxGYrAWt9RJiisExcx2Gcxorpi1XSP6hjXYwLee9hLH3GN9+HCWgzj4h8w6uudVwzRJqU1/LMeDAJYGbghHptOYtGLKsf4jfJQjDkQRh2yZzHPS5tAnCPg/gX0+AReSc5ZfkH/pTF8S1sBcyJ2T2Zlg0awupVjH6hNG9yBr3RT2fk2AWx2HvSjmqPS0siiiT27rOuqd3y9LYGFK0kksGNwTMxYI4gfgswvRZMNsHXDCCYGxKY8319S5Yzcc8rGtZdeukBKZ6ftcnXFvvEkiJtgSHK1x/s9ROHwRM8MFYzrTkaXC1922lzH5Oe9+nLngSvpfj4uFL+6nL2kebiGpN0P7OoT/aRABrKsTj/iEsl4c7Y/2TRVMPwSM8pieM3BYMxAXCOGvRuIisP3l9uYjG4S5htOrMsjxJawCEZF1c2tuA7pOgs7BgzuOYAgYOwi18TTASGM/hQInZuVLm4Zn2rDRB854yCGfc3j5xoWTgGq3hjVWzNtOmKzyzErI/KEDjeM+aw5l8z7YRaneIso82CZmA0NLzwCOX9qNNn2zTziEmQvqoMMY5j+MHMIB8QWWWAkERH8OIOoLN5T2tapGPqbTBLDEMQSNMGKr5mB8m8Y6AqEswEcs4LIGxwoNSe0xE27dVgKGkSvlPZQvwcJTVv57S+hfTY1wwZXHAQACstVieZRifBeYiUzJwEOxwYk3H6hAUl3maD2GxOS3QAzfemZNgiPkLOOlnChhcU2YJcuMI73OX59i9O+sSD4Zbh8Eu++deWxNXZ1957msyi2zICmjIdc/0xkCsWu8PURqzcSNuDIDx+P9yFn2SkYAVGPG7NhjJPTcOY2qDscBM6DAyAdOmurVt8znXkcD7Lst5j9xFbWwGO3DHMW7WTggZjvYRdd87WlkQhiZuzpXhmgCYD2ZvPhSGCKFghPqu6isJHkGDJ78lSrP8vp8juJ6ZeyWlYxzzz3W05iKUnqGD+rXRrrbLZ707y7LjMOAbby77xsPHzQ09dyEDtA/3aM8JeEfCYZBDHwk3x13eZ2kIGotWSVvTwAnZbGcuBI3GtoeESbhQBCxLOesbw3OCJrCBea3X7Bn53MV7zC3rwnENLNjc4tgnRPve8SLMx/qCkCT4E7bml0WzbgWfduDdZUUwPhyJNrJCLKGASgI2x+h+Chrh5KqybgS5OhdR8rSOOhIOD+Plljj78H7uQgYYjDhTdiASg9IMhaRp8ItAMMbDgDSVfShhWgnCBGyNKcEYY3JlHDEgSZiWTuMvNa/fMTnGjLGEuo3BTbMv9NjHPvYaTo6rNSexYwKlv8xljVrAg2EJl7mAq+e2CkQQ/fspJRJudtGFAMKB+ve///23SqY+19oYCx+I3ElsFrGE9/Cz1uY8ngnXwxlcwjvebFw4ADMe9r56E+/L+wsRMiHwpb/PvaI9AO2S9WBiJtUEz6NEYMwuisj9s6ZSinbFfEs4em5hLuJoD8v6hGAu687f5oapcku9E6m09vuTP/mTLYHTqEvCHfc3XPqDD/MR7JnjH3UvEMSK2dvkxsHLvjaEjIvoZCwWmlCrH36WbT0n9NoIwrCWBUN2tVn2cYjftk4SHvgHX+OAC+8SvOPS4FyFLNPKNUTwKUBcJes1gJtg/wvFSjTBQ5ZpcIIBqYSE22KBywUStrdmqB5Y5r36BJJl4lZJH+MCcSXnPOccEMzaRamOyKL10tOe9rRreIjYxyWo+rRvXoG9HG7nVGoCKRIA9m0+EzBMDwesmA17eFlTHGB32c5gjVgz7QR3pqDBl/mbL7rKLtEnQbYG41qy6qVgqVebibdD39/QfzgRw/jbGQSeAsQEW5THTP11EkQfGqkRPgtWmB5DgZGPLmydoAVPsLFg3mNGfVhriIxhTEw251nbZSnYQUj9H3PKKFyctNReqN8fONjo72vtxoR77njHL/Q8pSGy6ottgmI+5imwYc20Zs20c0qW/wCgYPRH6LSRqjUFrbESMIJY/mhrNBHMgiHhuHbnUR7nr5NmnaPoc66WLGBEbqaLFOIm4DIaen7IMi1MoLhUNDhNjOCYx3uExpBFz1rXgIuA2feS9lSb2mFSGR6EVh/6WpsLC8bFfOYzn3nNgoWrk5SEyyW0DFZWOCGZ44JFYGUZxAhGCo/lK7Qf3LyPZcCqfikYiqXfSu0I3RQ0zykUFoxiEuWsjfHRofD+Ml+weocuy6aB+5T9HBPvFn08Dn0uRMhYNCfBLjX80kw7M3BO7qzvCYMLQ9lQFhXk7iUsxkP4xoVczMuiyYwgYNYeBAwz66u62umHFRRlI7yzr+pZg7E4Z5HFQcAEOAj1UYm+jb8sJ4zdV6o772dbc52/u18KGgGjzFiwZeZP/RNkgmZtlOtYf4cu8dzasqVxzQfv5pVdWiEDmDUMjRnwSiHzgLemQIj5/qzvEzIulYV9FozwT4Exrt8YTDYCDexoAilFawIWnPpBFMJpjcay9E5JuEUjS4425+MQbVcdIXp/KmF/S9bGIS+hfQppzmfXPRywctxAmevWnQJJSxzX3nNKyxYI5cSNFuHt/SFLPBcd8CJFOsfDs3h3Fw3Wnl+IJQMI7b3M+aPlaGPvTdBpw3OCZ32PmC6C4zOW3MBd2rrxBUKcy2HBXoJw72apHxctj6lyz4wpxUiy7GmjhxEVvmhgLufTn/707V/WylQ41OVPGLh8R+EKPggZWgsE2ViHP+08n/jqHn68s2comGJTf6mgqnvWpe2X3G4lnpxj5HmE9+OUFyZkT3ziE1ddGsQLcEGAOcFD3SOqzVMLe0j0exfzYBTazuEvtiL8Rog1hulZEUa/9c1yyntLYzbf05SETH8u96fp67htbW3swlO0MufcccIivYpFgzd1tIeT6vdbBozvz1g9a9vl0qL6Z10+4xnPuIa7tX9z4Ybj3ePiSL0LEzIZDGsh5Pvc5z7bCWAWETJ/tnbWiFzrj6WxBuBqLS1s9e1fCXLYpGWdWDFZ7J5jpOpVYhgRtoTWb6lTQvTn0nJh4AAAIABJREFUJQgnYYaT1rU2Nafmq0yxdC/AwuIRMPjyvmAIt0u9BAueKCQuGVfX+ldofwrhHOus7/FaCdhwgReXY+DZk3ofFyZkJoGhc6GaDMJ5R8i4P3LovJvEq+5ZlYiof24jF9D6jNAkHMbBENZghekxA+0q4ub8Pb67NhNOlk67nhFOx2ab20kZ+jLWT8gICZxJKJg0YY0ctUARTWsPH5QPXCdotdNGVNGmPgsW7np/yBKvFfSAb/Ob4+FVPHtSWlyokPk2qqOtm4w9nZiQtpda1LtDl5jFukzEEDKF1o0J2QkYCzaFz3uWzyasqF4JtSyeT1wIYa6O5N+TEugy10/IzA8OnJvYEeusEQtGAa15Bgma9Vn7aGjf0eZ9BXFoms/+JQIXE4D3ub8IXrQVSzgpTS5UyISbY+Q5WZvVTcQGtSjTfH/Ie8gkaDSpCJr0LvcsmD0cFmzpIhE8VsyeGCYjkJiL/44BE7Lb3/721+bV/G7kMiGDFzSBN4LmOSXl62KMucsaec51ZNFsn8hCoZhse5yXixgv4bGZDCEVrXeVeBXPnpRmFypktIbk0CUR+OJNxNpNyLyJnkdJiGgxQmPvzmJ9CeMaHFwd0TNHE3A9l8J4swpZ8yRs5t2JyPCxhqeeaUdp2QaRjO2Qpdz06pxXicfwWl4UHpxjoz9enZYuHj2qvFAhA5x1yzJVx2I3wE36PL6Ungh1TxtbrFv8yohH/GWd5W/7ORJHJdTSzGn46t2sQtb8CIw1mPlbCgi/925Xya30bzA+9+cxiFjuqnvI5z4pIkAJGWs6x8OjeDW+PEl54UL2uMc97to6xqS4VrSG5yZi0vZ+HDDq/XEsykTO9dxLoLVOYMGsqbgwwsl965Xmnn3ThBb4XCYLZIwm2ZUrWXDnZhWyaCbw4ZAf8xWF4zrKpIEnOIt23fMWfAnuL4hEd7mO1miitRO3h7630c1VxGuuxzzmMddgbWxubzx5EgFT98KFTHBjLowRDBH46QkZMy41qQkfsizSiCEISKU1ls8wCmxMGARKEjDwd/naAMPEXDerkKGXiKAsGHNPqXAdCdqaRWMZ7na3u22TijtqQT8siLQlVnHi+JD3lOh0FfEeWOaYePR6t10uXMgIktBphEEkk+NqZbpN7slPfvL2eQw7EXCW94SsC6KNp3QRdNnhMyIqyOETexYsOJqDNre97W2vLeJvViEzbylW5hsOKlmoLBq8Ulxo68NIKWDXm2NZ/2dR4q0pQNPNT2ng0ZS+8iTXpRAyZphvPhFGk/nj7yYjs1zEatY573sMwrWRtMqiyUZgwUqZWmOyCePNLGRznt2nbCQCF3VEZxbMh51rkeXanleJp+aBOA4sWlpRbq2PaG9oIQO8P/qeTErrCemmYeyyP/jBD75FnfMihHEgHkzuJfv6Py17Y5J/d8GByWI0dRIyc7rRLzQrhL9v/nkePhXiTgrrC4pwJXe1O4/n4EJPirwMDjTBc9EZHHgSb6bs8676fZzyUlgygAoUrGmQuS/hH0ds6J4HEXaNwZrZO/Odkb9uPSpMPfuRs2g+8hZv9OupT33q9ji3qRjnXJf3lA1m9T/W1mhonQAu6x76d0sAvCQ/NsFBG1ZrKkZw4s3jCNOuOpdGyHwEN9c6EI2hJePSMBDhlGFaEJIugkDWjRbFQvs0sy+BZShwHRFmyXBrzw7NQBfR/2TKeQ8ffnMR73rXu24jj1Kl7Ilx09BXnfOmZfyDlwQ8CAcew2tgQufmgSfnJvUuQdr3/NIIGSDl/y0Z1f6U76QImYu2EVq/CGYCn70wn10EJ/dHGJqg9SzYLKCtOyJYz2+20vxEC823ABZcuPfcMejSkQpyCNXDG0GL4c8bJ3hoekl4bO6FmpM5oPk+ATrOu0sjZARIlGdGdiAekZxkRNPYLJQlLTPgvLUfWETEWDBj03h8dyWLNgXNe3DbWGX51oQMAWlJ7on6fpv70ppP5lNPfX2rb3yMzGWd64jZxnPv087B5tkaXMGC4bI0+mONdrUBi01o+2RgU1/f2tzpTnfaulsETD3PjeEjTnuRhe8nzIe6b25KPISX8JXLFk2wBz964EmChD+PI1BrdS6NkAWcdY5JQkTItiHs8/zqmLhUnN5fdDkFjZBgLsmxfPml0ghWBHX2hW+rtGHxfNPGZcGMc/61kTTrOywbvAmok6hoW5+RVG+WthYkLlMCxgQbC2Jcrtus27352Jbg4mlDsGXL21x3X71ZWrs4oxJsxnA5XEdUcW1vcbY9r/uEDO/gIYIj6150cS0NThQ0njtNeWmELE3x8Ic//BYBEIihQYXOmygNxHpghvMi0L5xwJigYUxa3Z+kx5BrAuMZQeE2CaT4fspaRT+0/TIIxCJ55nMZa0JHNWjDfe2btaU189vlWAUnGkt4Jvw2X32ZvTYncBFyLrEwu/8RY6FsVbBuu+aiLwpFrqeDP52w6z4XcW2s834G9uiEh3hGrBjeytoHE1zjxXjuNOWlEbI5CVGoJltJI8/UF38IIFrX+8tQIpQzOx7xiEdsN6cx6z64vLcFIKHY9sRcE+xr56gEuX4spQNn9tXtnTasis/rj/ufywQNbLYr+sD2qDn5buyRj3zkdj7u1V8TzOA67xJvPeUpT7kmPHhqJhIET2H7lP/kz5PeX0ohw6hp8ohK69PgtI9LVAiTYewQc5ElAZFILCtE1Irbm5vUHCZ8nnERfewo309isaTiNmjX2mjPDbM2ZCmNxcrsEk5WTD/gAJt1B9gk5GZlJ0zuG1efLJKkWOlh/o/N2GsCUxt9chHV9wWD9vpZa7Mc9zx+4xU8MyOKPAG8NcfHe5TRWQgYgbx0QmZihMgfzJn4JJDMiiJCzLwDYzoEcyLpvO8xkrUI18/6MZekYMgywIAp5cI5U8QBqODlVhEa6yuCNuetPoHBxNYJGMP3bSJk7jGzNurMuXPf9GscaUFOaeZuarNrjw+D6YvLS8BoeWcjEs673OUu19aYCZbxwGrt5mgFUURCbX7woZ9dSmDCesj7lA1ewTN4zOXvutaOpcN7ePCkFmtX/UsnZE3OTjzNOZFP4zg62mIVkpSOoS5CNQk/2x36HvOxEks4HFhaChYYEgIMyLJYV/Yco2JoAQcffhJW75oTAWPBWHMCpi/Cy130P8yYeVpB7TC3//8iVJ1zqV3rOoKWFm8csFm3aSMYAC7vCBor4FxCAtVzMKKTtSh3lIvomcscrOXA3bOLKtEGr+AZPOavqKyFzd/8mj/FNNP5dgnOSZ5fOiELeMjwZ3hLotA88zNxn8FI0oWcmHjZ5tC/Mda0VhiwMRM0xGThMDEXkTulDuJ6Xn2MzXUURWSFWBZuDlxgfEGM6mprLEEMgkY4MLY2YCJgrNFyDaadflg3riPY4E4bB4/qKw3fXLSxLhNBpFRyHZVSkbJgwVZp6+C45zPW5qxLvIFHOqEZj1k384yMZY7Rj1vcf8HFi6ctL62QcQcf9ahH3UI7Qwgt6rOKjlJW7/GPf/z2/728xywY4qwJdT39JfQEiqvCUgmfi2YF67JfsGNwAiU30KcfBIyw+ER+OTdjYBCC5mteAixgwYKKKOZ2z3EIIcYiaPolJLYHwOaznbV8TGMYO9eRdWIpbSGwcK0/5zgXfR+u/Pebs2LykmwHUUBzXQofPAE8Vy7jaYWr9pdayGgUC3vESqO6p+G5WpDGbXQCL0KzAjHQRRPY+NNC+b9nTC+sHWzzfc8STIzuS2Hz5HIJ02Oa3ldf2XMftrJCTuklPD5GVD9mq41n8KkkaPqnCBz+Y7O9erNUPxrkOqINvKPHrHtZ7s0PT4ARjxAePAM/3MfmE7zmg+cSxoTktOWlFTLCY7I+MVh+Co5pMJ136rgkevKxuS+QC3FL5gqZpyn1Wb/zfl+fNCSrJGrKWqT162e27Rkty0r4Ez7r0F0hdPXN18VVxCjOGZFN0bpu9t+9dqwT62qj2Tj23VqjVW+WwcZ9FUzhcrHQvItZb9e99vWxq85ZPG8McOGJ/iknfuqPMSY8eAw/8YxOK1TL9pdWyBIemkUEjm8fATAUV8VXxxKL1TUxJwx1GCoELjVV7U9TptH1Dw6WM6Iu++25owt8FmMO5mJTGPxL+IKZgHERWbI73vGOWxfOXGllY85x9MEiEijjOAZBtJHbJ7iylgkS7LS5gInME+MIqogQrm2LGNdYYPO3Slxe/ycm6sjd3Cdoxmtu+iHcFI2yuXjf/WlLcOoPLzj5jODgEbwCj3BvjOaEhuhz1muxhO3SClkAKiVvWpBCzCSGtYs9prSP/Q8H3/SXqEsmPg3xGhdhMJq1jjUShvSu93OM1jGihWCJwQQ2OhJ81nfPkrQGEwXURvpTZ18UkPDcmEruGsG1JnM+iWfC9QROqtZS0LxnGVlVVrI/QRe1tBZkQZeChhE9EyjBkCygfri1vq+jAJZzCS/qUTDw5Zs6QsniWtcJyghAqLNsf9Lfczw4wwtldhAyvBL+Zt++Xn/GM56xXXpMvjur+xtCyLiO/pzBemFJDIwo8JG2soMvbQgTLetOxJ70Pu2onZQhY9qwxDAYDhMu+9QmQfe+OhiO1ZiChkG4ukUR5dd5xkoRVkwjr5HAYpT6ExEU5LCeIvjaqG9cazQWjaARRO/ACDcikZKXuU7qpxCs0SgB86JMmhPhF/L3rr6amzrNrfpKfXpuPHuG8DW/QhZBhkfzMu5se9J7cwvfxsMDeIFw4Q1f3+OVZb/Wl3ir5clZCdbs54YQMgD7lgwjxSghi9tBI/O7m5gPCq2BJpNU/3pLBDQ2QRfEsJBGQJubrIHQ/En6ZhW4g1w6aza/CRjhI2BLBWHsDgJlBTAHd0+kVXhaBG05vjb2xwiaQ4DUZ3EImLWKde1so75xizqyaHAIx8bBuPvWbLMv94QMnCxqDB+NlJgfc3Pj5EmeJtQPbjSCR/iRdtdYjkafa+EJJwGfyee1OcvyhhEyBIG48honE2Icbk6fLmD+Rz/60du/bJ0IPc298Vga2h/RjEETg8vmJZcHkzaG+/m755U0PIYQDSQAMjlEH7NgGLS6SuN7RtD8MYZ9NJYQk+z67y5Mp51/oHEeCUajfGTTl1Q8YVQXXJ5xHQk895AlFK1cznHCt3ZPIAmzqB5cKSlLWTv2rODOMxcLd9RxDmtjLJ/5m177qIRX/3jCPPBIc61k+fGUumcpVMu+bhghA7iFqcgZRptMCGnWFUK1EBZRJbZanC8Jcb2/BQf6y10ENBar2eZsMFkTcvMw+b6xwM3dE92TTsWCxAD72rFOEoQd+sLa7KvbOzDCj7zCtb2z6lUSOHgW2uciclGPA1vt4cI4KSS48l9phJWlsX6kCBMySgsu146Pq8+jStkv97///bd94heCbZMcb2hrTpXmhpeMvxSKs/59QwkZQjHtUo9yzyDOhaER1UmwCVpuSMx7EiaJoLUhOLId+ldMQubed1lgwVRgsHbykak1iLWa9vVRn7NMMNVhRWKEWce9996JIgpyYHzuppxJLuzaOOp7zgKxetxGWl3YvXXVcpx+Z9EcTW1M/fTuqFJdVoxAZa1YMLmMtfXelgGlRcBcGN5hO9za6h1VNm/rLW0LdBjX1wACKym75iC6iIfwx1kL1Fp/N5SQNQGJnZgGAWIk95AnCNAf7BE2kUmJtxb4Ifkows33+ufWcRONq08EBIvwMI0462N8DEWDW0NaKyVIs95J78Fu7cZycTG5zVxLriMX0NpnOT/MJfrHTfS3sFxAighcXMCUwBos5r32/DjPtGWhHa8OT3Amerf8myTzEVIve0ddGRc8huOMo445oy1X07qv8RzYY0sDT4SX5iTbw6FM4FL/0NcNKWTcAHtiGBgCIa9SuBoxuSaQSDv6x0TMb8OxekcRUT2Xelwt4+mPxo0ofH9BBJoXDPZlrDcSQvW5aKzCUeMd5z2hkIhrDdY8CJovn+1dUQazH78JpfUbTU/oXD7ExIDLTf7Z9rj3Me6s7xnrBz8xPQ9EZol64dU9d57bFk5ZNpHN2d/afTSXDkbpoDHawD3ac7+L+mbJ9MMyU474YtKy8Q9R3pBCBhHWZ7IU1tZc3Cc+f3sfEIr5BQnk9U2krxHQs4jIUokmrm1UIiiNaCzMT3PPepQBgT/OeLvg6HlCNX975qLJKZxc6Or4bd9sWtvaVOd6S0IkI38t2gh3rJT1EVrBk4uikmPpfeMS9PnVu6+Rj/MxLpyiJQ/DWi6FyoNAD8KnjrGiJV4BUy7/IQRqrc8bVshMhpuBQDOhNWZEgPxuBMDwIkmyG7hWEI8I6kfwWXrO1bAJTJBiFOPy5Qlulk1JAyPe1JAIKhNiMtUcY97HCPPZce73zSNc7Jrjvv5rW53mQGhFQ20bcO1Yi+rMUuifhYUvuFOyZvIG59aBDWrK0nt4lNu5q0/9g8tFiBIwFsklQmmbAe256MGsHR7BK+qclwUzJ9cNLWQmQHPt2qdCTIttxMX8BM0BKtYxa4SYTOLevlVpOQmU/Dah9vvd737/Z+8HM0VwlpP7mDZd9j1/Ywau3WSK+X7ffcKgXNbb925Zd/kbLF3eBZuIbeF3+F9mk9SP+gToSU960jUhU19bNBH04BbaerGWgjv/pW19Ce61+ejbc9aPgBV+Rxs0JkRZbePXB4uOR/BKAg+W87pueCGDNO6CxX1IjdBKG5yIyuolaM54YKFEArXpmu3cWyBzcbQzDgsmgCAyJ4xu7wkTITKCRUAuozD1zLdc9t1vzMDa2SfjWlpb2dfal0Rc20OVxrZ2EfqeXwqI0mLUyZys/S44WDPRzwISFBBcSn+jhJ74xCdug0SUnzrSs9BkCkh9RyNRXrRLwPSHLmiM1kvvxG/5mXgk+kz4z+P+hhcySMLk3DXJrRFllpDvJKjp5tGaLJJ3EXC2cW8DE9ML3WMCQQyaEhN4j8G4OggNjoTRXlRCsuxz+ZtbY30jz057lpKVJKTqNtay3SF+y3cUtRV99MWArQhBFulUgieSgYXIY0xMO4VwCRPY4YgV4XITsjwCffhNwGTrEDBpYGsCpl80IuRoRkDhysWC+TDWO/WWQiY/cn5LFuznWd7wQobQCIdY9kVEApfE9lsUjrYjaLl0CC/itRY8qQ/ERXxMZj1COxMMz41luyANCQ5CYuF+3C+1MZV9LBExcOmLprfnA4aTCllWVn6lk3sFRFik42TJ+zxG6BsuwUKxcA9ZHOtNzyZzmu8++FoXETRuoDUqS6idS//yBu01os8UkKXiQyO0QrMEjHeCpsu20Q59fI6j/oT7vO9veCGDMIyJATDCwx72sO2ptSF6lojhUxPEVT9GshhPi8767iM2ocEELsyD6LS9MRMybqKQPoZWbx8DNo7wPoHAdMFEsztXsfGru68UYeSaYcQHPOAB2zMDO5rN/4BhZDCnIMyr/pojqyVFrDmZVwKhJCACB83Xs31z9K738MfF9uU2heXySY6vK0QiwQBnzTn8gdeGsjlEN0LjHi3RVBvjzDk5uRgvzGjveQtX490UQtZklKzAgx70oO0nFTFRJSJwD0UdMUxMbfOYiyfv7Sg3D/H1Y11goxvBYzopPFy/xjtOaTxuWXPQl4xxcB6nvTr2wGy455IFz+wTU0rClXoE/smQCYNngjXWoXCjPauGUcEomdmfrhOu3iVEx4G1cY6qqx48s4C2RrjPuanmhnZoyEXMWs4+bWY7xxIvhIOLLG86IYNMBOGa+HZpMlT3tL4QdPsrmAYzcS2shfrmqPqTgJ753Rnv3E9jcrN8l3TSjWfROWuGmIDQgn2OuXYfbNxDax5ChAFd+hDFw4wYrefwYq/QpyCzT31NYWGNy26BG5dMehFQbixcgZdymu1mn2v36oa/tffNSSnkzsW0TZD7Cg40Qzs01F+Wuf4ImHUyaxxOL7q8KYWMFsb8kM0vXyOsDWtrEFYD8WJEayo5d/sCIhHUxqoDSSW6SlOyXuvdcUramps6NS53TAbDUe1jSC6eU35jJAwpQCO9zOcpPlScaUs2e/uSYW0MTCslCg5yz/Qt2ECx+KOGhEy/JxGytfHms+YkuCTAgRZZVPShjNDM9svauDyRXPjwcRnKm1bIEAfzStnhckxidm/TU5hepgbGIWzasQIiaZiKO7dPA3NprCvWMh8aZ1dp7UZIJyNg5l3Bm7V+RM+0SUm4J/DVlVYl8toYrNsufGiTZWApCCvrF16s17icrXMI4RqzN/ZJSziES2Nwxc0JPYz30Ic+9NqJX8ZszZYCNSe0ngqrOV90eVMKWUhFJEinvdfC+4hFSLh5Lay10R5zcR8JAat3UoZZq48hrOV8Y4UpjD0P0sRQ3COWZK39fKYv8NvUna4ibT9z/7jMJeqal5D3fD/7dB/TEjY5jtZgmJygwaXNfHDqiyCclZDBsT1IODdOdGAtHUnO+sJX4zV/wkaRoHHCH/0vS3lTCxkkI5Y1imRVC3drmBgLoSKW4IHsA186a4OpXH5zuUQAS8BFaFcMWX9HldZ63EGWEjyimgQkZiDY9nxi9hhqrd/g9tmLtVF9LIXMdgIr0PujhKyxmh8FZL1JsLJo9SXQsg/G+lqWwe45nMItHMM1WhkHDfxGk/bAtCP81r3GRUvrx75LC67LVt70QgbhCMYdlJ3BkvQR35L48uGElYW+1cdYLotoFkbbPik5iYDFiP4UEDxZgiUzEDJHXVtn5bYtYey38V02ywltfS2FTF+irb03Bs1fP8cpBYOmtawvrmdzO04/sw7Y4RJO4ZYVSrm59wwt0GTZjvXizsq4meu24Lps5a1GyBIYUTP7KwIOiIfYiNZlzwZj2uTEvNqlwTGVjHyficyMd4ym/WSGeW8Mv6VNCY9j9CUjNA7rYINWgMGR2bOftXvHA8zzTZZCZm9quqQUhjZrfe16ZlvCkd4TbkIHF81tV9ueT2GEYx+OWvPBKeEKH1xQX2OjQftn+jBOY/mjDRkiaDnb1sdlK28VQhbSIwgG8fl+IX5WI8sRIWlKQvGYxzxma9VqS+C4T9w6AQoRxckAMdVaSStbW0g8FkoXCfMdFPjqP1i5gJhtrZ/57CRCZgwW2lfbs4/j3EvKZWVtL4jwieTZ3N6nXGa/cMQ1NHe4g0OuYXN3LxnbJrz8RW0nXrtHM3ua080OZ5e1vFUJWUTAbLQyt1DyqChjlgwxYw4aXLYBrUnD1p7V0R5TyPy2NzPTlqbWrq9ZEmgfetLINn8LtfdFt3EI33HOu0jIzMklBYoL2XjTknkP9rvf/e7X3lfvOKXsCoLFiidcE1/10bt+w41vz+BRpBPuKCuXufIY4BGu7RtO/Onfb/hi2QU4KCDziB6XvbxVCllEQWTZ3L5BwjxrDINRaHHujf0o7hYCY1j9IDhrh4FoWZn3+lkyWgynXI4jydY60dEAoqBcM9pegvJsN+9jPuur3CZwWaMIhlRXhNB5h80Z3L5YOM4XAvWxVi7nMOtQIn6bl8AJ3MDR3K8DB2ETdpeUbO+rPmbf7h2bACcimyyxtuG/eV3m8lYtZAjFTWGluEHcPzl2EbuSJrWH4/soHyI+4QlPuKaFERdzYyCWTbiZdTkpE6e9MagoZBkNwbAsEzLheMnFMRlGtBFdfZ/NyGWkUMyVkmC9HW9XnbMuzR0OKArCJaIJRy5wgoXFhUvKrb1IcDQv9yygrQ608ZU7Acv6Nd8bobxVCxkCETTEtzcj+8OJTkUfMT6iu2JELqSgiTNDfC6jrT7SsJjYesOnK6Jy3JzZvn6W5VqdtWe18w58Pkw1jgNpbFFg7tY0rCnXDiOzKDLyfUkg63+fpW2Mk5YCFWAxdzhgqeAYjgiHi+cAd3A48zzNpzkpZX3IfKHQijyG6xtBsCaMt3ohWzIBjUnzsxBrycIYG4PK/8Mo3Jjy/EIsZsAYLIzNXJnx+7IsTsrM6seQXDKCZKNWYIGFyl1TsipToIJf++sZd62NuZmj/ThzNnc4CB+Ei0JyHJ0/iIe74F/2B+c+YHWmZGe01M+NWl4J2f//DJ01ciEkq8Ttshi3HpiMgDkmg1o39U+XvrieWjumkEdpj47wSm61+Tr7dD8FYflu1+8Jx1qdGHnWcz9/r7Wbz8C1Bps52Cg2J3Mzx/AXLuHChrKDbQR5lmtMAt/GsjHli/pbYOvKsj7qM1zeiOWVkO046wFxMY7MDMdal5k/GdA9BsS0sg9kjQhBi1rS5jEEZkv4hJ4xEa3vcw2H0lj0n4TxlzAc8ndCKSu+8/DBbg6yVyik5lnJcsEBXFjHwo1+1oTVc33DMVzrE65uBuEKH1dCtkPIQhCCc1t8nyTxtrxCGjgGnEzObbOm40LNRFdMk7DFRIIl3Csb1PZ+rEFsdDvHYvbZvfFo/8qen7Q8jstoXQcWMPk6WlCHVQJzAtA8wpUAkjn7IhsO4GLCBm6CZnzPrclEOuEWjvWnr/qv3xu9vBKyI4QsAovMWXthOGHztfVaDIWRrIW4R1wg30VhJFE2DLRkIr8FTGhx+2P+TughD3nIdvNXkEB+3u1ud7tbBAoa63pLDK+teQiIGMNYNpxlnAg4gGWXtUoYzMncfOlsruZsnbhmtYxnXJFaa15RQzidVj9830zllZAdU8giOobAfBiE+7QmbDFwAoCpuEQiZk62lUuIeetTycVKk/fbuoTlkHrkExZhb8mw9utE8PyftDPxHXzjiDQhcdG9eXnmnTrqaqOtPvRFmPRtDGMZExwuMLkmnO7Bbg7mYk7mtsRDVouwJXAsG/cY7uDwZheu8HYlZCcUshBnLYIxrU9kZixdowRsWRI40TXumI1ne0nyDWcmfWOslawexsegQuQsCeHA+NZ7sifm5Zl36qirjbb6WFrUtfE8A5v1knxOMIPdHMxlOb/5m6C54MbeHFzBGUHeNdbN+PxKyK5TyDADbc+NxMjWVSKH9oomo6XF57PuuZRjizj7AAACMUlEQVTqc7FsPttEFgxhZWj6fQyXsGVt1kp1usB6HKFSzzoRDGABE9gIFVjBDP5poZrPcq6EC07gBo7gat+cbtZ3V0J2CiGbTIE5WQrBAdnpmNPaJAY8qqTxZZtgTAEBTG2NI8/QR56y8mXTW6/Juj+u5Zswup9wyiPUp765lM5X5P4ZGwxgARPYjoK/9+Zs7nAAF3BizCUct6bfV0J2RkIWAyu5ktwzYW6HqpbtHyNWLjU/Zp7P/Ma0NpiteTC96KYkWmFx2STyKst5FP1cu7h4TgTm5mmjLSHSlz71bQxjJVDg6D54lRO+nqtnjoTVnM0dDljXW7uA4YcrITtDIVtqZ+6Z9Q+mk2Yk6HA9n5nEzGslBsf4thQIydrl3S6hWevzuM/MhRIxN3M01+O4pEs83ey/r4TsgEJGk2MgJeaj3QUehK1lSviHGWlGx2Xqi64HVoekig4KYJiLOZlbc73ZBeZ65nclZAcUsn0E4UYldL6G9gGnfSqu3a7skvMUMh+Y2ssCE9hsFidUVy7gyf4R5krILkjIEsAZTmcN+hxFhM+msANmHF4qKOFAmaPC5icRRH3pU3DF30kZy5jGtjkOlqxwlqoy+K/KowXuSsguWMiOYlKuWBcLQijtg3E5fUlNKEQIZa1LzVq7vFNHXRFFUT95mYRIn/WvPAqeq/dHC9USR7eRRWDX/+q6wsEVDxyGB24j5Hp1XeHgigcOxwO38TGd3LWr6woHVzxwGB74f2j4CXzLGqSRAAAAAElFTkSuQmCC;" vertex="1" parent="1">
          <mxGeometry x="200" y="570" width="90" height="75.49" as="geometry" />
        </mxCell>
        <mxCell id="aUsY_H1b6O0TGKv6YpwI-32" value="" style="shape=image;verticalLabelPosition=bottom;labelBackgroundColor=default;verticalAlign=top;aspect=fixed;imageAspect=0;image=data:image/png,iVBORw0KGgoAAAANSUhEUgAAANAAAAC4CAYAAACSA2JDAAAgAElEQVR4Ae2deXQUxfbH3//vd96+7/uusmUAQURUXFGf+lyez4e7QiasCavILgKCiKIooCCKGAUVZFF2WSTsIsga9iSTzN7buB2/v/PtpPM6ne7JzHTPZEIq58zpnk5PV/Wt+6lbdetW1Tcg/oQEhAQylsA3mvrl119/jS+//BKff/45PvvsMyQSCfERMmgROkB9pd5Sf6nH2fhzBIgJfvHFFy1CUAJqUamlogPUZ69BsgXoq6++EuDk0MooigL1zDEh8xzJnPrt1V8jgGjuUqFZ3ONNra8mEpB3rIPy8qOI1gSE7HMEEfXci78GAAnL4w0U6VQuweOHoDzxX6gDOiKwfD5ojdL5vbg38zLzwhLVA8S2oSiMzAsjI9nJcSjL5kLr1wlaUUfIU++HcuqwKIccWSGWmds+UT1AwmGQY3gSCUiflEEZe4sOj1bkgzbwYihvToMSrhEQ5Qgi6r2bPx0gYX1yD48WDEBbOBZav451AHWE5i9AbOT1CJd9AE1VBUQ5gsiNFdIBEo6D3AKkSHFE1r4OteRSHRo23+o/hW0Re34QpMrTAqAcAeTGoaADxMGmjNrwOXrB8y1vsdNHEZ3+ELTCNv8Dx4DI74NWfBli60qhKbIolxzoGPU/0z8dIBFhkDsLJMsSpJXzoQ2+FHq/xwDHfPR3gDLtYUhnywVAOQCI+p/pnw7Q+VbD5/P7qAfKoI25AZq/fWPrY4IoUXgRKueNRywWExDlACIBUA6E7BbMaCgI6bliJArbJoXH6A+pg7ohsnOjACgHZSsAyoGQ3QJUvfIVJPpelBI8OkSF7RAefSvClWcFRFkuXwFQlgXsFp7Y8YPQRl7VZNPNsD7GUfW3R+Cd2ZBiEQFRFstYAJRF4bqFJ1RVgeDcUY1d1qY+jwGM3VEZfysi+7ZCFWNDWatEBEB5ChBj28IfvQ955PWpN92sYA3oivjCxyFXV2VNgdxWEi399wKgPARISyQQO3Mc0rP96+Pd7CxMk9f8PqgjroNWthoJVQSbZgNWAVAeAqTGowivmI/4gG4ZN9/q4Spsi6on7kH01FFhhbJQ1gKgLAjVVU2naYge2o3I6Juh+Ttk3nwzN+f87SGtfgWqFBcQeVzeAiCPBeoKnkQCerxb6XRo6bitzbDYnfs7QB13G+JH9gmAPC5vAZDHAnUDkMKpCmXvQx1+jfummw1INS+ORDhQISDysMwFQB4K0w08/G312VMIT7oXWmE7b5puZoj8Pkj+DgisXCQA8rDMBUAeCtMtQMryeeAAaL0DwAyAF+d+H+QxN6Pm7CkBkUflLgDySJBu4aneuxXqgC7Zg8cAkP2hBaMgiykPnlQiAqA8ACgerIYys0/a4ToZWSq/D/EhPVC9XcxedVvp8feZ/onpDB6BR69bzQevQy65zHmej2E9vDr27wx13gjIZ09A0zRPamIvlLElPkMA5BEImRQ+Iw4iJw4h+lRfdxEHaYPlgzbsKijr3oAmiXlDmZSd8RsBUDMCpIaqESudDnVg1+z3fayQ+QugTbkH8qFdSAgrlLEVFgA1E0CapiK8exOCw67zLuLACkkT3zl79dy8sWDokFGjimN60/QFQM0EkBoJQZs1EAl/FsZ8mgCnofPBh9hJsShjphWHAKiZAKrcshKJPhfmvulmgYsASzP8Yn3tDPVAAJSh4DKtsbgoPHdU0Mb/q9mabg0tUEeo/TsjuGwu1LhwKKRbrgKgHAMkRcOIvDwuN2M+FmtjBaf+O6O+x9wE+ZMy0RdKUx8EQGkKLN0aynq/vGsj5JLLvQkW9TJmrl8nqC+PQkKRBERp6IQAKA1hWWFI93voxGFIE2/zZMCUS1wpM/sjMaKnR/0oH6SBXVGzcj7YzEz33Vrr/QKgHCmLqiqIvPUM5H6d3QPkbw+1uAfi5Z8isq4UiaICbyDyt0N0Sm9ETwivXKoVggAoBwBxxwT5YBnUx2/3wHHg03dmkN98CgkpDsbRybOHevBc7vLgg1bSA/Flc6FEQsIKpaAbAqAUhJRqbeR0n1ITQOy1SdAGXFyrpKl27h3ui097BNLR/XoEAeGMlq2B9GgvT57NaeTxcf9C9ONt4GCv0zuJ67XNXAFQlgHSuDzV1hXQRnFda5dNLa6yM/xqRNaWQjG5nOVgALHSp6AN4rYnPnfNOb8Pif4dIS8Yh0S4WgDUhH4IgJoQkNuaVquphDSNUxVcwqNbIx9is4sRC5xrGEXNhUgO70Ns0r+9cY8TwoFdENv6ngCoCf0QADUhILcAnSqdhYQXq+v4fYgNvhRVm1c0hKcu/4qqQln+fG0zkds+OjT/Ur/ugzLsashZlo9b+Tb37wVAWVSQqsMfI3H/rz1Q5o5QizqiZvEMJGTnpankcBDKi8XeWKGijmCwqfLyWEhi9qqjJRYAZQmgeKAS0osjUt6SJKll8BdAnngXYiePOBakURNXbV8HZYR3q/ooQ69EqGwdEsKhYCt7AVAWAOIChvE1b0At5ixT0z6mmZz7C5AY3BXxjW+D62UboDgdFYYKLZ3lPt36vPqgvlACtUpslWIncwFQFgBSjn0Cdeo93jgO+lyI4CsToKSxTUno7AnIU+7zqCnng1rcHdLqhWJlUxtdEQDZCMWupkn1Gsd8ZH3Mx4MVdrjE1aO9ED19rEnLY86fvjj9/u11DgWXFpCWyF+A6PjbEf6kDHy2Oa3Wfi4A8lAhqFzyrvW1OyJ44bYe0AXqmtcy2nVbiUZQMWtIejvb1TfbbKArbIvKVyYgFqoRAJl0RgBkEobb2lStOg3txcHQUtzLNGn/yN8WkWmPQD53IjOF1TTIh/cgPPY2j8J8OuiDwfKhnbZudLeya6m/FwB5BJCmyAitfhXa4G4edOB9UMfeArlsDTRZzgygRAJaPAr5g4VQS3p40x/j9POZfsiBcxnnqaWC4pRvAZBHAMknD0Od7JHjYGBXKK9PhhoMuFJUrvkWLT+E+LMDvFk2i83S4u5QPliEhBgb0stGAOQFQHIc1a9Mdj9NQe+D+KCN7gX58G5Pmkq0jMHNyyENoRXyIELBXwD1sRsQOrzXFdxONXpLuy4A8gCgio3LIPfzedJMUvv5cG7J82AQqlfKJIVDUOYM9yR/er/NX4D4kw94lj+v3rM5niMAcgkQdzqQSzyIgqb1KWwLdWYRYpVnPFfOmvJDUMf/04P+WZ2Hzt8ONeuWgHsaNYfi5kuaAiAXCsDIgPg7L0DzZEaoD2rJFYgc2OWokGq4BtrZ487/Lz+AeKDCcaxGWvsGEvr2KR405Yo6QZ7cW58Vmy/K3Bz5EABlCJCqyIjsWAdp7C3ua3W/D4q/A2KvTUE8bh8syvSCW1ZAW/eGI0DKh+/g3IqFkGP2K41KNQHEXxjmjVu7qKMeqhRfztmrYcc8NYdS5zJNAVCGAMXPnUTN7GGQizq5B6hvG8SmPoTQKeeIA/lcOZTpDyPx3guOyqpteAPKkw8l3Qu15sBOKKP/6U1/iEGu426FtHczODM2l4qbL2kJgDIASJElRDe9DXXEte49b3QND7wY0odLoanOjgN11QIkhvVAYtVcR0UlQFrxpahZ8ARkh/EjVZagrpjnDUBFPij9OiE+71GorXRsSACUAUDS6aMITbnfGyXkZLuXRiZVwOpP90Ib1hPagM4pARQf2A2BA3scQZNOHkJw4l3eRExw8t6AzghtW9EqrZAAKE2AWIMHlj7nzTb0/gLExtyC0K4PwWWv7Jol9HKdm1YIrW8bRPtdjMp35tjex9/WWqDu+niPOuJKRw+ZpkhQty6DNtKjeUOF7aA80RuJSNAxb3bvdj5cEwClCVBg7zZoI6/2YKqAD9rg7pDfe8lxqgIjCQI7N0L1t9GbitX+zjhaOttRSesBKvJB9bdDxZpSx71/GI4jvzIW2qBL3Pfh6oJQTy6YmrQZej4AY30HAVAaAMXDQcgvjfZI4XxQpt6D+IlDjkBEAhWQZw+u85r5kA5AXJ5KmdUfcW7jaPOOdMHL+7ZAHXeLRxEK7REZcg2q9m53fB+r8p0P3wVANsplW7CKguCqRdD6e+B1owu4fydEN5Q6zzKVYpA2vQ1Fd1Rw8DJNgNjBL+6OyMr5jhaOG2tF33kemld7FPnbIzzDj1grmr0qAEoRIPX4J4jpa7t1cG2BuCdPzcz+iMWctxORyz9FdHofqPXxaz7UFHXB0SVNeeG6mzyDBVCevB/xw3sd4+oiVWehTuCUh/au34thPmw61rwzp9Wsry0ASgGgUCiE+IvDTIppM+Es2WQ08//8bOpcjfAhZy8ZpzBI696Aoq+pYEQN+FDTryuOvf2SYxPJ3AeqnWtED1kXhN6cCa7YY2dZ2byr3rEe6gCP9mnVx4ZugXKkdQSbCoBSAEjdtaHWY+XJemsdUbHi1aTL5mpnjkKdcq8lYiATgDgdu4Me3Z0o328LEKGKRiKofnG0dzvmDeqK6OLJiAXP/9mrAqAmAOJOBZGZRdD0XRVcWB5aIX8BAs8UI1rtPM9HkeI4Xfo0Eg//xdKkyhAgru/W50IEXp+adDNhLplVM8kKbYbvWzflIVa2FqqHUeV2FrS5rwmAkgCkxiKQVr8CbcgV7j1V/gJIj92Imp0bkg44Ro4fROixWy3Wp9aJkH4Trg4AfwdES3oilmxREEVGfH0p5OIe3jRVi3yIPtMfSqZT0pOUS3NDY05fAORUUJoG5dh+KFPvs1iCTGvldggtGAsp6LxgO5euCr421cHaZW6BjDk8ysIJUJLMco2eO4nIrIHeRChwJZ+B3VDzfmaLopiVNJ/PBUAOANH6VL0wwqPauCOkJ/6DOBfkcEiPSiLt347YkJ4OIULuAUoUX4LgB86ucw7chrevRmSoUx7SrDz8BQgP64lQkrGufIYjlbwJgBwUOrp3C+Lcg7TejZym8tR73nyQiy9DNacZOExVYEHJoRqos/x6yE6tB82ankuA9D5YB8Qn/gdKxUlHh4IcqoZUOg3aQI+8cn0uhPTKOMdpGqkoaT7fIwCyAaiiogLBsXd60pRRObj4dD+oSSbCUUECa0qhFnEsxnBbZwGgOqjVJTMdAWJepOMHIU/+LzQvpmowzQFdIG1fnTTNfIYkWd4EQBaAZEWGtHyuN/0ewjD0Sj1kJlkhhANVkCbdlQQewuRDcMClOLFikaMiNh4HskJYu41jbNR1qDri7NbmVIjYqoVQ+3uwnysB4qKME++GVOX9VPVkcs3F/wRAZoA0FfGd66AOvdIbgPq2QXzRVEiS89bxshSH9O5saAObCur0CCAq9MCuUJc+q68b56Rk4XAYgVlDoPW50BtZ+NtDXj7HMazIKR/5fl0AZAKIOxBEnh1k40K2qcnrmkP2/RXW9O0QHXUjwoEKR4uR0DRIRz5G/MkHU2gueQgQo7Uf/zek/R8ldanXHDuAKK2QF8sUF/kQH34NasrWJnWk5Dsw1vwJgOoAUlUV0vt1q3g2BUdT/9cVrgDBDUud4eH8nUgQ8tvP6dManPs+BrzeAqQN6Ip46QxwoRKrUhjf1UQCkSXPegRQRyhFPsTmDINaXemYppF2SzkKgOoAih3Zj+gT//VGWbhIyMIJSZWT1ie2fzuij92cosXzEqDaPhU3LA7SIiRZz4BjQ4Hpfo+CTX1Qh16ByJrFkE2bJLcUWOzyKQBKJKCGg4i9ORNqk/0QwxokOfo7IPjoP1G5a0tSxeRWjfKbM6AVcrJckufV/89rgDqCUeGBmYPBMS875eA1LvAY27Gubpdx95HobA6qT/sRP3XEMULcKS/5eL3VA8TaN7xzA8Ijb0zREjSh7CXdoa6Yg0QSpaQinNm/K003ufcAEdxEYRsEdm1yBIh55XJYwVcng82+1GBvQkYDuiBQ+gzi54EVavUASdWViM9hxEEThZ7K//3tEZ96b5OLDdLinXmmOM29e7IEkL8dlGmPIFrjHOCq9w/3fwR1/L88auK2R3jkDVAP704Kbj5aHGueWj1A4WXz0rQEzqApJZcjtv6NpF4mTqWOblhaN8bi/KzGQGcHIKbD8Z7gqleRSBI5TYgiy+ZA1iMUnAZ703ifvhdBeerhFj/loVUDFDpxGNESRlp70Lanm/al0Ygmc1snEoidPQmZbuu008weQMyLOuluyOUHk1qEyInDkJ4u9MYK6dMsLkBobWmLnr3aagHSBwqfG+bN8lSF7ZAY3QvKwR3JO8ZcTmrVfD20pbGFaar29iE0+HKcXrvEUclTikRwaor26wh1yQwkFOdBXzoUlLI13g00+wugTLwTsRa8VUqrBUj6aBVUr5ojRT5I69+E7LC2m9Furtq/AwyjyWxg0odw8RU4s/6d7ADk9yE2/CpUlW1wfD7fIx6NILBounfNXn8BKl58NPmAs2mw25BlvhxbJUCx4wehzGRTxIOFNLglyfS+CAScO+EsbC6cqL71JDTuI+QYMJrMCmUZIFomRk/MHoRoOJQUosDJY1Cn3O0RRD59ury8I/l4VL4AY81HqwNIikZQ/dZzkHWXrMvOsN8HmWExh5y3JDEELh3ZC3nibS6UjgD1yJ4FqgMoMuoGhLl4pKYlhejMuiVI+C/yYLpHR337yZrpfREsd14jz5Bjvh1bFUBUitjeTZDG3OS+4DlPyF+A4PwJSYMyWeCcRBc7W47YW09BnXhH7VybDJwIWQOIeRnQFcqYmxB+/QlwHYimAOLsWeXFYo/c/z5IAy9BcNncFhds2qoAildXITJnKLS+HkQY0/pMvRfy8f2Oy+daa0tViut7nwYXT0d48n21EKcMUhYsEGP2/O0RnHA3gounIb5vC6QmBoCNdyJg0QM7EB/D9RsK3INU2A7R8f9CcP/2pCsWGenny7HVAEQPUnTLcsgjr3Vf4H6fvrWJsnEJNMl5cUS7QqY1kkLViJ44hNjiJxEe0avWpd3kzFcPAWJahe0QHn49wgsmIPTpHj1PHOuxy7PTNc6ijS+bA63Eiw2MuYbdxahZMAlSC4pQaDUAVZ06gcATD2Qw/mLTsfcXIDL4MlSueMVxNzgnpTNfV2JRxE98Cu21iUgU/qMJl7pHAPVtg4S/DeR5IxE5sh9KNNJkc82cZ+u5Wn4QyrSH3FugOvc6B6MjO9anBbI1T7n83ioA4sZVMmeZco0Dp3GQdK/7OyDxyN8RKemJyg9KkQichSZLKTfnrIXMPYCUV8ZCGXa1aTlfM7zuAFLZzBrcHdILw3F6x2bHrU+s+bJ+Z+ygJsehnD2O8oVPIlTs1UB07bsm6NWc3BuJUHKvpjVfzfW9VQBUvWcrEkMv88ZtbQXN3x6JPhdAmXwPAu/NR+zTXbXTGJrwYtkVOPcCYu0b4ADvgC4W2F0A1P9iVM8qQbxsTcaLe3CPVjlQgeodGxB56xmoY29F4pF/eGPRLTLlQpCcJ5VsJq+d/Jrj2nkPUDwSgvzUI3rovmfWx1Lg+nM5Zbl/F0TG3wF5yUyE921DOGi/HnWygtY75/u3QRt+pcVTmCFA7O8M7YHox1shZwK1qiJ08gji21ZAevkxxEf2gkrHhxdjaHZyrLumDuiM4IGded+UO68B4o7XEa4sWuRFrJu5OeV0Xuva1gZ1Q2TMPxF+1o+qsvWQIyHnbUzsRtkP74Q2+FKPAOoAbdgVSBxNM/JZkRAqPwxlyTSEJv8H6sjr9E5++jF8TrJq6noBpJdGIVZxOq8hOm8B4nTk+Ke7oDz+7wxH/psq4CT/18eIOuiT5WIjrkV83ggENy2DUlOZNFK73jId+MjGU5ipBUoPIC1co8f0qUtnQeK2J4ycKGxrgTnJuyexKum2AJRhPRFf+wbUPPbKnbcAacEA1NKp0AayL+Ey4sCVUvj0kXZ1cDeEnxuCys2rmgyVSezfbLNTgg/RoT1Rue19xxrZNpiUza0ULFBcVVD9yQ5EX5kEiasS6eNTmYYdeQVYJygz/VBPH3V85/pKx86S5+DaeQkQxzNqytYjNIKb6LatA6g5IapTKH97fR8edVJvVG1ZCS0aBDvnViWQP96IxEN/buREiA67CpXbPmh0v/H7tADSNGiKDDUSQmB/GbQZfZAY2gNaX1qbXDV5nUCrq3T8bRGZcAeCez9CumNUhkyyfTwvAaLQ2P+pOLAb0beehTr6pv+tu9bkgKVToXp4ndMf+lyA+JTeCKx8Fcqpw/q6BBxk1Z0IZauzBpCqaXqfLF5+ENWrX8Ppib2hPvQnb138mVpsLsbC1VCHX4X48wNw9sOVSWfKZhuOVJ5/3gJkvDxngEr7t0Fe+hxUDvhxV2p9PCgPLFJhO8j9OiE29QFIKxdAOrwHciSMwOZ3PQdIPbobbNZKB8oQWPIcIlMfQLxfpzwBpzakSBnzT9S8NBbSluUtZnrDeQ8QQaJDQYmEoJUf0DfVDY69Td/L09OBVRe1rt5kKukBZXJvhEpnoOrVKTYrgvqQWROu1o0tL3sB2qKJUMffhtiAS2qbaXlhjS9CfGhPBOeMQHz3Bn1GL5cWNirAfD+2CoDqC4F7/kRDkE58iuD7i6BM+m/tUlZZHtNIyftUp8xyv4shDeagr9VCZggQwe5/MbSSy+qiwFnbW5/tYfM0lYqEfSzmYeS1kF99HNKRPZAClcmXAcuBQ6BeT9JIq3UBZBIMO9CxQCUqVy+GNMNfu319s3eeqchOyu0CIF2pnZ6bQ3gYTtS3DbRRvSAveRaBfduRSDMYNxMlz+ZvWi1AhlDZaY8HKhBe+yaik+5Goh9raIbn54HCNajN3QKUQ1Aa5Lt2Rwg2l+PF3RFYMBHRw/ugMm7QVKG11PNWD5BRcHQ2KIFzUFfOR3j8rdCG99THb/IHppYGECsgn95slEZeDfmFEgQJDhdWOQ/AMfRGAGRTmGfOnIHK2K9niqCOvKa2edfsFsmH2LCrUbV9rWPNbTsOZLUGufjuL4A8uDvij9+lb6MSOrg74+hvQ1Hz9SgAsgFILyxNhXTqKKTN70JdNAna0CvSXEnU6yYTV825BoEkq+Y0O0B0xvS9CNEp9yGyYj7CHKCNRx2Bz1co0smXAMgJoLpBTc7x4fiJvGcjgrOH682SRN+LLFECXsNi97w8Bohzo/pciMDQa1G9bC7k8gNQ49G8jR5IB5Cm7hUAJQGogfAY+hKLInbqKJT5Y5AYUje/SHc42Cm8x9e4btvQK/PLAtW9uzrmFlRvWAKlpqrOOZB8RZ8Gck1V/nl6nwAog4KRY1GcLduI4MsT9LATbiScda+dDtAVeQAQnQOdoHIl08m9EVlTinDF6dSizDOQdb7DJgDKsFDpSZKiYT00JjJvNNTHekErogucgZhZcIE3O0Cc69Qe2uBuUKY9iMB7C6FUnExvnlOGss5niARALgtVd8nKccQPlEFaPAnRiXdCG9jNZj6P2yadD5FhV+Hsjg8dO+VZcSKwQujXCfLwaxB+8kHIK+dDDlSiJYXbZBNAAZBLgMyFI0lxhA/tQXzpLIQn3g11UDcPp5L7EBxxHcp3bM0ZQNzBLjbkasizSxDe9DbCp8tbvcUxlzfPM/37Bn9ofZj4XjsdgXNsqg/uQeT91xEcc3vt5DjXYUI5BIjbTvbvDHnuSFRtXYX42XIo50nkgNc6KgDy0AKZC4chQoy3U86dQOW7L9cuoNjnQhdNu2wD5NPHcOiir5ryIIK7NkKLhsElwczvJc4TDeQhAMoSQFZF41rS8uqFkMf9q3Z3Os7FScvZkCWAGBVNd/SQy6HO9EPZvfG8CrWxloPX3wVAOQKIBUeHQ8Xxwwh8UArt6YchD+pWOyCb0liS1wBxZ4lOiJX0gDx/LKQ9mxGqOtegdvVa2c7H5wmAcgiQoUBcQFE9exw1q16DMqs/tOLudSvfJFuLwIfg8GvcOxHYF/O3gzyqF0ILxqFq83uQqqsEOBnqgQAoQ8EZMLg5smOuVpxCfNNbCD/THyojwDnWYudw8PsQHHpV5gDVPVMZewuqX3pMn/0pc+WiDBZbdPPO59tvBUDNCJChTJxKIVedgbR7I2pmDkKw5Mo6i2TaNiRTgHSL0wGhUTcjuniavh9pvCbQaiMHDJl7dRQA5QFARmFqmopYOIjAzk1QFoxBYmDn/1mjtAGiV60NokOvQujNZ1B96GM9wJPeQSM9cWzoUctEHgKgPALIXID02lV+tAbxp/sg0a891MJ2CA5rugmXKOmuQycXXYTy50chdOwAEjZrz5nTEueZgyQAylOAzEqt7NuKmmeLUTP1QZzcU+ZoQbRtyyBNfwTyq5NQc/aU433mZ4vzzOGh7DL9E5EIOQYvHKxB5PA+hKoqHMHQKk8icuwApFh6u+YJiDKHSACUYxCEsmaurPkoOwGQAMjRouWjwuZbngRAAiABkAsdEAC5EF6+1YYiP7lvHgqABEDCArnQAQGQC+GJGj/3NX6+yVwAJAASFsiFDgiAXAgv32pDkZ/cW0QBkABIWCAXOiAAciE8UePnvsbPN5kLgARAwgK50AEBkAvh5VttKPKTe4soABIACQvkQgcEQC6EJ2r83Nf4+SZzAZAASFggFzogAHIhvHyrDUV+cm8RBUACIGGBXOiAAMiF8ESNn/saP99k3uIA4hJQ4XA4ax8+31xI3MbDKb1YLAbzKjdu8haPxyFJ6W/9zvSd8heJRNLaTSFZ/oPBIJhHs2yS3R+NNtzike/mlE/ea35uKueqqoK/s3tmLrdeaXEA7dq1C36/H3369PH8U1xcjB07dtTv7UkF2b59O4YPH45HHnmkQXr3338/XnjhBdTU1NQX/vHjx/Hoo4/i4YcfbnBvU3ktKirC2LFjMXv2bLzzzjvgO1ZWVtY/N5lCnT59GkOHDrVN77HHHsOnn36a0nOodO+99x6YF2t++e68vnHjxnrZENyPP/5Yl431ffv27Yvp06fj5MmT9Wlv2rQJDz30UKNnM60JEyaAskv2ntb/8f5JkyY1KpcBAwbggw8+yNn+RS0OoPfffx/f/e538c0oZVMAAA5hSURBVOtf/9rTzy9/+Uu0bdsWq1atqlcS1prLli1Dp06d8Itf/KJBet///vd1UCoq/rfIx/79+9GjRw/87Gc/a3BvU3n9zW9+g1/96lf6737yk5/g73//O/r374833ngD586da2DlrIp0+PBhdOzYsVH+mGb37t3x0UcfpaSYBw8exI033gjKwS6/Dz74II4dO1b/LAJEKLp06WL7m9tvvx0HDhyov3/JkiX4wQ9+0OjZfO+//OUvemVEi259P7vvtD5lZWW49NJLQXkZ+eWzLrjgArz88suNrKXdc7y41uIAWr16NX7605/it7/9racfFkL79u0bAfTuu+/i4osv1hXcnCYBolJZAbr88st1hTLfm+45gSKEv/vd73DFFVfoEFibT0bhEyCfz9cof0yTMKcCUCAQ0K0607TmlUBRLrTMRpo8mgGi7Ky/cwLIeh+/s3Ki3AiFOQ2ncwJEa9itW7cGsqbcLrzwQrz00ktIFUanNFK9LgCqAzGfADKUjArx85//XK9hZ8yYgerq6kYK5hYg9pOGDBmCb37zm40gIDy0bqy0rArlJUB8X1aKTzzxREqKLwBy4fliYbIpQOXK5GMop/XIWpBNgm3bttU3mdiE88oCMa9Mg7W88aGC8sOmB/9vzZPx3WiaPP/883qn2azMbgCiVSstLcUPf/jDRmmzQmHzaN68eY3SZPpeA8SK4qqrrtL7nHy2+R2t5wIgFwCxg0il+/Of/5z2509/+lMjRaGSUnlZgHQWmGt5rwDi85lfNsfYzzA+1157La688kq9j8V3+va3v61DZoBjPlKh2WRZv359A+XKFCA6DTZs2IBrrrmmUfOP+f3Od76DwsJCW3iyARDT/P3vf4/Jkyc3aYUEQC4AYnt98+bN2Lp1a1ofKl7v3r0btJkNBaVloCLt3Lmz3vpQSbwCiMpPR8TixYtBhTc+7LjT8UCvG9v09Fz17NnTFnLmlfkcOHBggw5ypgAdOnQI7KfQuhly4JGKzHTYv0vmGfPaAjFtyon9TcrCanXM3wVALgAyCzKd8xUrVugdTDuFadOmje7xIjDmZ3oFENPs2rVrI+thTovnTO+TTz7RXb0/+tGPGig2FYxWkoDt2bOnPp+ZAFRVVaX3e6iwBMYMEC0h0/jwww/rvZHWfPJ7NgBiPvjeHKZI5gQQAOUYII6V3HbbbXrfw6wsPGdtW1JS0qDpZihMrgEyFJPWtV27do2sAxWe15cvX54xQGy6sd/zxz/+Ua/xzfIwnr9o0aIGVs6Qh/mYLYAMC8hWhjk987kAKIcAcbSaXia6nc3KwnPW6HQcOLlPmwMgKgoHZwm11QpRuTjOMXfu3PoaOl0LxHe97LLLGlUmhiViE9HcDzQrrvk8WwCxXGix2ZRjc92cpnEuAMoRQKxtObLv5GWiN++tt96yLSQWVnMBxHQZlcBOtaHYVCye/+1vfwNd2qFQSM93OgAdOXIEt956q62jgtaH/Z6jR486ysNQYB6zCRDflRXeggULbJuRAqAcAcQwFnaUqRwsFPOHtTvDSBhLZVYM83lzAsTBwL/+9a+NAOK1adOmgbFpzGuqADE0iNaFtbsZSsqEzdibbrpJt8RUTrMMnM69AoiDxRdddBH+8Ic/NCgfltkdd9zRIJrByIsAKAcAsRny5JNP4h//+EeDgqHCcByGTTd22I1CsTs2J0DPPfecHolgVnbDAj399NNpW6CpU6eCbnzz8ygLAkUXO0OYGPtnJwe7a14BxL4YvaN0sjAvRiXHfLLsGG9oDTYVAGUZIDbd3n77bRQUFDRyW7NmY7jHq6++2mT0c3MBxObZsGHD9AFjQ6F4pFKxtjbnPRULtHTpUl0Z7Swxm7cLFy5MCx4C5RVAbKa+9tprGDFihN5kNb8vK7rrrruuUUCsACjLAJ04cQL33HOPY0d50KBBepCmXc1qvtZcALGjbwc/a+gOHTro1sLIZzKA6CxgYCU9kFbLYwBJC3DqVPrbQXoFEJtwBJyBqRwoNlsh5pHQM1LdaLLyvQVAWQSI1mfWrFm6B8uqNBzjYCGtXbs2pRq3OQAqLy8HAWfEubk25jm9hr169dL7PU0BRMWky5s1OJtCVlkYz/7Wt76lTydwClY10rEevQaITW5Oi+A7Gnnjkf2zzp076/0zpikAyiI8FO6WLVtwySWXNCoIQ4EmTpzY5BiHoSxeAsSw/zVr1uhps01v/tCRQYcHm5333Xef3qG2NreYf9bOY8aMaeCZSmaBzIrodM50OJC8bt26lPs/lI/XAPGZzAPd19Z3p0du9OjR9Q4fWiCWM6PNWSka70YZiWhsF4CdOXMG9957r62blsrH/5nntBigOB29AsgoWE72mjJlih51zMhjfjgBjxPNrr/+er1/w6hkqwJRQXiNwZbWMSu3APHZ7GvcddddoPVzkoX1ejYAYvQBZUKrY0DBI8uOTVpCw3wwbYZdMWLCfK8hZzGdIQOIqOz02FjHTowCoAVgeIrRDLAqhN13rwAylIFeMHq8eDQ+zC+bLfzYgWPkn84DxtJZm1peAETFoxuZ0d6peuK8AogAMDLCAINxgawoCLUhNx5paRjsa/SFGM4kAMoAFDtF5zXWTlRKOyX83ve+h8cffzxl5TDS8Bogs0Kkes7al/lnv475MfJmHNMBiErIZ/GZ1vQpNzodGOBqPDvZ0SuAWHEYADE9AsxBZLNlYV6ZP+bbmJskAPIQHrp92XY2t4cNBeGclgceeCAlpbAqTHMBRItAheGRs0FXrlzpmP9UAaLy0YPHyAtOp7DW8JTXj3/8Y72ZmyyQ05BRtgDi8znL94YbbmjUj2Xz9uabbwaDYQVAHgHEGZWsndk0osIZ4Bi1Fq+lMq3ZUAzz0WuAjFqUymz+EHwqNGFnk47hOpwnxMHP3bt3J7WcqQDE57Nz/eabb+rPYrAo07PKi/dx2gVr+aaactkEiGXAiYx0HljzSIv1+uuv61NARBPOJUQsZEYuMwzFDI4BD125qUzQMkNjPvcSIPYxuGgJp0ibP7ScdK2z3c+OPJ0KHLthXyBZmJGRz6YAIrRUOq58Y8TPcZ4Px4YIrFluVFbmkyE/dCgQEiMd6zHbADGvd955p24VzXlkxXP11VfrEemcw2Vu6jH/wguXBlRcNomFbXUcUJD8MESEbfpkimBVDPN3rwCiErP5xCBQripkfDi7lq5bhu5zBRtGYdO9bXUUmPNkPU8GkAEEl+AyT47jWBkHLwky82ZWUH6nW5vRDrzPmp7xPdsAsXLkikjMizmPfCfGA7LcrQu48H8CoBQBYuEyBIVLIrFWMisBBckxAipqMiUwlMHp6BVAzF8qE+qc8pHsejKAaIEZTEvXt7VJxn4E142jxaG8zPJjrc4BW0ZvO6WdbYCYLvtC9LzxPcx55HeCwrI3X+e5AChFgDhJjk0iKzxUBIanjBo1KqV5LU4KwustHSBaPXq4+B7W9yQAdOszqNZcwxsgMUaOg7bW3xnfcwEQoefgMysfOweRkVfjKABKER42cQgIXbKG8IwjgeI6aamuyGkohN2xpQPU1LpwtM5075v7EYYcqYyUr7npZ5ZRLgBiepyGwX6hnaU08mocWxxAn332mWMNZRa2l+dU6vnz5+tWhgIzhMcja1KOBbFp50Wa5ztAlBEDb7kSql0NT08dJ+DZzVDNFUDMI5dXpjvfzlKayz/XAFH/M/37Bn/4+eefe6Ko6Sg73boMkLTWmhQeBcyYKcPblM5z7e5tDQDxvTmdgPK0KihlykBUuzUScgkQWxx0GtCbaAbGep5rgKj/mf7pAH355Zc5BYhz5BmpzE6kVXgsfNakjDVjyEsmHw4y0hvGYEUqVmsBiO5yeiztIsAp11tuuUVfSN5cyeQSIKbLheydljA2dCHXAFH/M/3TAfr6669zChBDPDjISEEZQjMf2U4mRFx4I90Pf8eARc7DJzitCSC+KxdZ5CCqXVOOcuU4knlmaK4BokPhxRdfTLoueq4Bov5n+qcDxB9/8cUXOYGItSQnyTW1sDyFmMmHNS2jGQhpawSIER2c6mHIzlwxESoO+JoXPMw1QIT87NmzuPvuu23DkJjfXAJEvXfzVw9QrqwQxy3sRs/NBe3mnMJvzQARCEY/cHDS2r+kXLmCEff9MfYtag6ACBGb5myFWPtruQbIjfUhePUA8ctXX32VdSskALLfTjHZQGpTbmwqpPnDJhr7kASIFYq5QuLwAJt4XOGVzanmAoh6wBAfaxhSLgGivrv9awAQH5Zth4IBEBdgZ5Ch1x+OebBW42o45iYc15Xj1Gh2sM1p/t///Z8e5c0NsAwlZEeXs2G5MLv5Xv6W/at0Z30az0125BrXHH235o/pM1Qn3UDavXv36tHaHEg1vwPPOf2bUdJcO44Asd9E9zJlZ72XEd/mDbbooKHMrPfRspmnMyR7V/6PDh6G+BBw67OYD/bXzAtPNvW8dP/vxnFghq4RQPxnNi0RJ1LNmTNHXzeZaydn48MtHjnybYS98MiZj1zUwi49OhyMCV4sCC7OwRmVdveOHz++yWW00i1M3s9+wciRI23THDduXMoLJRppcyoDp5YPHjzY9plcPWffvn06QFwWjAPadu/LpbeYN+O5HMuxu4/uaW4pY9yXypGVFuMK7Z7HVWgJtpsQLqc8eGF5DIhsAeI/2TbMhmOBNQ/Hd+jKzubH6mniGAQHEu3SpGPDcHlT6ASOAaF29/IZhmVzKqBMrjNNu/R4jWlmokiEyOmZvG7MF+L7ON3HisWoiPheyZ5plnkqMqDMKXuntPk8WshUnpXKPdRnt30eAxzj6AiQcQMTpLnjYFNzRCykIhhxT8M+kJBHrTyor9Rb6q/X4Bh8NAmQcaM4CgkICTSWgACosUzEFSGBlCUgAEpZVOJGIYHGEvh/aRuRpkvSMYIAAAAASUVORK5CYII=;" vertex="1" parent="1">
          <mxGeometry x="630" y="670" width="67.82" height="60" as="geometry" />
        </mxCell>
      </root>
    </mxGraphModel>
  </diagram>
</mxfile>
